ISO-10303-21;
HEADER;
FILE_DESCRIPTION(('FreeCAD Model'),'2;1');
FILE_NAME('Open CASCADE Shape Model','2026-09-28T08:42:36',(''),(''),
  'Open CASCADE STEP processor 7.8','FreeCAD','Unknown');
FILE_SCHEMA(('AUTOMOTIVE_DESIGN { 1 0 10303 214 1 1 1 1 }'));
ENDSEC;
DATA;
#1 = APPLICATION_PROTOCOL_DEFINITION('international standard',
  'automotive_design',2000,#2);
#2 = APPLICATION_CONTEXT(
  'core data for automotive mechanical design processes');
#3 = SHAPE_DEFINITION_REPRESENTATION(#4,#10);
#4 = PRODUCT_DEFINITION_SHAPE('','',#5);
#5 = PRODUCT_DEFINITION('design','',#6,#9);
#6 = PRODUCT_DEFINITION_FORMATION('','',#7);
#7 = PRODUCT('bottom','bottom','',(#8));
#8 = PRODUCT_CONTEXT('',#2,'mechanical');
#9 = PRODUCT_DEFINITION_CONTEXT('part definition',#2,'design');
#10 = ADVANCED_BREP_SHAPE_REPRESENTATION('',(#11,#15),#2001);
#11 = AXIS2_PLACEMENT_3D('',#12,#13,#14);
#12 = CARTESIAN_POINT('',(0.,0.,0.));
#13 = DIRECTION('',(0.,0.,1.));
#14 = DIRECTION('',(1.,0.,-0.));
#15 = MANIFOLD_SOLID_BREP('',#16);
#16 = CLOSED_SHELL('',(#17,#127,#158,#183,#208,#232,#256,#281,#306,#323,
    #356,#387,#516,#541,#572,#597,#622,#646,#670,#695,#720,#737,#761,
    #786,#911,#928,#991,#1016,#1072,#1097,#1163,#1188,#1244,#1262,#1293,
    #1318,#1335,#1353,#1370,#1392,#1409,#1421,#1433,#1458,#1483,#1508,
    #1533,#1558,#1583,#1621,#1640,#1698,#1726,#1750,#1778,#1802,#1829,
    #1853,#1873,#1893,#1913,#1933,#1950,#1967,#1984));
#17 = ADVANCED_FACE('',(#18,#88),#122,.T.);
#18 = FACE_BOUND('',#19,.T.);
#19 = EDGE_LOOP('',(#20,#30,#39,#47,#56,#64,#73,#81));
#20 = ORIENTED_EDGE('',*,*,#21,.F.);
#21 = EDGE_CURVE('',#22,#24,#26,.T.);
#22 = VERTEX_POINT('',#23);
#23 = CARTESIAN_POINT('',(40.82130500999,0.48728981458,0.175296098616));
#24 = VERTEX_POINT('',#25);
#25 = CARTESIAN_POINT('',(34.148609054531,0.48728981458,0.122806645783)
  );
#26 = LINE('',#27,#28);
#27 = CARTESIAN_POINT('',(40.82130500999,0.48728981458,0.175296098616));
#28 = VECTOR('',#29,1.);
#29 = DIRECTION('',(-0.999969062069,1.E-17,-7.866060325288E-03));
#30 = ORIENTED_EDGE('',*,*,#31,.F.);
#31 = EDGE_CURVE('',#32,#22,#34,.T.);
#32 = VERTEX_POINT('',#33);
#33 = CARTESIAN_POINT('',(44.894762061157,0.48728981458,4.445070250427)
  );
#34 = CIRCLE('',#35,4.108932378799);
#35 = AXIS2_PLACEMENT_3D('',#36,#37,#38);
#36 = CARTESIAN_POINT('',(40.788983900026,0.48728981458,4.284101355548)
  );
#37 = DIRECTION('',(1.E-17,1.,4.814824860968E-35));
#38 = DIRECTION('',(0.99923235104,-9.9923235104E-18,3.917535749893E-02)
  );
#39 = ORIENTED_EDGE('',*,*,#40,.F.);
#40 = EDGE_CURVE('',#41,#32,#43,.T.);
#41 = VERTEX_POINT('',#42);
#42 = CARTESIAN_POINT('',(44.887040193612,0.48728981458,4.642029266356)
  );
#43 = LINE('',#44,#45);
#44 = CARTESIAN_POINT('',(44.887040193612,0.48728981458,4.642029266356)
  );
#45 = VECTOR('',#46,1.);
#46 = DIRECTION('',(3.917535749876E-02,0.,-0.99923235104));
#47 = ORIENTED_EDGE('',*,*,#48,.F.);
#48 = EDGE_CURVE('',#49,#41,#51,.T.);
#49 = VERTEX_POINT('',#50);
#50 = CARTESIAN_POINT('',(40.658629927087,0.48728981458,8.676024274758)
  );
#51 = CIRCLE('',#52,4.198606828098);
#52 = AXIS2_PLACEMENT_3D('',#53,#54,#55);
#53 = CARTESIAN_POINT('',(40.691656421679,0.48728981458,4.477547342868)
  );
#54 = DIRECTION('',(1.E-17,1.,1.203706215242E-35));
#55 = DIRECTION('',(-7.866060325286E-03,7.866060325286E-20,
    0.999969062069));
#56 = ORIENTED_EDGE('',*,*,#57,.F.);
#57 = EDGE_CURVE('',#58,#49,#60,.T.);
#58 = VERTEX_POINT('',#59);
#59 = CARTESIAN_POINT('',(33.889431967309,0.48728981458,8.622775707852)
  );
#60 = LINE('',#61,#62);
#61 = CARTESIAN_POINT('',(33.889431967309,0.48728981458,8.622775707852)
  );
#62 = VECTOR('',#63,1.);
#63 = DIRECTION('',(0.999969062069,-1.E-17,7.866060325288E-03));
#64 = ORIENTED_EDGE('',*,*,#65,.F.);
#65 = EDGE_CURVE('',#66,#58,#68,.T.);
#66 = VERTEX_POINT('',#67);
#67 = CARTESIAN_POINT('',(29.887807842572,0.48728981458,4.428296414602)
  );
#68 = CIRCLE('',#69,4.036473866639);
#69 = AXIS2_PLACEMENT_3D('',#70,#71,#72);
#70 = CARTESIAN_POINT('',(33.921183114245,0.48728981458,4.586426721363)
  );
#71 = DIRECTION('',(1.E-17,1.,0.));
#72 = DIRECTION('',(-0.99923235104,9.992323510399E-18,
    -3.917535749905E-02));
#73 = ORIENTED_EDGE('',*,*,#74,.F.);
#74 = EDGE_CURVE('',#75,#66,#77,.T.);
#75 = VERTEX_POINT('',#76);
#76 = CARTESIAN_POINT('',(29.897606917388,0.48728981458,4.178354788235)
  );
#77 = LINE('',#78,#79);
#78 = CARTESIAN_POINT('',(29.897606917388,0.48728981458,4.178354788236)
  );
#79 = VECTOR('',#80,1.);
#80 = DIRECTION('',(-3.917535749842E-02,0.,0.99923235104));
#81 = ORIENTED_EDGE('',*,*,#82,.F.);
#82 = EDGE_CURVE('',#24,#75,#83,.T.);
#83 = CIRCLE('',#84,4.221039462648);
#84 = AXIS2_PLACEMENT_3D('',#85,#86,#87);
#85 = CARTESIAN_POINT('',(34.115406103482,0.48728981458,4.343715518202)
  );
#86 = DIRECTION('',(1.E-17,1.,0.));
#87 = DIRECTION('',(7.866060325287E-03,-7.866060325287E-20,
    -0.999969062069));
#88 = FACE_BOUND('',#89,.T.);
#89 = EDGE_LOOP('',(#90,#100,#108,#116));
#90 = ORIENTED_EDGE('',*,*,#91,.T.);
#91 = EDGE_CURVE('',#92,#94,#96,.T.);
#92 = VERTEX_POINT('',#93);
#93 = CARTESIAN_POINT('',(23.000045720091,0.48728981458,-5.5));
#94 = VERTEX_POINT('',#95);
#95 = CARTESIAN_POINT('',(23.000045720091,0.48728981458,11.));
#96 = LINE('',#97,#98);
#97 = CARTESIAN_POINT('',(23.000045720091,0.48728981458,-3.));
#98 = VECTOR('',#99,1.);
#99 = DIRECTION('',(0.,0.,1.));
#100 = ORIENTED_EDGE('',*,*,#101,.F.);
#101 = EDGE_CURVE('',#102,#94,#104,.T.);
#102 = VERTEX_POINT('',#103);
#103 = CARTESIAN_POINT('',(127.00025654051,0.48728981458,11.));
#104 = LINE('',#105,#106);
#105 = CARTESIAN_POINT('',(49.000098425196,0.48728981458,11.));
#106 = VECTOR('',#107,1.);
#107 = DIRECTION('',(-1.,1.E-17,0.));
#108 = ORIENTED_EDGE('',*,*,#109,.F.);
#109 = EDGE_CURVE('',#110,#102,#112,.T.);
#110 = VERTEX_POINT('',#111);
#111 = CARTESIAN_POINT('',(127.00025654051,0.48728981458,-5.5));
#112 = LINE('',#113,#114);
#113 = CARTESIAN_POINT('',(127.00025654051,0.48728981458,-3.));
#114 = VECTOR('',#115,1.);
#115 = DIRECTION('',(0.,0.,1.));
#116 = ORIENTED_EDGE('',*,*,#117,.F.);
#117 = EDGE_CURVE('',#92,#110,#118,.T.);
#118 = LINE('',#119,#120);
#119 = CARTESIAN_POINT('',(23.000045720091,0.48728981458,-5.5));
#120 = VECTOR('',#121,1.);
#121 = DIRECTION('',(1.,-1.E-17,0.));
#122 = PLANE('',#123);
#123 = AXIS2_PLACEMENT_3D('',#124,#125,#126);
#124 = CARTESIAN_POINT('',(23.000045720091,0.48728981458,-3.));
#125 = DIRECTION('',(1.E-17,1.,0.));
#126 = DIRECTION('',(1.,-1.E-17,0.));
#127 = ADVANCED_FACE('',(#128),#153,.T.);
#128 = FACE_BOUND('',#129,.T.);
#129 = EDGE_LOOP('',(#130,#138,#139,#147));
#130 = ORIENTED_EDGE('',*,*,#131,.F.);
#131 = EDGE_CURVE('',#22,#132,#134,.T.);
#132 = VERTEX_POINT('',#133);
#133 = CARTESIAN_POINT('',(40.817371979827,-1.271018542E-02,
    0.67528062965));
#134 = LINE('',#135,#136);
#135 = CARTESIAN_POINT('',(40.819338494908,0.23728981458,0.425288364133)
  );
#136 = VECTOR('',#137,1.);
#137 = DIRECTION('',(-5.562144597234E-03,-0.707106781187,0.707084904766)
  );
#138 = ORIENTED_EDGE('',*,*,#21,.T.);
#139 = ORIENTED_EDGE('',*,*,#140,.T.);
#140 = EDGE_CURVE('',#24,#141,#143,.T.);
#141 = VERTEX_POINT('',#142);
#142 = CARTESIAN_POINT('',(34.144676024368,-1.271018542E-02,
    0.622791176817));
#143 = LINE('',#144,#145);
#144 = CARTESIAN_POINT('',(34.146642539449,0.23728981458,0.3727989113));
#145 = VECTOR('',#146,1.);
#146 = DIRECTION('',(-5.562144597234E-03,-0.707106781187,0.707084904766)
  );
#147 = ORIENTED_EDGE('',*,*,#148,.F.);
#148 = EDGE_CURVE('',#132,#141,#149,.T.);
#149 = LINE('',#150,#151);
#150 = CARTESIAN_POINT('',(40.817371979827,-1.271018542E-02,
    0.67528062965));
#151 = VECTOR('',#152,1.);
#152 = DIRECTION('',(-0.999969062069,1.E-17,-7.866060325288E-03));
#153 = PLANE('',#154);
#154 = AXIS2_PLACEMENT_3D('',#155,#156,#157);
#155 = CARTESIAN_POINT('',(40.819338494908,0.23728981458,0.425288364133)
  );
#156 = DIRECTION('',(-5.562144597234E-03,0.707106781187,0.707084904766)
  );
#157 = DIRECTION('',(-0.999969062069,-3.469446951954E-18,
    -7.866060325288E-03));
#158 = ADVANCED_FACE('',(#159),#178,.F.);
#159 = FACE_BOUND('',#160,.T.);
#160 = EDGE_LOOP('',(#161,#169,#170,#171));
#161 = ORIENTED_EDGE('',*,*,#162,.F.);
#162 = EDGE_CURVE('',#32,#163,#165,.T.);
#163 = VERTEX_POINT('',#164);
#164 = CARTESIAN_POINT('',(44.395145885637,-1.271018542E-02,
    4.425482571677));
#165 = LINE('',#166,#167);
#166 = CARTESIAN_POINT('',(44.644953973397,0.23728981458,4.435276411052)
  );
#167 = VECTOR('',#168,1.);
#168 = DIRECTION('',(-0.706563971401,-0.707106781187,-2.770116094278E-02
    ));
#169 = ORIENTED_EDGE('',*,*,#31,.T.);
#170 = ORIENTED_EDGE('',*,*,#131,.T.);
#171 = ORIENTED_EDGE('',*,*,#172,.F.);
#172 = EDGE_CURVE('',#163,#132,#173,.T.);
#173 = CIRCLE('',#174,3.608932378799);
#174 = AXIS2_PLACEMENT_3D('',#175,#176,#177);
#175 = CARTESIAN_POINT('',(40.788983900026,-1.271018542E-02,
    4.284101355548));
#176 = DIRECTION('',(1.E-17,1.,4.814824860968E-35));
#177 = DIRECTION('',(0.99923235104,-9.9923235104E-18,3.917535749893E-02)
  );
#178 = CONICAL_SURFACE('',#179,3.608932378799,0.785398163397);
#179 = AXIS2_PLACEMENT_3D('',#180,#181,#182);
#180 = CARTESIAN_POINT('',(40.788983900026,-1.271018542E-02,
    4.284101355548));
#181 = DIRECTION('',(1.E-17,1.,0.));
#182 = DIRECTION('',(0.99923235104,-9.9923235104E-18,3.917535749893E-02)
  );
#183 = ADVANCED_FACE('',(#184),#203,.F.);
#184 = FACE_BOUND('',#185,.T.);
#185 = EDGE_LOOP('',(#186,#187,#188,#196));
#186 = ORIENTED_EDGE('',*,*,#140,.F.);
#187 = ORIENTED_EDGE('',*,*,#82,.T.);
#188 = ORIENTED_EDGE('',*,*,#189,.T.);
#189 = EDGE_CURVE('',#75,#190,#192,.T.);
#190 = VERTEX_POINT('',#191);
#191 = CARTESIAN_POINT('',(30.397223092908,-1.271018542E-02,
    4.197942466985));
#192 = LINE('',#193,#194);
#193 = CARTESIAN_POINT('',(30.397223092908,-1.271018542E-02,
    4.197942466985));
#194 = VECTOR('',#195,1.);
#195 = DIRECTION('',(0.706563971401,-0.707106781187,2.770116094298E-02)
  );
#196 = ORIENTED_EDGE('',*,*,#197,.F.);
#197 = EDGE_CURVE('',#141,#190,#198,.T.);
#198 = CIRCLE('',#199,3.721039462648);
#199 = AXIS2_PLACEMENT_3D('',#200,#201,#202);
#200 = CARTESIAN_POINT('',(34.115406103482,-1.271018542E-02,
    4.343715518202));
#201 = DIRECTION('',(1.E-17,1.,0.));
#202 = DIRECTION('',(7.866060325287E-03,-7.866060325287E-20,
    -0.999969062069));
#203 = CONICAL_SURFACE('',#204,3.721039462648,0.785398163397);
#204 = AXIS2_PLACEMENT_3D('',#205,#206,#207);
#205 = CARTESIAN_POINT('',(34.115406103482,-1.271018542E-02,
    4.343715518202));
#206 = DIRECTION('',(1.E-17,1.,0.));
#207 = DIRECTION('',(7.866060325287E-03,-7.866060325287E-20,
    -0.999969062069));
#208 = ADVANCED_FACE('',(#209),#227,.T.);
#209 = FACE_BOUND('',#210,.T.);
#210 = EDGE_LOOP('',(#211,#219,#220,#221));
#211 = ORIENTED_EDGE('',*,*,#212,.F.);
#212 = EDGE_CURVE('',#41,#213,#215,.T.);
#213 = VERTEX_POINT('',#214);
#214 = CARTESIAN_POINT('',(44.387424018092,-1.271018542E-02,
    4.622441587607));
#215 = LINE('',#216,#217);
#216 = CARTESIAN_POINT('',(44.387424018092,-1.271018542E-02,
    4.622441587607));
#217 = VECTOR('',#218,1.);
#218 = DIRECTION('',(-0.706563971401,-0.707106781187,-2.77011609429E-02)
  );
#219 = ORIENTED_EDGE('',*,*,#40,.T.);
#220 = ORIENTED_EDGE('',*,*,#162,.T.);
#221 = ORIENTED_EDGE('',*,*,#222,.F.);
#222 = EDGE_CURVE('',#213,#163,#223,.T.);
#223 = LINE('',#224,#225);
#224 = CARTESIAN_POINT('',(44.387424018092,-1.271018542E-02,
    4.622441587607));
#225 = VECTOR('',#226,1.);
#226 = DIRECTION('',(3.917535749876E-02,0.,-0.99923235104));
#227 = PLANE('',#228);
#228 = AXIS2_PLACEMENT_3D('',#229,#230,#231);
#229 = CARTESIAN_POINT('',(44.637232105852,0.23728981458,4.632235426981)
  );
#230 = DIRECTION('',(-0.706563971401,0.707106781187,-2.770116094278E-02)
  );
#231 = DIRECTION('',(3.917535749876E-02,-4.51028103754E-17,
    -0.99923235104));
#232 = ADVANCED_FACE('',(#233),#251,.T.);
#233 = FACE_BOUND('',#234,.T.);
#234 = EDGE_LOOP('',(#235,#236,#237,#245));
#235 = ORIENTED_EDGE('',*,*,#189,.F.);
#236 = ORIENTED_EDGE('',*,*,#74,.T.);
#237 = ORIENTED_EDGE('',*,*,#238,.T.);
#238 = EDGE_CURVE('',#66,#239,#241,.T.);
#239 = VERTEX_POINT('',#240);
#240 = CARTESIAN_POINT('',(30.387424018092,-1.271018542E-02,
    4.447884093352));
#241 = LINE('',#242,#243);
#242 = CARTESIAN_POINT('',(30.137615930332,0.23728981458,4.438090253977)
  );
#243 = VECTOR('',#244,1.);
#244 = DIRECTION('',(0.706563971401,-0.707106781187,2.770116094254E-02)
  );
#245 = ORIENTED_EDGE('',*,*,#246,.F.);
#246 = EDGE_CURVE('',#190,#239,#247,.T.);
#247 = LINE('',#248,#249);
#248 = CARTESIAN_POINT('',(30.397223092908,-1.271018542E-02,
    4.197942466985));
#249 = VECTOR('',#250,1.);
#250 = DIRECTION('',(-3.917535749842E-02,0.,0.99923235104));
#251 = PLANE('',#252);
#252 = AXIS2_PLACEMENT_3D('',#253,#254,#255);
#253 = CARTESIAN_POINT('',(30.147415005148,0.23728981458,4.18814862761)
  );
#254 = DIRECTION('',(0.706563971401,0.707106781187,2.770116094254E-02));
#255 = DIRECTION('',(-3.917535749842E-02,-4.857225732735E-17,
    0.99923235104));
#256 = ADVANCED_FACE('',(#257),#276,.F.);
#257 = FACE_BOUND('',#258,.T.);
#258 = EDGE_LOOP('',(#259,#267,#268,#269));
#259 = ORIENTED_EDGE('',*,*,#260,.F.);
#260 = EDGE_CURVE('',#49,#261,#263,.T.);
#261 = VERTEX_POINT('',#262);
#262 = CARTESIAN_POINT('',(40.66256295725,-1.271018542E-02,
    8.176039743723));
#263 = LINE('',#264,#265);
#264 = CARTESIAN_POINT('',(40.660596442168,0.23728981458,8.42603200924)
  );
#265 = VECTOR('',#266,1.);
#266 = DIRECTION('',(5.562144597233E-03,-0.707106781187,-0.707084904766)
  );
#267 = ORIENTED_EDGE('',*,*,#48,.T.);
#268 = ORIENTED_EDGE('',*,*,#212,.T.);
#269 = ORIENTED_EDGE('',*,*,#270,.F.);
#270 = EDGE_CURVE('',#261,#213,#271,.T.);
#271 = CIRCLE('',#272,3.698606828098);
#272 = AXIS2_PLACEMENT_3D('',#273,#274,#275);
#273 = CARTESIAN_POINT('',(40.691656421679,-1.271018542E-02,
    4.477547342868));
#274 = DIRECTION('',(1.E-17,1.,1.203706215242E-35));
#275 = DIRECTION('',(-7.866060325286E-03,7.866060325286E-20,
    0.999969062069));
#276 = CONICAL_SURFACE('',#277,3.698606828098,0.785398163397);
#277 = AXIS2_PLACEMENT_3D('',#278,#279,#280);
#278 = CARTESIAN_POINT('',(40.691656421679,-1.271018542E-02,
    4.477547342868));
#279 = DIRECTION('',(1.E-17,1.,0.));
#280 = DIRECTION('',(-7.866060325286E-03,7.866060325286E-20,
    0.999969062069));
#281 = ADVANCED_FACE('',(#282),#301,.F.);
#282 = FACE_BOUND('',#283,.T.);
#283 = EDGE_LOOP('',(#284,#285,#286,#294));
#284 = ORIENTED_EDGE('',*,*,#238,.F.);
#285 = ORIENTED_EDGE('',*,*,#65,.T.);
#286 = ORIENTED_EDGE('',*,*,#287,.T.);
#287 = EDGE_CURVE('',#58,#288,#290,.T.);
#288 = VERTEX_POINT('',#289);
#289 = CARTESIAN_POINT('',(33.893364997471,-1.271018542E-02,
    8.122791176817));
#290 = LINE('',#291,#292);
#291 = CARTESIAN_POINT('',(33.893364997471,-1.271018542E-02,
    8.122791176817));
#292 = VECTOR('',#293,1.);
#293 = DIRECTION('',(5.562144597235E-03,-0.707106781187,-0.707084904766)
  );
#294 = ORIENTED_EDGE('',*,*,#295,.F.);
#295 = EDGE_CURVE('',#239,#288,#296,.T.);
#296 = CIRCLE('',#297,3.536473866639);
#297 = AXIS2_PLACEMENT_3D('',#298,#299,#300);
#298 = CARTESIAN_POINT('',(33.921183114245,-1.271018542E-02,
    4.586426721363));
#299 = DIRECTION('',(1.E-17,1.,0.));
#300 = DIRECTION('',(-0.99923235104,9.992323510399E-18,
    -3.917535749905E-02));
#301 = CONICAL_SURFACE('',#302,3.536473866639,0.785398163397);
#302 = AXIS2_PLACEMENT_3D('',#303,#304,#305);
#303 = CARTESIAN_POINT('',(33.921183114245,-1.271018542E-02,
    4.586426721363));
#304 = DIRECTION('',(1.E-17,1.,0.));
#305 = DIRECTION('',(-0.99923235104,9.992323510399E-18,
    -3.917535749905E-02));
#306 = ADVANCED_FACE('',(#307),#318,.T.);
#307 = FACE_BOUND('',#308,.T.);
#308 = EDGE_LOOP('',(#309,#310,#311,#312));
#309 = ORIENTED_EDGE('',*,*,#287,.F.);
#310 = ORIENTED_EDGE('',*,*,#57,.T.);
#311 = ORIENTED_EDGE('',*,*,#260,.T.);
#312 = ORIENTED_EDGE('',*,*,#313,.F.);
#313 = EDGE_CURVE('',#288,#261,#314,.T.);
#314 = LINE('',#315,#316);
#315 = CARTESIAN_POINT('',(33.893364997471,-1.271018542E-02,
    8.122791176817));
#316 = VECTOR('',#317,1.);
#317 = DIRECTION('',(0.999969062069,-1.E-17,7.866060325288E-03));
#318 = PLANE('',#319);
#319 = AXIS2_PLACEMENT_3D('',#320,#321,#322);
#320 = CARTESIAN_POINT('',(33.89139848239,0.23728981458,8.372783442334)
  );
#321 = DIRECTION('',(5.562144597233E-03,0.707106781187,-0.707084904766)
  );
#322 = DIRECTION('',(0.999969062069,2.081668171172E-17,
    7.866060325288E-03));
#323 = ADVANCED_FACE('',(#324),#351,.T.);
#324 = FACE_BOUND('',#325,.T.);
#325 = EDGE_LOOP('',(#326,#336,#343,#344));
#326 = ORIENTED_EDGE('',*,*,#327,.T.);
#327 = EDGE_CURVE('',#328,#330,#332,.T.);
#328 = VERTEX_POINT('',#329);
#329 = CARTESIAN_POINT('',(16.012740665481,-6.50001524003,-5.5));
#330 = VERTEX_POINT('',#331);
#331 = CARTESIAN_POINT('',(16.012740665481,-6.50001524003,11.));
#332 = LINE('',#333,#334);
#333 = CARTESIAN_POINT('',(16.012740665481,-6.50001524003,-3.));
#334 = VECTOR('',#335,1.);
#335 = DIRECTION('',(0.,0.,1.));
#336 = ORIENTED_EDGE('',*,*,#337,.T.);
#337 = EDGE_CURVE('',#330,#94,#338,.T.);
#338 = CIRCLE('',#339,6.98730505461);
#339 = AXIS2_PLACEMENT_3D('',#340,#341,#342);
#340 = CARTESIAN_POINT('',(23.000045720091,-6.50001524003,11.));
#341 = DIRECTION('',(0.,0.,-1.));
#342 = DIRECTION('',(-1.,-9.5E-16,-0.));
#343 = ORIENTED_EDGE('',*,*,#91,.F.);
#344 = ORIENTED_EDGE('',*,*,#345,.F.);
#345 = EDGE_CURVE('',#328,#92,#346,.T.);
#346 = CIRCLE('',#347,6.98730505461);
#347 = AXIS2_PLACEMENT_3D('',#348,#349,#350);
#348 = CARTESIAN_POINT('',(23.000045720091,-6.50001524003,-5.5));
#349 = DIRECTION('',(-0.,0.,-1.));
#350 = DIRECTION('',(-1.,-2.5E-16,0.));
#351 = CYLINDRICAL_SURFACE('',#352,6.98730505461);
#352 = AXIS2_PLACEMENT_3D('',#353,#354,#355);
#353 = CARTESIAN_POINT('',(23.000045720091,-6.50001524003,-3.));
#354 = DIRECTION('',(0.,0.,-1.));
#355 = DIRECTION('',(-1.,-9.5E-16,-0.));
#356 = ADVANCED_FACE('',(#357),#382,.F.);
#357 = FACE_BOUND('',#358,.T.);
#358 = EDGE_LOOP('',(#359,#367,#368,#376));
#359 = ORIENTED_EDGE('',*,*,#360,.F.);
#360 = EDGE_CURVE('',#92,#361,#363,.T.);
#361 = VERTEX_POINT('',#362);
#362 = CARTESIAN_POINT('',(23.000045720091,-1.271018542E-02,-6.));
#363 = LINE('',#364,#365);
#364 = CARTESIAN_POINT('',(23.000045720091,0.48728981458,-5.5));
#365 = VECTOR('',#366,1.);
#366 = DIRECTION('',(5.4E-16,-0.707106781187,-0.707106781187));
#367 = ORIENTED_EDGE('',*,*,#117,.T.);
#368 = ORIENTED_EDGE('',*,*,#369,.T.);
#369 = EDGE_CURVE('',#110,#370,#372,.T.);
#370 = VERTEX_POINT('',#371);
#371 = CARTESIAN_POINT('',(127.00025654051,-1.271018542E-02,-6.));
#372 = LINE('',#373,#374);
#373 = CARTESIAN_POINT('',(127.00025654051,0.23728981458,-5.75));
#374 = VECTOR('',#375,1.);
#375 = DIRECTION('',(-1.E-17,-0.707106781187,-0.707106781187));
#376 = ORIENTED_EDGE('',*,*,#377,.F.);
#377 = EDGE_CURVE('',#361,#370,#378,.T.);
#378 = LINE('',#379,#380);
#379 = CARTESIAN_POINT('',(23.000045720091,-1.271018542E-02,-6.));
#380 = VECTOR('',#381,1.);
#381 = DIRECTION('',(1.,-1.E-17,0.));
#382 = PLANE('',#383);
#383 = AXIS2_PLACEMENT_3D('',#384,#385,#386);
#384 = CARTESIAN_POINT('',(23.000045720091,0.23728981458,-5.75));
#385 = DIRECTION('',(-1.E-17,-0.707106781187,0.707106781187));
#386 = DIRECTION('',(-1.,1.207106781187E-17,-2.071067811865E-18));
#387 = ADVANCED_FACE('',(#388,#458),#511,.T.);
#388 = FACE_BOUND('',#389,.T.);
#389 = EDGE_LOOP('',(#390,#400,#409,#417,#426,#434,#443,#451));
#390 = ORIENTED_EDGE('',*,*,#391,.T.);
#391 = EDGE_CURVE('',#392,#394,#396,.T.);
#392 = VERTEX_POINT('',#393);
#393 = CARTESIAN_POINT('',(127.00025654051,-74.4874498349,11.));
#394 = VERTEX_POINT('',#395);
#395 = CARTESIAN_POINT('',(23.000045720091,-74.4874498349,11.));
#396 = LINE('',#397,#398);
#397 = CARTESIAN_POINT('',(127.00025654051,-74.4874498349,11.));
#398 = VECTOR('',#399,1.);
#399 = DIRECTION('',(-1.,-1.4E-16,0.));
#400 = ORIENTED_EDGE('',*,*,#401,.T.);
#401 = EDGE_CURVE('',#394,#402,#404,.T.);
#402 = VERTEX_POINT('',#403);
#403 = CARTESIAN_POINT('',(19.012740665481,-70.50014478029,11.));
#404 = CIRCLE('',#405,3.98730505461);
#405 = AXIS2_PLACEMENT_3D('',#406,#407,#408);
#406 = CARTESIAN_POINT('',(23.000045720091,-70.50014478029,11.));
#407 = DIRECTION('',(0.,-0.,-1.));
#408 = DIRECTION('',(-2.21E-15,-1.,0.));
#409 = ORIENTED_EDGE('',*,*,#410,.T.);
#410 = EDGE_CURVE('',#402,#411,#413,.T.);
#411 = VERTEX_POINT('',#412);
#412 = CARTESIAN_POINT('',(19.012740665481,-6.50001524003,11.));
#413 = LINE('',#414,#415);
#414 = CARTESIAN_POINT('',(19.012740665481,-70.50014478029,11.));
#415 = VECTOR('',#416,1.);
#416 = DIRECTION('',(-1.7E-16,1.,-0.));
#417 = ORIENTED_EDGE('',*,*,#418,.T.);
#418 = EDGE_CURVE('',#411,#419,#421,.T.);
#419 = VERTEX_POINT('',#420);
#420 = CARTESIAN_POINT('',(23.000045720091,-2.51271018542,11.));
#421 = CIRCLE('',#422,3.98730505461);
#422 = AXIS2_PLACEMENT_3D('',#423,#424,#425);
#423 = CARTESIAN_POINT('',(23.000045720091,-6.50001524003,11.));
#424 = DIRECTION('',(0.,-0.,-1.));
#425 = DIRECTION('',(-1.,-9.5E-16,0.));
#426 = ORIENTED_EDGE('',*,*,#427,.T.);
#427 = EDGE_CURVE('',#419,#428,#430,.T.);
#428 = VERTEX_POINT('',#429);
#429 = CARTESIAN_POINT('',(127.00025654051,-2.51271018542,11.));
#430 = LINE('',#431,#432);
#431 = CARTESIAN_POINT('',(23.000045720091,-2.51271018542,11.));
#432 = VECTOR('',#433,1.);
#433 = DIRECTION('',(1.,-1.E-17,0.));
#434 = ORIENTED_EDGE('',*,*,#435,.T.);
#435 = EDGE_CURVE('',#428,#436,#438,.T.);
#436 = VERTEX_POINT('',#437);
#437 = CARTESIAN_POINT('',(130.98756159512,-6.50001524003,11.));
#438 = CIRCLE('',#439,3.98730505461);
#439 = AXIS2_PLACEMENT_3D('',#440,#441,#442);
#440 = CARTESIAN_POINT('',(127.00025654051,-6.50001524003,11.));
#441 = DIRECTION('',(0.,0.,-1.));
#442 = DIRECTION('',(-1.26E-15,1.,-0.));
#443 = ORIENTED_EDGE('',*,*,#444,.T.);
#444 = EDGE_CURVE('',#436,#445,#447,.T.);
#445 = VERTEX_POINT('',#446);
#446 = CARTESIAN_POINT('',(130.98756159512,-70.50014478029,11.));
#447 = LINE('',#448,#449);
#448 = CARTESIAN_POINT('',(130.98756159512,-6.50001524003,11.));
#449 = VECTOR('',#450,1.);
#450 = DIRECTION('',(0.,-1.,0.));
#451 = ORIENTED_EDGE('',*,*,#452,.T.);
#452 = EDGE_CURVE('',#445,#392,#453,.T.);
#453 = CIRCLE('',#454,3.98730505461);
#454 = AXIS2_PLACEMENT_3D('',#455,#456,#457);
#455 = CARTESIAN_POINT('',(127.00025654051,-70.50014478029,11.));
#456 = DIRECTION('',(0.,-0.,-1.));
#457 = DIRECTION('',(1.,-8.41E-15,0.));
#458 = FACE_BOUND('',#459,.T.);
#459 = EDGE_LOOP('',(#460,#470,#479,#487,#494,#495,#496,#504));
#460 = ORIENTED_EDGE('',*,*,#461,.T.);
#461 = EDGE_CURVE('',#462,#464,#466,.T.);
#462 = VERTEX_POINT('',#463);
#463 = CARTESIAN_POINT('',(23.000045720091,-77.4874498349,11.));
#464 = VERTEX_POINT('',#465);
#465 = CARTESIAN_POINT('',(127.00025654051,-77.4874498349,11.));
#466 = LINE('',#467,#468);
#467 = CARTESIAN_POINT('',(101.0002038354,-77.4874498349,11.));
#468 = VECTOR('',#469,1.);
#469 = DIRECTION('',(1.,1.4E-16,0.));
#470 = ORIENTED_EDGE('',*,*,#471,.F.);
#471 = EDGE_CURVE('',#472,#464,#474,.T.);
#472 = VERTEX_POINT('',#473);
#473 = CARTESIAN_POINT('',(133.98756159512,-70.50014478029,11.));
#474 = CIRCLE('',#475,6.98730505461);
#475 = AXIS2_PLACEMENT_3D('',#476,#477,#478);
#476 = CARTESIAN_POINT('',(127.00025654051,-70.50014478029,11.));
#477 = DIRECTION('',(0.,0.,-1.));
#478 = DIRECTION('',(1.,-8.41E-15,0.));
#479 = ORIENTED_EDGE('',*,*,#480,.T.);
#480 = EDGE_CURVE('',#472,#481,#483,.T.);
#481 = VERTEX_POINT('',#482);
#482 = CARTESIAN_POINT('',(133.98756159512,-6.50001524003,11.));
#483 = LINE('',#484,#485);
#484 = CARTESIAN_POINT('',(133.98756159512,-22.50004762509,11.));
#485 = VECTOR('',#486,1.);
#486 = DIRECTION('',(0.,1.,0.));
#487 = ORIENTED_EDGE('',*,*,#488,.F.);
#488 = EDGE_CURVE('',#102,#481,#489,.T.);
#489 = CIRCLE('',#490,6.98730505461);
#490 = AXIS2_PLACEMENT_3D('',#491,#492,#493);
#491 = CARTESIAN_POINT('',(127.00025654051,-6.50001524003,11.));
#492 = DIRECTION('',(0.,0.,-1.));
#493 = DIRECTION('',(-1.26E-15,1.,0.));
#494 = ORIENTED_EDGE('',*,*,#101,.T.);
#495 = ORIENTED_EDGE('',*,*,#337,.F.);
#496 = ORIENTED_EDGE('',*,*,#497,.T.);
#497 = EDGE_CURVE('',#330,#498,#500,.T.);
#498 = VERTEX_POINT('',#499);
#499 = CARTESIAN_POINT('',(16.012740665481,-70.50014478029,11.));
#500 = LINE('',#501,#502);
#501 = CARTESIAN_POINT('',(16.012740665481,-54.50011239522,11.));
#502 = VECTOR('',#503,1.);
#503 = DIRECTION('',(1.7E-16,-1.,0.));
#504 = ORIENTED_EDGE('',*,*,#505,.F.);
#505 = EDGE_CURVE('',#462,#498,#506,.T.);
#506 = CIRCLE('',#507,6.98730505461);
#507 = AXIS2_PLACEMENT_3D('',#508,#509,#510);
#508 = CARTESIAN_POINT('',(23.000045720091,-70.50014478029,11.));
#509 = DIRECTION('',(0.,0.,-1.));
#510 = DIRECTION('',(-2.21E-15,-1.,-0.));
#511 = PLANE('',#512);
#512 = AXIS2_PLACEMENT_3D('',#513,#514,#515);
#513 = CARTESIAN_POINT('',(75.000151130301,-38.50008001016,11.));
#514 = DIRECTION('',(0.,0.,1.));
#515 = DIRECTION('',(1.,0.,0.));
#516 = ADVANCED_FACE('',(#517),#536,.T.);
#517 = FACE_BOUND('',#518,.T.);
#518 = EDGE_LOOP('',(#519,#520,#521,#529));
#519 = ORIENTED_EDGE('',*,*,#109,.T.);
#520 = ORIENTED_EDGE('',*,*,#488,.T.);
#521 = ORIENTED_EDGE('',*,*,#522,.F.);
#522 = EDGE_CURVE('',#523,#481,#525,.T.);
#523 = VERTEX_POINT('',#524);
#524 = CARTESIAN_POINT('',(133.98756159512,-6.50001524003,-5.5));
#525 = LINE('',#526,#527);
#526 = CARTESIAN_POINT('',(133.98756159512,-6.50001524003,-3.));
#527 = VECTOR('',#528,1.);
#528 = DIRECTION('',(0.,0.,1.));
#529 = ORIENTED_EDGE('',*,*,#530,.F.);
#530 = EDGE_CURVE('',#110,#523,#531,.T.);
#531 = CIRCLE('',#532,6.98730505461);
#532 = AXIS2_PLACEMENT_3D('',#533,#534,#535);
#533 = CARTESIAN_POINT('',(127.00025654051,-6.50001524003,-5.5));
#534 = DIRECTION('',(0.,0.,-1.));
#535 = DIRECTION('',(0.,1.,0.));
#536 = CYLINDRICAL_SURFACE('',#537,6.98730505461);
#537 = AXIS2_PLACEMENT_3D('',#538,#539,#540);
#538 = CARTESIAN_POINT('',(127.00025654051,-6.50001524003,-3.));
#539 = DIRECTION('',(0.,0.,-1.));
#540 = DIRECTION('',(-1.26E-15,1.,0.));
#541 = ADVANCED_FACE('',(#542),#567,.T.);
#542 = FACE_BOUND('',#543,.T.);
#543 = EDGE_LOOP('',(#544,#552,#560,#566));
#544 = ORIENTED_EDGE('',*,*,#545,.F.);
#545 = EDGE_CURVE('',#546,#141,#548,.T.);
#546 = VERTEX_POINT('',#547);
#547 = CARTESIAN_POINT('',(34.144676024368,-2.51271018542,0.622791176817
    ));
#548 = LINE('',#549,#550);
#549 = CARTESIAN_POINT('',(34.144676024368,-5.,0.622791176817));
#550 = VECTOR('',#551,1.);
#551 = DIRECTION('',(0.,1.,-2.2E-16));
#552 = ORIENTED_EDGE('',*,*,#553,.T.);
#553 = EDGE_CURVE('',#546,#554,#556,.T.);
#554 = VERTEX_POINT('',#555);
#555 = CARTESIAN_POINT('',(40.817371979827,-2.51271018542,0.67528062965)
  );
#556 = LINE('',#557,#558);
#557 = CARTESIAN_POINT('',(31.894805530279,-2.51271018542,0.605093012242
    ));
#558 = VECTOR('',#559,1.);
#559 = DIRECTION('',(0.999969062069,-1.E-17,7.866060325288E-03));
#560 = ORIENTED_EDGE('',*,*,#561,.T.);
#561 = EDGE_CURVE('',#554,#132,#562,.T.);
#562 = LINE('',#563,#564);
#563 = CARTESIAN_POINT('',(40.817371979827,-5.,0.67528062965));
#564 = VECTOR('',#565,1.);
#565 = DIRECTION('',(0.,1.,-2.2E-16));
#566 = ORIENTED_EDGE('',*,*,#148,.T.);
#567 = PLANE('',#568);
#568 = AXIS2_PLACEMENT_3D('',#569,#570,#571);
#569 = CARTESIAN_POINT('',(40.817371979827,-5.,0.67528062965));
#570 = DIRECTION('',(-7.866060325288E-03,2.2E-16,0.999969062069));
#571 = DIRECTION('',(-0.999969062069,0.,-7.866060325288E-03));
#572 = ADVANCED_FACE('',(#573),#592,.F.);
#573 = FACE_BOUND('',#574,.F.);
#574 = EDGE_LOOP('',(#575,#583,#590,#591));
#575 = ORIENTED_EDGE('',*,*,#576,.F.);
#576 = EDGE_CURVE('',#577,#163,#579,.T.);
#577 = VERTEX_POINT('',#578);
#578 = CARTESIAN_POINT('',(44.395145885637,-2.51271018542,4.425482571677
    ));
#579 = LINE('',#580,#581);
#580 = CARTESIAN_POINT('',(44.395145885637,-5.,4.425482571677));
#581 = VECTOR('',#582,1.);
#582 = DIRECTION('',(0.,1.,-2.2E-16));
#583 = ORIENTED_EDGE('',*,*,#584,.F.);
#584 = EDGE_CURVE('',#554,#577,#585,.T.);
#585 = CIRCLE('',#586,3.608932378799);
#586 = AXIS2_PLACEMENT_3D('',#587,#588,#589);
#587 = CARTESIAN_POINT('',(40.788983900026,-2.51271018542,4.284101355548
    ));
#588 = DIRECTION('',(0.,-1.,7.6E-16));
#589 = DIRECTION('',(0.,7.6E-16,1.));
#590 = ORIENTED_EDGE('',*,*,#561,.T.);
#591 = ORIENTED_EDGE('',*,*,#172,.F.);
#592 = CYLINDRICAL_SURFACE('',#593,3.608932378799);
#593 = AXIS2_PLACEMENT_3D('',#594,#595,#596);
#594 = CARTESIAN_POINT('',(40.788983900026,-5.,4.284101355548));
#595 = DIRECTION('',(0.,-1.,7.6E-16));
#596 = DIRECTION('',(0.,7.6E-16,1.));
#597 = ADVANCED_FACE('',(#598),#617,.F.);
#598 = FACE_BOUND('',#599,.F.);
#599 = EDGE_LOOP('',(#600,#601,#610,#616));
#600 = ORIENTED_EDGE('',*,*,#545,.F.);
#601 = ORIENTED_EDGE('',*,*,#602,.F.);
#602 = EDGE_CURVE('',#603,#546,#605,.T.);
#603 = VERTEX_POINT('',#604);
#604 = CARTESIAN_POINT('',(30.397223092908,-2.51271018542,4.197942466985
    ));
#605 = CIRCLE('',#606,3.721039462648);
#606 = AXIS2_PLACEMENT_3D('',#607,#608,#609);
#607 = CARTESIAN_POINT('',(34.115406103482,-2.51271018542,4.343715518202
    ));
#608 = DIRECTION('',(0.,-1.,7.6E-16));
#609 = DIRECTION('',(1.04E-15,7.6E-16,1.));
#610 = ORIENTED_EDGE('',*,*,#611,.T.);
#611 = EDGE_CURVE('',#603,#190,#612,.T.);
#612 = LINE('',#613,#614);
#613 = CARTESIAN_POINT('',(30.397223092908,-5.,4.197942466985));
#614 = VECTOR('',#615,1.);
#615 = DIRECTION('',(0.,1.,-2.2E-16));
#616 = ORIENTED_EDGE('',*,*,#197,.F.);
#617 = CYLINDRICAL_SURFACE('',#618,3.721039462648);
#618 = AXIS2_PLACEMENT_3D('',#619,#620,#621);
#619 = CARTESIAN_POINT('',(34.115406103482,-5.,4.343715518202));
#620 = DIRECTION('',(0.,-1.,7.6E-16));
#621 = DIRECTION('',(1.04E-15,7.6E-16,1.));
#622 = ADVANCED_FACE('',(#623),#641,.T.);
#623 = FACE_BOUND('',#624,.T.);
#624 = EDGE_LOOP('',(#625,#626,#634,#640));
#625 = ORIENTED_EDGE('',*,*,#576,.F.);
#626 = ORIENTED_EDGE('',*,*,#627,.T.);
#627 = EDGE_CURVE('',#577,#628,#630,.T.);
#628 = VERTEX_POINT('',#629);
#629 = CARTESIAN_POINT('',(44.387424018092,-2.51271018542,4.622441587607
    ));
#630 = LINE('',#631,#632);
#631 = CARTESIAN_POINT('',(44.52020364357,-2.51271018542,1.235677412174)
  );
#632 = VECTOR('',#633,1.);
#633 = DIRECTION('',(-3.917535749876E-02,0.,0.99923235104));
#634 = ORIENTED_EDGE('',*,*,#635,.T.);
#635 = EDGE_CURVE('',#628,#213,#636,.T.);
#636 = LINE('',#637,#638);
#637 = CARTESIAN_POINT('',(44.387424018092,-5.,4.622441587607));
#638 = VECTOR('',#639,1.);
#639 = DIRECTION('',(0.,1.,-2.2E-16));
#640 = ORIENTED_EDGE('',*,*,#222,.T.);
#641 = PLANE('',#642);
#642 = AXIS2_PLACEMENT_3D('',#643,#644,#645);
#643 = CARTESIAN_POINT('',(44.387424018092,-5.,4.622441587607));
#644 = DIRECTION('',(-0.99923235104,-1.E-17,-3.917535749876E-02));
#645 = DIRECTION('',(3.917535749876E-02,-2.2E-16,-0.99923235104));
#646 = ADVANCED_FACE('',(#647),#665,.T.);
#647 = FACE_BOUND('',#648,.T.);
#648 = EDGE_LOOP('',(#649,#657,#663,#664));
#649 = ORIENTED_EDGE('',*,*,#650,.F.);
#650 = EDGE_CURVE('',#651,#239,#653,.T.);
#651 = VERTEX_POINT('',#652);
#652 = CARTESIAN_POINT('',(30.387424018092,-2.51271018542,4.447884093352
    ));
#653 = LINE('',#654,#655);
#654 = CARTESIAN_POINT('',(30.387424018092,-5.,4.447884093352));
#655 = VECTOR('',#656,1.);
#656 = DIRECTION('',(0.,1.,-2.2E-16));
#657 = ORIENTED_EDGE('',*,*,#658,.T.);
#658 = EDGE_CURVE('',#651,#603,#659,.T.);
#659 = LINE('',#660,#661);
#660 = CARTESIAN_POINT('',(30.532429590029,-2.51271018542,0.749276912381
    ));
#661 = VECTOR('',#662,1.);
#662 = DIRECTION('',(3.917535749842E-02,0.,-0.99923235104));
#663 = ORIENTED_EDGE('',*,*,#611,.T.);
#664 = ORIENTED_EDGE('',*,*,#246,.T.);
#665 = PLANE('',#666);
#666 = AXIS2_PLACEMENT_3D('',#667,#668,#669);
#667 = CARTESIAN_POINT('',(30.397223092908,-5.,4.197942466985));
#668 = DIRECTION('',(0.99923235104,1.E-17,3.917535749842E-02));
#669 = DIRECTION('',(-3.917535749842E-02,2.2E-16,0.99923235104));
#670 = ADVANCED_FACE('',(#671),#690,.F.);
#671 = FACE_BOUND('',#672,.F.);
#672 = EDGE_LOOP('',(#673,#681,#688,#689));
#673 = ORIENTED_EDGE('',*,*,#674,.F.);
#674 = EDGE_CURVE('',#675,#261,#677,.T.);
#675 = VERTEX_POINT('',#676);
#676 = CARTESIAN_POINT('',(40.66256295725,-2.51271018542,8.176039743723)
  );
#677 = LINE('',#678,#679);
#678 = CARTESIAN_POINT('',(40.66256295725,-5.,8.176039743723));
#679 = VECTOR('',#680,1.);
#680 = DIRECTION('',(0.,1.,-2.2E-16));
#681 = ORIENTED_EDGE('',*,*,#682,.F.);
#682 = EDGE_CURVE('',#628,#675,#683,.T.);
#683 = CIRCLE('',#684,3.698606828098);
#684 = AXIS2_PLACEMENT_3D('',#685,#686,#687);
#685 = CARTESIAN_POINT('',(40.691656421679,-2.51271018542,4.477547342868
    ));
#686 = DIRECTION('',(0.,-1.,7.6E-16));
#687 = DIRECTION('',(0.,7.6E-16,1.));
#688 = ORIENTED_EDGE('',*,*,#635,.T.);
#689 = ORIENTED_EDGE('',*,*,#270,.F.);
#690 = CYLINDRICAL_SURFACE('',#691,3.698606828098);
#691 = AXIS2_PLACEMENT_3D('',#692,#693,#694);
#692 = CARTESIAN_POINT('',(40.691656421679,-5.,4.477547342868));
#693 = DIRECTION('',(0.,-1.,7.6E-16));
#694 = DIRECTION('',(0.,7.6E-16,1.));
#695 = ADVANCED_FACE('',(#696),#715,.F.);
#696 = FACE_BOUND('',#697,.F.);
#697 = EDGE_LOOP('',(#698,#699,#708,#714));
#698 = ORIENTED_EDGE('',*,*,#650,.F.);
#699 = ORIENTED_EDGE('',*,*,#700,.F.);
#700 = EDGE_CURVE('',#701,#651,#703,.T.);
#701 = VERTEX_POINT('',#702);
#702 = CARTESIAN_POINT('',(33.893364997471,-2.51271018542,8.122791176817
    ));
#703 = CIRCLE('',#704,3.536473866639);
#704 = AXIS2_PLACEMENT_3D('',#705,#706,#707);
#705 = CARTESIAN_POINT('',(33.921183114245,-2.51271018542,4.586426721363
    ));
#706 = DIRECTION('',(0.,-1.,7.6E-16));
#707 = DIRECTION('',(0.,7.6E-16,1.));
#708 = ORIENTED_EDGE('',*,*,#709,.T.);
#709 = EDGE_CURVE('',#701,#288,#710,.T.);
#710 = LINE('',#711,#712);
#711 = CARTESIAN_POINT('',(33.893364997471,-5.,8.122791176817));
#712 = VECTOR('',#713,1.);
#713 = DIRECTION('',(0.,1.,-2.2E-16));
#714 = ORIENTED_EDGE('',*,*,#295,.F.);
#715 = CYLINDRICAL_SURFACE('',#716,3.536473866639);
#716 = AXIS2_PLACEMENT_3D('',#717,#718,#719);
#717 = CARTESIAN_POINT('',(33.921183114245,-5.,4.586426721363));
#718 = DIRECTION('',(0.,-1.,7.6E-16));
#719 = DIRECTION('',(0.,7.6E-16,1.));
#720 = ADVANCED_FACE('',(#721),#732,.T.);
#721 = FACE_BOUND('',#722,.T.);
#722 = EDGE_LOOP('',(#723,#724,#730,#731));
#723 = ORIENTED_EDGE('',*,*,#674,.F.);
#724 = ORIENTED_EDGE('',*,*,#725,.T.);
#725 = EDGE_CURVE('',#675,#701,#726,.T.);
#726 = LINE('',#727,#728);
#727 = CARTESIAN_POINT('',(28.403297450557,-2.51271018542,8.079604638201
    ));
#728 = VECTOR('',#729,1.);
#729 = DIRECTION('',(-0.999969062069,1.E-17,-7.866060325288E-03));
#730 = ORIENTED_EDGE('',*,*,#709,.T.);
#731 = ORIENTED_EDGE('',*,*,#313,.T.);
#732 = PLANE('',#733);
#733 = AXIS2_PLACEMENT_3D('',#734,#735,#736);
#734 = CARTESIAN_POINT('',(33.893364997471,-5.,8.122791176817));
#735 = DIRECTION('',(7.866060325288E-03,-2.2E-16,-0.999969062069));
#736 = DIRECTION('',(0.999969062069,0.,7.866060325288E-03));
#737 = ADVANCED_FACE('',(#738),#756,.T.);
#738 = FACE_BOUND('',#739,.T.);
#739 = EDGE_LOOP('',(#740,#748,#749,#750));
#740 = ORIENTED_EDGE('',*,*,#741,.T.);
#741 = EDGE_CURVE('',#742,#498,#744,.T.);
#742 = VERTEX_POINT('',#743);
#743 = CARTESIAN_POINT('',(16.012740665481,-70.50014478029,-5.5));
#744 = LINE('',#745,#746);
#745 = CARTESIAN_POINT('',(16.012740665481,-70.50014478029,-3.));
#746 = VECTOR('',#747,1.);
#747 = DIRECTION('',(0.,0.,1.));
#748 = ORIENTED_EDGE('',*,*,#497,.F.);
#749 = ORIENTED_EDGE('',*,*,#327,.F.);
#750 = ORIENTED_EDGE('',*,*,#751,.F.);
#751 = EDGE_CURVE('',#742,#328,#752,.T.);
#752 = LINE('',#753,#754);
#753 = CARTESIAN_POINT('',(16.012740665481,-70.50014478029,-5.5));
#754 = VECTOR('',#755,1.);
#755 = DIRECTION('',(-1.7E-16,1.,0.));
#756 = PLANE('',#757);
#757 = AXIS2_PLACEMENT_3D('',#758,#759,#760);
#758 = CARTESIAN_POINT('',(16.012740665481,-70.50014478029,-3.));
#759 = DIRECTION('',(-1.,-1.7E-16,-0.));
#760 = DIRECTION('',(-1.7E-16,1.,0.));
#761 = ADVANCED_FACE('',(#762),#781,.T.);
#762 = FACE_BOUND('',#763,.T.);
#763 = EDGE_LOOP('',(#764,#772,#773,#774));
#764 = ORIENTED_EDGE('',*,*,#765,.F.);
#765 = EDGE_CURVE('',#328,#766,#768,.T.);
#766 = VERTEX_POINT('',#767);
#767 = CARTESIAN_POINT('',(16.512740665481,-6.50001524003,-6.));
#768 = LINE('',#769,#770);
#769 = CARTESIAN_POINT('',(16.262740665481,-6.50001524003,-5.75));
#770 = VECTOR('',#771,1.);
#771 = DIRECTION('',(0.707106781187,1.2E-16,-0.707106781187));
#772 = ORIENTED_EDGE('',*,*,#345,.T.);
#773 = ORIENTED_EDGE('',*,*,#360,.T.);
#774 = ORIENTED_EDGE('',*,*,#775,.F.);
#775 = EDGE_CURVE('',#766,#361,#776,.T.);
#776 = CIRCLE('',#777,6.48730505461);
#777 = AXIS2_PLACEMENT_3D('',#778,#779,#780);
#778 = CARTESIAN_POINT('',(23.000045720091,-6.50001524003,-6.));
#779 = DIRECTION('',(-0.,0.,-1.));
#780 = DIRECTION('',(-1.,-2.5E-16,0.));
#781 = CONICAL_SURFACE('',#782,6.98730505461,0.785398163397);
#782 = AXIS2_PLACEMENT_3D('',#783,#784,#785);
#783 = CARTESIAN_POINT('',(23.000045720091,-6.50001524003,-5.5));
#784 = DIRECTION('',(0.,0.,1.));
#785 = DIRECTION('',(-1.,-2.5E-16,0.));
#786 = ADVANCED_FACE('',(#787,#840,#851,#862,#873,#884,#895),#906,.F.);
#787 = FACE_BOUND('',#788,.F.);
#788 = EDGE_LOOP('',(#789,#799,#808,#816,#823,#824,#825,#833));
#789 = ORIENTED_EDGE('',*,*,#790,.F.);
#790 = EDGE_CURVE('',#791,#793,#795,.T.);
#791 = VERTEX_POINT('',#792);
#792 = CARTESIAN_POINT('',(127.00025654051,-76.9874498349,-6.));
#793 = VERTEX_POINT('',#794);
#794 = CARTESIAN_POINT('',(23.000045720091,-76.9874498349,-6.));
#795 = LINE('',#796,#797);
#796 = CARTESIAN_POINT('',(127.00025654051,-76.9874498349,-6.));
#797 = VECTOR('',#798,1.);
#798 = DIRECTION('',(-1.,-1.4E-16,0.));
#799 = ORIENTED_EDGE('',*,*,#800,.F.);
#800 = EDGE_CURVE('',#801,#791,#803,.T.);
#801 = VERTEX_POINT('',#802);
#802 = CARTESIAN_POINT('',(133.48756159512,-70.50014478029,-6.));
#803 = CIRCLE('',#804,6.48730505461);
#804 = AXIS2_PLACEMENT_3D('',#805,#806,#807);
#805 = CARTESIAN_POINT('',(127.00025654051,-70.50014478029,-6.));
#806 = DIRECTION('',(0.,0.,-1.));
#807 = DIRECTION('',(1.,0.,0.));
#808 = ORIENTED_EDGE('',*,*,#809,.F.);
#809 = EDGE_CURVE('',#810,#801,#812,.T.);
#810 = VERTEX_POINT('',#811);
#811 = CARTESIAN_POINT('',(133.48756159512,-6.50001524003,-6.));
#812 = LINE('',#813,#814);
#813 = CARTESIAN_POINT('',(133.48756159512,-6.50001524003,-6.));
#814 = VECTOR('',#815,1.);
#815 = DIRECTION('',(0.,-1.,0.));
#816 = ORIENTED_EDGE('',*,*,#817,.F.);
#817 = EDGE_CURVE('',#370,#810,#818,.T.);
#818 = CIRCLE('',#819,6.48730505461);
#819 = AXIS2_PLACEMENT_3D('',#820,#821,#822);
#820 = CARTESIAN_POINT('',(127.00025654051,-6.50001524003,-6.));
#821 = DIRECTION('',(0.,0.,-1.));
#822 = DIRECTION('',(0.,1.,0.));
#823 = ORIENTED_EDGE('',*,*,#377,.F.);
#824 = ORIENTED_EDGE('',*,*,#775,.F.);
#825 = ORIENTED_EDGE('',*,*,#826,.F.);
#826 = EDGE_CURVE('',#827,#766,#829,.T.);
#827 = VERTEX_POINT('',#828);
#828 = CARTESIAN_POINT('',(16.512740665481,-70.50014478029,-6.));
#829 = LINE('',#830,#831);
#830 = CARTESIAN_POINT('',(16.512740665481,-70.50014478029,-6.));
#831 = VECTOR('',#832,1.);
#832 = DIRECTION('',(-1.7E-16,1.,0.));
#833 = ORIENTED_EDGE('',*,*,#834,.F.);
#834 = EDGE_CURVE('',#793,#827,#835,.T.);
#835 = CIRCLE('',#836,6.48730505461);
#836 = AXIS2_PLACEMENT_3D('',#837,#838,#839);
#837 = CARTESIAN_POINT('',(23.000045720091,-70.50014478029,-6.));
#838 = DIRECTION('',(0.,-0.,-1.));
#839 = DIRECTION('',(5.1E-16,-1.,0.));
#840 = FACE_BOUND('',#841,.F.);
#841 = EDGE_LOOP('',(#842));
#842 = ORIENTED_EDGE('',*,*,#843,.T.);
#843 = EDGE_CURVE('',#844,#844,#846,.T.);
#844 = VERTEX_POINT('',#845);
#845 = CARTESIAN_POINT('',(23.800045720091,-70.50014224028,-6.));
#846 = CIRCLE('',#847,0.8);
#847 = AXIS2_PLACEMENT_3D('',#848,#849,#850);
#848 = CARTESIAN_POINT('',(23.000045720091,-70.50014224028,-6.));
#849 = DIRECTION('',(0.,0.,-1.));
#850 = DIRECTION('',(1.,0.,0.));
#851 = FACE_BOUND('',#852,.F.);
#852 = EDGE_LOOP('',(#853));
#853 = ORIENTED_EDGE('',*,*,#854,.T.);
#854 = EDGE_CURVE('',#855,#855,#857,.T.);
#855 = VERTEX_POINT('',#856);
#856 = CARTESIAN_POINT('',(49.206445897891,-38.50008001016,-6.));
#857 = CIRCLE('',#858,3.7);
#858 = AXIS2_PLACEMENT_3D('',#859,#860,#861);
#859 = CARTESIAN_POINT('',(45.506445897891,-38.50008001016,-6.));
#860 = DIRECTION('',(0.,0.,-1.));
#861 = DIRECTION('',(1.,0.,0.));
#862 = FACE_BOUND('',#863,.F.);
#863 = EDGE_LOOP('',(#864));
#864 = ORIENTED_EDGE('',*,*,#865,.T.);
#865 = EDGE_CURVE('',#866,#866,#868,.T.);
#866 = VERTEX_POINT('',#867);
#867 = CARTESIAN_POINT('',(127.80025908051,-70.50014224028,-6.));
#868 = CIRCLE('',#869,0.8);
#869 = AXIS2_PLACEMENT_3D('',#870,#871,#872);
#870 = CARTESIAN_POINT('',(127.00025908051,-70.50014224028,-6.));
#871 = DIRECTION('',(0.,0.,-1.));
#872 = DIRECTION('',(1.,0.,0.));
#873 = FACE_BOUND('',#874,.F.);
#874 = EDGE_LOOP('',(#875));
#875 = ORIENTED_EDGE('',*,*,#876,.T.);
#876 = EDGE_CURVE('',#877,#877,#879,.T.);
#877 = VERTEX_POINT('',#878);
#878 = CARTESIAN_POINT('',(108.19385636271,-38.50008001016,-6.));
#879 = CIRCLE('',#880,3.7);
#880 = AXIS2_PLACEMENT_3D('',#881,#882,#883);
#881 = CARTESIAN_POINT('',(104.49385636271,-38.50008001016,-6.));
#882 = DIRECTION('',(0.,0.,-1.));
#883 = DIRECTION('',(1.,0.,0.));
#884 = FACE_BOUND('',#885,.F.);
#885 = EDGE_LOOP('',(#886));
#886 = ORIENTED_EDGE('',*,*,#887,.T.);
#887 = EDGE_CURVE('',#888,#888,#890,.T.);
#888 = VERTEX_POINT('',#889);
#889 = CARTESIAN_POINT('',(23.800045720091,-6.500012700025,-6.));
#890 = CIRCLE('',#891,0.8);
#891 = AXIS2_PLACEMENT_3D('',#892,#893,#894);
#892 = CARTESIAN_POINT('',(23.000045720091,-6.500012700025,-6.));
#893 = DIRECTION('',(0.,0.,-1.));
#894 = DIRECTION('',(1.,0.,0.));
#895 = FACE_BOUND('',#896,.F.);
#896 = EDGE_LOOP('',(#897));
#897 = ORIENTED_EDGE('',*,*,#898,.T.);
#898 = EDGE_CURVE('',#899,#899,#901,.T.);
#899 = VERTEX_POINT('',#900);
#900 = CARTESIAN_POINT('',(127.80025908051,-6.500012700025,-6.));
#901 = CIRCLE('',#902,0.8);
#902 = AXIS2_PLACEMENT_3D('',#903,#904,#905);
#903 = CARTESIAN_POINT('',(127.00025908051,-6.500012700025,-6.));
#904 = DIRECTION('',(0.,0.,-1.));
#905 = DIRECTION('',(1.,0.,0.));
#906 = PLANE('',#907);
#907 = AXIS2_PLACEMENT_3D('',#908,#909,#910);
#908 = CARTESIAN_POINT('',(75.000151130301,-38.50008001016,-6.));
#909 = DIRECTION('',(0.,0.,1.));
#910 = DIRECTION('',(1.,0.,0.));
#911 = ADVANCED_FACE('',(#912),#923,.T.);
#912 = FACE_BOUND('',#913,.T.);
#913 = EDGE_LOOP('',(#914,#915,#916,#922));
#914 = ORIENTED_EDGE('',*,*,#369,.F.);
#915 = ORIENTED_EDGE('',*,*,#530,.T.);
#916 = ORIENTED_EDGE('',*,*,#917,.T.);
#917 = EDGE_CURVE('',#523,#810,#918,.T.);
#918 = LINE('',#919,#920);
#919 = CARTESIAN_POINT('',(133.98756159512,-6.50001524003,-5.5));
#920 = VECTOR('',#921,1.);
#921 = DIRECTION('',(-0.707106781187,-5.1E-16,-0.707106781187));
#922 = ORIENTED_EDGE('',*,*,#817,.F.);
#923 = CONICAL_SURFACE('',#924,6.98730505461,0.785398163397);
#924 = AXIS2_PLACEMENT_3D('',#925,#926,#927);
#925 = CARTESIAN_POINT('',(127.00025654051,-6.50001524003,-5.5));
#926 = DIRECTION('',(0.,0.,1.));
#927 = DIRECTION('',(0.,1.,0.));
#928 = ADVANCED_FACE('',(#929),#986,.F.);
#929 = FACE_BOUND('',#930,.F.);
#930 = EDGE_LOOP('',(#931,#941,#947,#948,#956,#964,#972,#980));
#931 = ORIENTED_EDGE('',*,*,#932,.F.);
#932 = EDGE_CURVE('',#933,#935,#937,.T.);
#933 = VERTEX_POINT('',#934);
#934 = CARTESIAN_POINT('',(127.00025654051,-74.4874498349,0.));
#935 = VERTEX_POINT('',#936);
#936 = CARTESIAN_POINT('',(126.04558689911,-74.4874498349,0.));
#937 = LINE('',#938,#939);
#938 = CARTESIAN_POINT('',(101.0002044704,-74.4874498349,0.));
#939 = VECTOR('',#940,1.);
#940 = DIRECTION('',(-1.,-1.4E-16,0.));
#941 = ORIENTED_EDGE('',*,*,#942,.T.);
#942 = EDGE_CURVE('',#933,#392,#943,.T.);
#943 = LINE('',#944,#945);
#944 = CARTESIAN_POINT('',(127.00025654051,-74.4874498349,-3.));
#945 = VECTOR('',#946,1.);
#946 = DIRECTION('',(0.,0.,1.));
#947 = ORIENTED_EDGE('',*,*,#391,.T.);
#948 = ORIENTED_EDGE('',*,*,#949,.F.);
#949 = EDGE_CURVE('',#950,#394,#952,.T.);
#950 = VERTEX_POINT('',#951);
#951 = CARTESIAN_POINT('',(23.000045720091,-74.4874498349,0.));
#952 = LINE('',#953,#954);
#953 = CARTESIAN_POINT('',(23.000045720091,-74.4874498349,-3.));
#954 = VECTOR('',#955,1.);
#955 = DIRECTION('',(0.,0.,1.));
#956 = ORIENTED_EDGE('',*,*,#957,.F.);
#957 = EDGE_CURVE('',#958,#950,#960,.T.);
#958 = VERTEX_POINT('',#959);
#959 = CARTESIAN_POINT('',(23.954717901488,-74.4874498349,0.));
#960 = LINE('',#961,#962);
#961 = CARTESIAN_POINT('',(101.0002044704,-74.4874498349,0.));
#962 = VECTOR('',#963,1.);
#963 = DIRECTION('',(-1.,-1.4E-16,0.));
#964 = ORIENTED_EDGE('',*,*,#965,.F.);
#965 = EDGE_CURVE('',#966,#958,#968,.T.);
#966 = VERTEX_POINT('',#967);
#967 = CARTESIAN_POINT('',(23.95471790149,-74.4874498349,-3.));
#968 = LINE('',#969,#970);
#969 = CARTESIAN_POINT('',(23.954717901488,-74.4874498349,0.));
#970 = VECTOR('',#971,1.);
#971 = DIRECTION('',(0.,0.,1.));
#972 = ORIENTED_EDGE('',*,*,#973,.F.);
#973 = EDGE_CURVE('',#974,#966,#976,.T.);
#974 = VERTEX_POINT('',#975);
#975 = CARTESIAN_POINT('',(126.04558689911,-74.4874498349,-3.));
#976 = LINE('',#977,#978);
#977 = CARTESIAN_POINT('',(127.00025654051,-74.4874498349,-3.));
#978 = VECTOR('',#979,1.);
#979 = DIRECTION('',(-1.,-1.4E-16,0.));
#980 = ORIENTED_EDGE('',*,*,#981,.T.);
#981 = EDGE_CURVE('',#974,#935,#982,.T.);
#982 = LINE('',#983,#984);
#983 = CARTESIAN_POINT('',(126.04558689911,-74.4874498349,0.));
#984 = VECTOR('',#985,1.);
#985 = DIRECTION('',(0.,0.,1.));
#986 = PLANE('',#987);
#987 = AXIS2_PLACEMENT_3D('',#988,#989,#990);
#988 = CARTESIAN_POINT('',(127.00025654051,-74.4874498349,-3.));
#989 = DIRECTION('',(1.4E-16,-1.,0.));
#990 = DIRECTION('',(-1.,-1.4E-16,0.));
#991 = ADVANCED_FACE('',(#992),#1011,.F.);
#992 = FACE_BOUND('',#993,.F.);
#993 = EDGE_LOOP('',(#994,#1003,#1004,#1005));
#994 = ORIENTED_EDGE('',*,*,#995,.F.);
#995 = EDGE_CURVE('',#950,#996,#998,.T.);
#996 = VERTEX_POINT('',#997);
#997 = CARTESIAN_POINT('',(19.012740665481,-70.50014478029,0.));
#998 = CIRCLE('',#999,3.98730505461);
#999 = AXIS2_PLACEMENT_3D('',#1000,#1001,#1002);
#1000 = CARTESIAN_POINT('',(23.000045720091,-70.50014478029,0.));
#1001 = DIRECTION('',(0.,0.,-1.));
#1002 = DIRECTION('',(-2.21E-15,-1.,-0.));
#1003 = ORIENTED_EDGE('',*,*,#949,.T.);
#1004 = ORIENTED_EDGE('',*,*,#401,.T.);
#1005 = ORIENTED_EDGE('',*,*,#1006,.F.);
#1006 = EDGE_CURVE('',#996,#402,#1007,.T.);
#1007 = LINE('',#1008,#1009);
#1008 = CARTESIAN_POINT('',(19.012740665481,-70.50014478029,-3.));
#1009 = VECTOR('',#1010,1.);
#1010 = DIRECTION('',(0.,0.,1.));
#1011 = CYLINDRICAL_SURFACE('',#1012,3.98730505461);
#1012 = AXIS2_PLACEMENT_3D('',#1013,#1014,#1015);
#1013 = CARTESIAN_POINT('',(23.000045720091,-70.50014478029,-3.));
#1014 = DIRECTION('',(0.,0.,-1.));
#1015 = DIRECTION('',(-2.21E-15,-1.,-0.));
#1016 = ADVANCED_FACE('',(#1017),#1067,.F.);
#1017 = FACE_BOUND('',#1018,.F.);
#1018 = EDGE_LOOP('',(#1019,#1027,#1028,#1029,#1037,#1045,#1053,#1061));
#1019 = ORIENTED_EDGE('',*,*,#1020,.F.);
#1020 = EDGE_CURVE('',#996,#1021,#1023,.T.);
#1021 = VERTEX_POINT('',#1022);
#1022 = CARTESIAN_POINT('',(19.012740665481,-69.54545945027,0.));
#1023 = LINE('',#1024,#1025);
#1024 = CARTESIAN_POINT('',(19.012740665481,-54.50011112522,0.));
#1025 = VECTOR('',#1026,1.);
#1026 = DIRECTION('',(-1.7E-16,1.,0.));
#1027 = ORIENTED_EDGE('',*,*,#1006,.T.);
#1028 = ORIENTED_EDGE('',*,*,#410,.T.);
#1029 = ORIENTED_EDGE('',*,*,#1030,.F.);
#1030 = EDGE_CURVE('',#1031,#411,#1033,.T.);
#1031 = VERTEX_POINT('',#1032);
#1032 = CARTESIAN_POINT('',(19.012740665481,-6.50001524003,0.));
#1033 = LINE('',#1034,#1035);
#1034 = CARTESIAN_POINT('',(19.012740665481,-6.50001524003,-3.));
#1035 = VECTOR('',#1036,1.);
#1036 = DIRECTION('',(0.,0.,1.));
#1037 = ORIENTED_EDGE('',*,*,#1038,.F.);
#1038 = EDGE_CURVE('',#1039,#1031,#1041,.T.);
#1039 = VERTEX_POINT('',#1040);
#1040 = CARTESIAN_POINT('',(19.012740665481,-7.454695490029,0.));
#1041 = LINE('',#1042,#1043);
#1042 = CARTESIAN_POINT('',(19.012740665481,-54.50011112522,0.));
#1043 = VECTOR('',#1044,1.);
#1044 = DIRECTION('',(-1.7E-16,1.,0.));
#1045 = ORIENTED_EDGE('',*,*,#1046,.F.);
#1046 = EDGE_CURVE('',#1047,#1039,#1049,.T.);
#1047 = VERTEX_POINT('',#1048);
#1048 = CARTESIAN_POINT('',(19.012740665481,-7.454695490029,-3.));
#1049 = LINE('',#1050,#1051);
#1050 = CARTESIAN_POINT('',(19.012740665481,-7.454695490029,0.));
#1051 = VECTOR('',#1052,1.);
#1052 = DIRECTION('',(0.,0.,1.));
#1053 = ORIENTED_EDGE('',*,*,#1054,.F.);
#1054 = EDGE_CURVE('',#1055,#1047,#1057,.T.);
#1055 = VERTEX_POINT('',#1056);
#1056 = CARTESIAN_POINT('',(19.012740665481,-69.54545945027,-3.));
#1057 = LINE('',#1058,#1059);
#1058 = CARTESIAN_POINT('',(19.012740665481,-70.50014478029,-3.));
#1059 = VECTOR('',#1060,1.);
#1060 = DIRECTION('',(-1.7E-16,1.,-0.));
#1061 = ORIENTED_EDGE('',*,*,#1062,.T.);
#1062 = EDGE_CURVE('',#1055,#1021,#1063,.T.);
#1063 = LINE('',#1064,#1065);
#1064 = CARTESIAN_POINT('',(19.012740665481,-69.54545945027,0.));
#1065 = VECTOR('',#1066,1.);
#1066 = DIRECTION('',(0.,0.,1.));
#1067 = PLANE('',#1068);
#1068 = AXIS2_PLACEMENT_3D('',#1069,#1070,#1071);
#1069 = CARTESIAN_POINT('',(19.012740665481,-70.50014478029,-3.));
#1070 = DIRECTION('',(-1.,-1.7E-16,-0.));
#1071 = DIRECTION('',(-1.7E-16,1.,0.));
#1072 = ADVANCED_FACE('',(#1073),#1092,.F.);
#1073 = FACE_BOUND('',#1074,.F.);
#1074 = EDGE_LOOP('',(#1075,#1084,#1085,#1086));
#1075 = ORIENTED_EDGE('',*,*,#1076,.F.);
#1076 = EDGE_CURVE('',#1031,#1077,#1079,.T.);
#1077 = VERTEX_POINT('',#1078);
#1078 = CARTESIAN_POINT('',(23.000045720091,-2.51271018542,0.));
#1079 = CIRCLE('',#1080,3.98730505461);
#1080 = AXIS2_PLACEMENT_3D('',#1081,#1082,#1083);
#1081 = CARTESIAN_POINT('',(23.000045720091,-6.50001524003,0.));
#1082 = DIRECTION('',(0.,0.,-1.));
#1083 = DIRECTION('',(-1.,-9.5E-16,-0.));
#1084 = ORIENTED_EDGE('',*,*,#1030,.T.);
#1085 = ORIENTED_EDGE('',*,*,#418,.T.);
#1086 = ORIENTED_EDGE('',*,*,#1087,.F.);
#1087 = EDGE_CURVE('',#1077,#419,#1088,.T.);
#1088 = LINE('',#1089,#1090);
#1089 = CARTESIAN_POINT('',(23.000045720091,-2.51271018542,-3.));
#1090 = VECTOR('',#1091,1.);
#1091 = DIRECTION('',(0.,0.,1.));
#1092 = CYLINDRICAL_SURFACE('',#1093,3.98730505461);
#1093 = AXIS2_PLACEMENT_3D('',#1094,#1095,#1096);
#1094 = CARTESIAN_POINT('',(23.000045720091,-6.50001524003,-3.));
#1095 = DIRECTION('',(0.,0.,-1.));
#1096 = DIRECTION('',(-1.,-9.5E-16,-0.));
#1097 = ADVANCED_FACE('',(#1098,#1148),#1158,.F.);
#1098 = FACE_BOUND('',#1099,.F.);
#1099 = EDGE_LOOP('',(#1100,#1108,#1109,#1110,#1118,#1126,#1134,#1142));
#1100 = ORIENTED_EDGE('',*,*,#1101,.F.);
#1101 = EDGE_CURVE('',#1077,#1102,#1104,.T.);
#1102 = VERTEX_POINT('',#1103);
#1103 = CARTESIAN_POINT('',(23.954739118556,-2.51271018542,0.));
#1104 = LINE('',#1105,#1106);
#1105 = CARTESIAN_POINT('',(49.000099060196,-2.51271018542,0.));
#1106 = VECTOR('',#1107,1.);
#1107 = DIRECTION('',(1.,-1.E-17,0.));
#1108 = ORIENTED_EDGE('',*,*,#1087,.T.);
#1109 = ORIENTED_EDGE('',*,*,#427,.T.);
#1110 = ORIENTED_EDGE('',*,*,#1111,.F.);
#1111 = EDGE_CURVE('',#1112,#428,#1114,.T.);
#1112 = VERTEX_POINT('',#1113);
#1113 = CARTESIAN_POINT('',(127.00025654051,-2.51271018542,0.));
#1114 = LINE('',#1115,#1116);
#1115 = CARTESIAN_POINT('',(127.00025654051,-2.51271018542,-3.));
#1116 = VECTOR('',#1117,1.);
#1117 = DIRECTION('',(0.,0.,1.));
#1118 = ORIENTED_EDGE('',*,*,#1119,.F.);
#1119 = EDGE_CURVE('',#1120,#1112,#1122,.T.);
#1120 = VERTEX_POINT('',#1121);
#1121 = CARTESIAN_POINT('',(126.04556568204,-2.51271018542,0.));
#1122 = LINE('',#1123,#1124);
#1123 = CARTESIAN_POINT('',(49.000099060196,-2.51271018542,0.));
#1124 = VECTOR('',#1125,1.);
#1125 = DIRECTION('',(1.,-1.E-17,0.));
#1126 = ORIENTED_EDGE('',*,*,#1127,.F.);
#1127 = EDGE_CURVE('',#1128,#1120,#1130,.T.);
#1128 = VERTEX_POINT('',#1129);
#1129 = CARTESIAN_POINT('',(126.04556568204,-2.51271018542,-3.));
#1130 = LINE('',#1131,#1132);
#1131 = CARTESIAN_POINT('',(126.04556568204,-2.51271018542,0.));
#1132 = VECTOR('',#1133,1.);
#1133 = DIRECTION('',(0.,0.,1.));
#1134 = ORIENTED_EDGE('',*,*,#1135,.F.);
#1135 = EDGE_CURVE('',#1136,#1128,#1138,.T.);
#1136 = VERTEX_POINT('',#1137);
#1137 = CARTESIAN_POINT('',(23.954739118556,-2.51271018542,-3.));
#1138 = LINE('',#1139,#1140);
#1139 = CARTESIAN_POINT('',(23.000045720091,-2.51271018542,-3.));
#1140 = VECTOR('',#1141,1.);
#1141 = DIRECTION('',(1.,-1.E-17,0.));
#1142 = ORIENTED_EDGE('',*,*,#1143,.T.);
#1143 = EDGE_CURVE('',#1136,#1102,#1144,.T.);
#1144 = LINE('',#1145,#1146);
#1145 = CARTESIAN_POINT('',(23.954739118556,-2.51271018542,0.));
#1146 = VECTOR('',#1147,1.);
#1147 = DIRECTION('',(0.,0.,1.));
#1148 = FACE_BOUND('',#1149,.F.);
#1149 = EDGE_LOOP('',(#1150,#1151,#1152,#1153,#1154,#1155,#1156,#1157));
#1150 = ORIENTED_EDGE('',*,*,#700,.T.);
#1151 = ORIENTED_EDGE('',*,*,#658,.T.);
#1152 = ORIENTED_EDGE('',*,*,#602,.T.);
#1153 = ORIENTED_EDGE('',*,*,#553,.T.);
#1154 = ORIENTED_EDGE('',*,*,#584,.T.);
#1155 = ORIENTED_EDGE('',*,*,#627,.T.);
#1156 = ORIENTED_EDGE('',*,*,#682,.T.);
#1157 = ORIENTED_EDGE('',*,*,#725,.T.);
#1158 = PLANE('',#1159);
#1159 = AXIS2_PLACEMENT_3D('',#1160,#1161,#1162);
#1160 = CARTESIAN_POINT('',(23.000045720091,-2.51271018542,-3.));
#1161 = DIRECTION('',(1.E-17,1.,0.));
#1162 = DIRECTION('',(1.,-1.E-17,0.));
#1163 = ADVANCED_FACE('',(#1164),#1183,.F.);
#1164 = FACE_BOUND('',#1165,.F.);
#1165 = EDGE_LOOP('',(#1166,#1175,#1176,#1177));
#1166 = ORIENTED_EDGE('',*,*,#1167,.F.);
#1167 = EDGE_CURVE('',#1112,#1168,#1170,.T.);
#1168 = VERTEX_POINT('',#1169);
#1169 = CARTESIAN_POINT('',(130.98756159512,-6.50001524003,0.));
#1170 = CIRCLE('',#1171,3.98730505461);
#1171 = AXIS2_PLACEMENT_3D('',#1172,#1173,#1174);
#1172 = CARTESIAN_POINT('',(127.00025654051,-6.50001524003,0.));
#1173 = DIRECTION('',(0.,0.,-1.));
#1174 = DIRECTION('',(-1.26E-15,1.,0.));
#1175 = ORIENTED_EDGE('',*,*,#1111,.T.);
#1176 = ORIENTED_EDGE('',*,*,#435,.T.);
#1177 = ORIENTED_EDGE('',*,*,#1178,.F.);
#1178 = EDGE_CURVE('',#1168,#436,#1179,.T.);
#1179 = LINE('',#1180,#1181);
#1180 = CARTESIAN_POINT('',(130.98756159512,-6.50001524003,-3.));
#1181 = VECTOR('',#1182,1.);
#1182 = DIRECTION('',(0.,0.,1.));
#1183 = CYLINDRICAL_SURFACE('',#1184,3.98730505461);
#1184 = AXIS2_PLACEMENT_3D('',#1185,#1186,#1187);
#1185 = CARTESIAN_POINT('',(127.00025654051,-6.50001524003,-3.));
#1186 = DIRECTION('',(0.,0.,-1.));
#1187 = DIRECTION('',(-1.26E-15,1.,0.));
#1188 = ADVANCED_FACE('',(#1189),#1239,.F.);
#1189 = FACE_BOUND('',#1190,.F.);
#1190 = EDGE_LOOP('',(#1191,#1199,#1200,#1201,#1209,#1217,#1225,#1233));
#1191 = ORIENTED_EDGE('',*,*,#1192,.F.);
#1192 = EDGE_CURVE('',#1168,#1193,#1195,.T.);
#1193 = VERTEX_POINT('',#1194);
#1194 = CARTESIAN_POINT('',(130.98756159512,-7.454706098469,0.));
#1195 = LINE('',#1196,#1197);
#1196 = CARTESIAN_POINT('',(130.98756159512,-22.50004635509,0.));
#1197 = VECTOR('',#1198,1.);
#1198 = DIRECTION('',(0.,-1.,0.));
#1199 = ORIENTED_EDGE('',*,*,#1178,.T.);
#1200 = ORIENTED_EDGE('',*,*,#444,.T.);
#1201 = ORIENTED_EDGE('',*,*,#1202,.F.);
#1202 = EDGE_CURVE('',#1203,#445,#1205,.T.);
#1203 = VERTEX_POINT('',#1204);
#1204 = CARTESIAN_POINT('',(130.98756159512,-70.50014478029,0.));
#1205 = LINE('',#1206,#1207);
#1206 = CARTESIAN_POINT('',(130.98756159512,-70.50014478029,-3.));
#1207 = VECTOR('',#1208,1.);
#1208 = DIRECTION('',(0.,0.,1.));
#1209 = ORIENTED_EDGE('',*,*,#1210,.F.);
#1210 = EDGE_CURVE('',#1211,#1203,#1213,.T.);
#1211 = VERTEX_POINT('',#1212);
#1212 = CARTESIAN_POINT('',(130.98756159512,-69.54544884183,0.));
#1213 = LINE('',#1214,#1215);
#1214 = CARTESIAN_POINT('',(130.98756159512,-22.50004635509,0.));
#1215 = VECTOR('',#1216,1.);
#1216 = DIRECTION('',(0.,-1.,0.));
#1217 = ORIENTED_EDGE('',*,*,#1218,.F.);
#1218 = EDGE_CURVE('',#1219,#1211,#1221,.T.);
#1219 = VERTEX_POINT('',#1220);
#1220 = CARTESIAN_POINT('',(130.98756159512,-69.54544884183,-3.));
#1221 = LINE('',#1222,#1223);
#1222 = CARTESIAN_POINT('',(130.98756159512,-69.54544884183,0.));
#1223 = VECTOR('',#1224,1.);
#1224 = DIRECTION('',(0.,0.,1.));
#1225 = ORIENTED_EDGE('',*,*,#1226,.F.);
#1226 = EDGE_CURVE('',#1227,#1219,#1229,.T.);
#1227 = VERTEX_POINT('',#1228);
#1228 = CARTESIAN_POINT('',(130.98756159512,-7.454706098469,-3.));
#1229 = LINE('',#1230,#1231);
#1230 = CARTESIAN_POINT('',(130.98756159512,-6.50001524003,-3.));
#1231 = VECTOR('',#1232,1.);
#1232 = DIRECTION('',(0.,-1.,0.));
#1233 = ORIENTED_EDGE('',*,*,#1234,.T.);
#1234 = EDGE_CURVE('',#1227,#1193,#1235,.T.);
#1235 = LINE('',#1236,#1237);
#1236 = CARTESIAN_POINT('',(130.98756159512,-7.454706098469,0.));
#1237 = VECTOR('',#1238,1.);
#1238 = DIRECTION('',(0.,0.,1.));
#1239 = PLANE('',#1240);
#1240 = AXIS2_PLACEMENT_3D('',#1241,#1242,#1243);
#1241 = CARTESIAN_POINT('',(130.98756159512,-6.50001524003,-3.));
#1242 = DIRECTION('',(1.,0.,0.));
#1243 = DIRECTION('',(0.,-1.,0.));
#1244 = ADVANCED_FACE('',(#1245),#1257,.F.);
#1245 = FACE_BOUND('',#1246,.F.);
#1246 = EDGE_LOOP('',(#1247,#1254,#1255,#1256));
#1247 = ORIENTED_EDGE('',*,*,#1248,.F.);
#1248 = EDGE_CURVE('',#1203,#933,#1249,.T.);
#1249 = CIRCLE('',#1250,3.98730505461);
#1250 = AXIS2_PLACEMENT_3D('',#1251,#1252,#1253);
#1251 = CARTESIAN_POINT('',(127.00025654051,-70.50014478029,0.));
#1252 = DIRECTION('',(0.,0.,-1.));
#1253 = DIRECTION('',(1.,-8.41E-15,0.));
#1254 = ORIENTED_EDGE('',*,*,#1202,.T.);
#1255 = ORIENTED_EDGE('',*,*,#452,.T.);
#1256 = ORIENTED_EDGE('',*,*,#942,.F.);
#1257 = CYLINDRICAL_SURFACE('',#1258,3.98730505461);
#1258 = AXIS2_PLACEMENT_3D('',#1259,#1260,#1261);
#1259 = CARTESIAN_POINT('',(127.00025654051,-70.50014478029,-3.));
#1260 = DIRECTION('',(0.,0.,-1.));
#1261 = DIRECTION('',(1.,-8.41E-15,0.));
#1262 = ADVANCED_FACE('',(#1263),#1288,.T.);
#1263 = FACE_BOUND('',#1264,.T.);
#1264 = EDGE_LOOP('',(#1265,#1273,#1274,#1282));
#1265 = ORIENTED_EDGE('',*,*,#1266,.T.);
#1266 = EDGE_CURVE('',#1267,#464,#1269,.T.);
#1267 = VERTEX_POINT('',#1268);
#1268 = CARTESIAN_POINT('',(127.00025654051,-77.4874498349,-5.5));
#1269 = LINE('',#1270,#1271);
#1270 = CARTESIAN_POINT('',(127.00025654051,-77.4874498349,-3.));
#1271 = VECTOR('',#1272,1.);
#1272 = DIRECTION('',(0.,0.,1.));
#1273 = ORIENTED_EDGE('',*,*,#461,.F.);
#1274 = ORIENTED_EDGE('',*,*,#1275,.F.);
#1275 = EDGE_CURVE('',#1276,#462,#1278,.T.);
#1276 = VERTEX_POINT('',#1277);
#1277 = CARTESIAN_POINT('',(23.000045720091,-77.4874498349,-5.5));
#1278 = LINE('',#1279,#1280);
#1279 = CARTESIAN_POINT('',(23.000045720091,-77.4874498349,-3.));
#1280 = VECTOR('',#1281,1.);
#1281 = DIRECTION('',(0.,0.,1.));
#1282 = ORIENTED_EDGE('',*,*,#1283,.F.);
#1283 = EDGE_CURVE('',#1267,#1276,#1284,.T.);
#1284 = LINE('',#1285,#1286);
#1285 = CARTESIAN_POINT('',(127.00025654051,-77.4874498349,-5.5));
#1286 = VECTOR('',#1287,1.);
#1287 = DIRECTION('',(-1.,-1.4E-16,0.));
#1288 = PLANE('',#1289);
#1289 = AXIS2_PLACEMENT_3D('',#1290,#1291,#1292);
#1290 = CARTESIAN_POINT('',(127.00025654051,-77.4874498349,-3.));
#1291 = DIRECTION('',(1.4E-16,-1.,0.));
#1292 = DIRECTION('',(-1.,-1.4E-16,0.));
#1293 = ADVANCED_FACE('',(#1294),#1313,.T.);
#1294 = FACE_BOUND('',#1295,.T.);
#1295 = EDGE_LOOP('',(#1296,#1304,#1305,#1306));
#1296 = ORIENTED_EDGE('',*,*,#1297,.T.);
#1297 = EDGE_CURVE('',#1298,#472,#1300,.T.);
#1298 = VERTEX_POINT('',#1299);
#1299 = CARTESIAN_POINT('',(133.98756159512,-70.50014478029,-5.5));
#1300 = LINE('',#1301,#1302);
#1301 = CARTESIAN_POINT('',(133.98756159512,-70.50014478029,-3.));
#1302 = VECTOR('',#1303,1.);
#1303 = DIRECTION('',(0.,0.,1.));
#1304 = ORIENTED_EDGE('',*,*,#471,.T.);
#1305 = ORIENTED_EDGE('',*,*,#1266,.F.);
#1306 = ORIENTED_EDGE('',*,*,#1307,.F.);
#1307 = EDGE_CURVE('',#1298,#1267,#1308,.T.);
#1308 = CIRCLE('',#1309,6.98730505461);
#1309 = AXIS2_PLACEMENT_3D('',#1310,#1311,#1312);
#1310 = CARTESIAN_POINT('',(127.00025654051,-70.50014478029,-5.5));
#1311 = DIRECTION('',(0.,0.,-1.));
#1312 = DIRECTION('',(1.,0.,0.));
#1313 = CYLINDRICAL_SURFACE('',#1314,6.98730505461);
#1314 = AXIS2_PLACEMENT_3D('',#1315,#1316,#1317);
#1315 = CARTESIAN_POINT('',(127.00025654051,-70.50014478029,-3.));
#1316 = DIRECTION('',(0.,0.,-1.));
#1317 = DIRECTION('',(1.,-8.41E-15,0.));
#1318 = ADVANCED_FACE('',(#1319),#1330,.T.);
#1319 = FACE_BOUND('',#1320,.T.);
#1320 = EDGE_LOOP('',(#1321,#1322,#1323,#1324));
#1321 = ORIENTED_EDGE('',*,*,#522,.T.);
#1322 = ORIENTED_EDGE('',*,*,#480,.F.);
#1323 = ORIENTED_EDGE('',*,*,#1297,.F.);
#1324 = ORIENTED_EDGE('',*,*,#1325,.F.);
#1325 = EDGE_CURVE('',#523,#1298,#1326,.T.);
#1326 = LINE('',#1327,#1328);
#1327 = CARTESIAN_POINT('',(133.98756159512,-6.50001524003,-5.5));
#1328 = VECTOR('',#1329,1.);
#1329 = DIRECTION('',(0.,-1.,0.));
#1330 = PLANE('',#1331);
#1331 = AXIS2_PLACEMENT_3D('',#1332,#1333,#1334);
#1332 = CARTESIAN_POINT('',(133.98756159512,-6.50001524003,-3.));
#1333 = DIRECTION('',(1.,0.,0.));
#1334 = DIRECTION('',(0.,-1.,0.));
#1335 = ADVANCED_FACE('',(#1336),#1348,.T.);
#1336 = FACE_BOUND('',#1337,.T.);
#1337 = EDGE_LOOP('',(#1338,#1339,#1340,#1341));
#1338 = ORIENTED_EDGE('',*,*,#1275,.T.);
#1339 = ORIENTED_EDGE('',*,*,#505,.T.);
#1340 = ORIENTED_EDGE('',*,*,#741,.F.);
#1341 = ORIENTED_EDGE('',*,*,#1342,.F.);
#1342 = EDGE_CURVE('',#1276,#742,#1343,.T.);
#1343 = CIRCLE('',#1344,6.98730505461);
#1344 = AXIS2_PLACEMENT_3D('',#1345,#1346,#1347);
#1345 = CARTESIAN_POINT('',(23.000045720091,-70.50014478029,-5.5));
#1346 = DIRECTION('',(0.,-0.,-1.));
#1347 = DIRECTION('',(5.1E-16,-1.,0.));
#1348 = CYLINDRICAL_SURFACE('',#1349,6.98730505461);
#1349 = AXIS2_PLACEMENT_3D('',#1350,#1351,#1352);
#1350 = CARTESIAN_POINT('',(23.000045720091,-70.50014478029,-3.));
#1351 = DIRECTION('',(0.,0.,-1.));
#1352 = DIRECTION('',(-2.21E-15,-1.,-0.));
#1353 = ADVANCED_FACE('',(#1354),#1365,.F.);
#1354 = FACE_BOUND('',#1355,.T.);
#1355 = EDGE_LOOP('',(#1356,#1362,#1363,#1364));
#1356 = ORIENTED_EDGE('',*,*,#1357,.F.);
#1357 = EDGE_CURVE('',#742,#827,#1358,.T.);
#1358 = LINE('',#1359,#1360);
#1359 = CARTESIAN_POINT('',(16.012740665481,-70.50014478029,-5.5));
#1360 = VECTOR('',#1361,1.);
#1361 = DIRECTION('',(0.707106781187,-3.8E-16,-0.707106781187));
#1362 = ORIENTED_EDGE('',*,*,#751,.T.);
#1363 = ORIENTED_EDGE('',*,*,#765,.T.);
#1364 = ORIENTED_EDGE('',*,*,#826,.F.);
#1365 = PLANE('',#1366);
#1366 = AXIS2_PLACEMENT_3D('',#1367,#1368,#1369);
#1367 = CARTESIAN_POINT('',(16.262740665481,-70.50014478029,-5.75));
#1368 = DIRECTION('',(0.707106781187,2.5E-16,0.707106781187));
#1369 = DIRECTION('',(2.617766952966E-16,-1.,9.177669529664E-17));
#1370 = ADVANCED_FACE('',(#1371),#1387,.F.);
#1371 = FACE_BOUND('',#1372,.T.);
#1372 = EDGE_LOOP('',(#1373,#1379,#1380,#1386));
#1373 = ORIENTED_EDGE('',*,*,#1374,.F.);
#1374 = EDGE_CURVE('',#1267,#791,#1375,.T.);
#1375 = LINE('',#1376,#1377);
#1376 = CARTESIAN_POINT('',(127.00025654051,-77.2374498349,-5.75));
#1377 = VECTOR('',#1378,1.);
#1378 = DIRECTION('',(-1.E-16,0.707106781187,-0.707106781187));
#1379 = ORIENTED_EDGE('',*,*,#1283,.T.);
#1380 = ORIENTED_EDGE('',*,*,#1381,.T.);
#1381 = EDGE_CURVE('',#1276,#793,#1382,.T.);
#1382 = LINE('',#1383,#1384);
#1383 = CARTESIAN_POINT('',(23.000045720091,-77.2374498349,-5.75));
#1384 = VECTOR('',#1385,1.);
#1385 = DIRECTION('',(-1.E-16,0.707106781187,-0.707106781187));
#1386 = ORIENTED_EDGE('',*,*,#790,.F.);
#1387 = PLANE('',#1388);
#1388 = AXIS2_PLACEMENT_3D('',#1389,#1390,#1391);
#1389 = CARTESIAN_POINT('',(127.00025654051,-77.2374498349,-5.75));
#1390 = DIRECTION('',(0.,0.707106781187,0.707106781187));
#1391 = DIRECTION('',(1.,7.E-17,-7.E-17));
#1392 = ADVANCED_FACE('',(#1393),#1404,.T.);
#1393 = FACE_BOUND('',#1394,.T.);
#1394 = EDGE_LOOP('',(#1395,#1401,#1402,#1403));
#1395 = ORIENTED_EDGE('',*,*,#1396,.F.);
#1396 = EDGE_CURVE('',#1298,#801,#1397,.T.);
#1397 = LINE('',#1398,#1399);
#1398 = CARTESIAN_POINT('',(133.73756159512,-70.50014478029,-5.75));
#1399 = VECTOR('',#1400,1.);
#1400 = DIRECTION('',(-0.707106781187,-0.,-0.707106781187));
#1401 = ORIENTED_EDGE('',*,*,#1307,.T.);
#1402 = ORIENTED_EDGE('',*,*,#1374,.T.);
#1403 = ORIENTED_EDGE('',*,*,#800,.F.);
#1404 = CONICAL_SURFACE('',#1405,6.98730505461,0.785398163397);
#1405 = AXIS2_PLACEMENT_3D('',#1406,#1407,#1408);
#1406 = CARTESIAN_POINT('',(127.00025654051,-70.50014478029,-5.5));
#1407 = DIRECTION('',(0.,0.,1.));
#1408 = DIRECTION('',(1.,0.,0.));
#1409 = ADVANCED_FACE('',(#1410),#1416,.T.);
#1410 = FACE_BOUND('',#1411,.T.);
#1411 = EDGE_LOOP('',(#1412,#1413,#1414,#1415));
#1412 = ORIENTED_EDGE('',*,*,#1381,.F.);
#1413 = ORIENTED_EDGE('',*,*,#1342,.T.);
#1414 = ORIENTED_EDGE('',*,*,#1357,.T.);
#1415 = ORIENTED_EDGE('',*,*,#834,.F.);
#1416 = CONICAL_SURFACE('',#1417,6.98730505461,0.785398163397);
#1417 = AXIS2_PLACEMENT_3D('',#1418,#1419,#1420);
#1418 = CARTESIAN_POINT('',(23.000045720091,-70.50014478029,-5.5));
#1419 = DIRECTION('',(0.,0.,1.));
#1420 = DIRECTION('',(5.1E-16,-1.,0.));
#1421 = ADVANCED_FACE('',(#1422),#1428,.F.);
#1422 = FACE_BOUND('',#1423,.T.);
#1423 = EDGE_LOOP('',(#1424,#1425,#1426,#1427));
#1424 = ORIENTED_EDGE('',*,*,#917,.F.);
#1425 = ORIENTED_EDGE('',*,*,#1325,.T.);
#1426 = ORIENTED_EDGE('',*,*,#1396,.T.);
#1427 = ORIENTED_EDGE('',*,*,#809,.F.);
#1428 = PLANE('',#1429);
#1429 = AXIS2_PLACEMENT_3D('',#1430,#1431,#1432);
#1430 = CARTESIAN_POINT('',(133.73756159512,-6.50001524003,-5.75));
#1431 = DIRECTION('',(-0.707106781187,0.,0.707106781187));
#1432 = DIRECTION('',(0.,1.,0.));
#1433 = ADVANCED_FACE('',(#1434),#1453,.F.);
#1434 = FACE_BOUND('',#1435,.T.);
#1435 = EDGE_LOOP('',(#1436,#1444,#1451,#1452));
#1436 = ORIENTED_EDGE('',*,*,#1437,.F.);
#1437 = EDGE_CURVE('',#1438,#844,#1440,.T.);
#1438 = VERTEX_POINT('',#1439);
#1439 = CARTESIAN_POINT('',(23.800045720091,-70.50014224028,-1.E-02));
#1440 = LINE('',#1441,#1442);
#1441 = CARTESIAN_POINT('',(23.800045720091,-70.50014224028,-1.E-02));
#1442 = VECTOR('',#1443,1.);
#1443 = DIRECTION('',(-6.E-17,0.,-1.));
#1444 = ORIENTED_EDGE('',*,*,#1445,.T.);
#1445 = EDGE_CURVE('',#1438,#1438,#1446,.T.);
#1446 = CIRCLE('',#1447,0.8);
#1447 = AXIS2_PLACEMENT_3D('',#1448,#1449,#1450);
#1448 = CARTESIAN_POINT('',(23.000045720091,-70.50014224028,-1.E-02));
#1449 = DIRECTION('',(0.,0.,1.));
#1450 = DIRECTION('',(1.,0.,0.));
#1451 = ORIENTED_EDGE('',*,*,#1437,.T.);
#1452 = ORIENTED_EDGE('',*,*,#843,.T.);
#1453 = CYLINDRICAL_SURFACE('',#1454,0.8);
#1454 = AXIS2_PLACEMENT_3D('',#1455,#1456,#1457);
#1455 = CARTESIAN_POINT('',(23.000045720091,-70.50014224028,-1.E-02));
#1456 = DIRECTION('',(-0.,-0.,-1.));
#1457 = DIRECTION('',(1.,0.,0.));
#1458 = ADVANCED_FACE('',(#1459),#1478,.F.);
#1459 = FACE_BOUND('',#1460,.T.);
#1460 = EDGE_LOOP('',(#1461,#1469,#1476,#1477));
#1461 = ORIENTED_EDGE('',*,*,#1462,.F.);
#1462 = EDGE_CURVE('',#1463,#855,#1465,.T.);
#1463 = VERTEX_POINT('',#1464);
#1464 = CARTESIAN_POINT('',(52.206445897891,-38.50008001016,-3.));
#1465 = LINE('',#1466,#1467);
#1466 = CARTESIAN_POINT('',(52.206445897891,-38.50008001016,-3.));
#1467 = VECTOR('',#1468,1.);
#1468 = DIRECTION('',(-0.707106781187,0.,-0.707106781187));
#1469 = ORIENTED_EDGE('',*,*,#1470,.T.);
#1470 = EDGE_CURVE('',#1463,#1463,#1471,.T.);
#1471 = CIRCLE('',#1472,6.7);
#1472 = AXIS2_PLACEMENT_3D('',#1473,#1474,#1475);
#1473 = CARTESIAN_POINT('',(45.506445897891,-38.50008001016,-3.));
#1474 = DIRECTION('',(0.,0.,1.));
#1475 = DIRECTION('',(1.,0.,0.));
#1476 = ORIENTED_EDGE('',*,*,#1462,.T.);
#1477 = ORIENTED_EDGE('',*,*,#854,.T.);
#1478 = CONICAL_SURFACE('',#1479,6.7,0.785398163397);
#1479 = AXIS2_PLACEMENT_3D('',#1480,#1481,#1482);
#1480 = CARTESIAN_POINT('',(45.506445897891,-38.50008001016,-3.));
#1481 = DIRECTION('',(0.,0.,1.));
#1482 = DIRECTION('',(1.,0.,0.));
#1483 = ADVANCED_FACE('',(#1484),#1503,.F.);
#1484 = FACE_BOUND('',#1485,.T.);
#1485 = EDGE_LOOP('',(#1486,#1494,#1501,#1502));
#1486 = ORIENTED_EDGE('',*,*,#1487,.F.);
#1487 = EDGE_CURVE('',#1488,#866,#1490,.T.);
#1488 = VERTEX_POINT('',#1489);
#1489 = CARTESIAN_POINT('',(127.80025908051,-70.50014224028,-1.E-02));
#1490 = LINE('',#1491,#1492);
#1491 = CARTESIAN_POINT('',(127.80025908051,-70.50014224028,-1.E-02));
#1492 = VECTOR('',#1493,1.);
#1493 = DIRECTION('',(-6.E-17,0.,-1.));
#1494 = ORIENTED_EDGE('',*,*,#1495,.T.);
#1495 = EDGE_CURVE('',#1488,#1488,#1496,.T.);
#1496 = CIRCLE('',#1497,0.8);
#1497 = AXIS2_PLACEMENT_3D('',#1498,#1499,#1500);
#1498 = CARTESIAN_POINT('',(127.00025908051,-70.50014224028,-1.E-02));
#1499 = DIRECTION('',(0.,0.,1.));
#1500 = DIRECTION('',(1.,0.,0.));
#1501 = ORIENTED_EDGE('',*,*,#1487,.T.);
#1502 = ORIENTED_EDGE('',*,*,#865,.T.);
#1503 = CYLINDRICAL_SURFACE('',#1504,0.8);
#1504 = AXIS2_PLACEMENT_3D('',#1505,#1506,#1507);
#1505 = CARTESIAN_POINT('',(127.00025908051,-70.50014224028,-1.E-02));
#1506 = DIRECTION('',(-0.,-0.,-1.));
#1507 = DIRECTION('',(1.,0.,0.));
#1508 = ADVANCED_FACE('',(#1509),#1528,.F.);
#1509 = FACE_BOUND('',#1510,.T.);
#1510 = EDGE_LOOP('',(#1511,#1519,#1526,#1527));
#1511 = ORIENTED_EDGE('',*,*,#1512,.F.);
#1512 = EDGE_CURVE('',#1513,#877,#1515,.T.);
#1513 = VERTEX_POINT('',#1514);
#1514 = CARTESIAN_POINT('',(111.19385636271,-38.50008001016,-3.));
#1515 = LINE('',#1516,#1517);
#1516 = CARTESIAN_POINT('',(111.19385636271,-38.50008001016,-3.));
#1517 = VECTOR('',#1518,1.);
#1518 = DIRECTION('',(-0.707106781187,0.,-0.707106781187));
#1519 = ORIENTED_EDGE('',*,*,#1520,.T.);
#1520 = EDGE_CURVE('',#1513,#1513,#1521,.T.);
#1521 = CIRCLE('',#1522,6.7);
#1522 = AXIS2_PLACEMENT_3D('',#1523,#1524,#1525);
#1523 = CARTESIAN_POINT('',(104.49385636271,-38.50008001016,-3.));
#1524 = DIRECTION('',(0.,0.,1.));
#1525 = DIRECTION('',(1.,0.,0.));
#1526 = ORIENTED_EDGE('',*,*,#1512,.T.);
#1527 = ORIENTED_EDGE('',*,*,#876,.T.);
#1528 = CONICAL_SURFACE('',#1529,6.7,0.785398163397);
#1529 = AXIS2_PLACEMENT_3D('',#1530,#1531,#1532);
#1530 = CARTESIAN_POINT('',(104.49385636271,-38.50008001016,-3.));
#1531 = DIRECTION('',(0.,0.,1.));
#1532 = DIRECTION('',(1.,0.,0.));
#1533 = ADVANCED_FACE('',(#1534),#1553,.F.);
#1534 = FACE_BOUND('',#1535,.T.);
#1535 = EDGE_LOOP('',(#1536,#1544,#1551,#1552));
#1536 = ORIENTED_EDGE('',*,*,#1537,.F.);
#1537 = EDGE_CURVE('',#1538,#888,#1540,.T.);
#1538 = VERTEX_POINT('',#1539);
#1539 = CARTESIAN_POINT('',(23.800045720091,-6.500012700025,-1.E-02));
#1540 = LINE('',#1541,#1542);
#1541 = CARTESIAN_POINT('',(23.800045720091,-6.500012700025,-1.E-02));
#1542 = VECTOR('',#1543,1.);
#1543 = DIRECTION('',(-6.E-17,0.,-1.));
#1544 = ORIENTED_EDGE('',*,*,#1545,.T.);
#1545 = EDGE_CURVE('',#1538,#1538,#1546,.T.);
#1546 = CIRCLE('',#1547,0.8);
#1547 = AXIS2_PLACEMENT_3D('',#1548,#1549,#1550);
#1548 = CARTESIAN_POINT('',(23.000045720091,-6.500012700025,-1.E-02));
#1549 = DIRECTION('',(0.,0.,1.));
#1550 = DIRECTION('',(1.,0.,0.));
#1551 = ORIENTED_EDGE('',*,*,#1537,.T.);
#1552 = ORIENTED_EDGE('',*,*,#887,.T.);
#1553 = CYLINDRICAL_SURFACE('',#1554,0.8);
#1554 = AXIS2_PLACEMENT_3D('',#1555,#1556,#1557);
#1555 = CARTESIAN_POINT('',(23.000045720091,-6.500012700025,-1.E-02));
#1556 = DIRECTION('',(-0.,-0.,-1.));
#1557 = DIRECTION('',(1.,0.,0.));
#1558 = ADVANCED_FACE('',(#1559),#1578,.F.);
#1559 = FACE_BOUND('',#1560,.T.);
#1560 = EDGE_LOOP('',(#1561,#1569,#1576,#1577));
#1561 = ORIENTED_EDGE('',*,*,#1562,.F.);
#1562 = EDGE_CURVE('',#1563,#899,#1565,.T.);
#1563 = VERTEX_POINT('',#1564);
#1564 = CARTESIAN_POINT('',(127.80025908051,-6.500012700025,-1.E-02));
#1565 = LINE('',#1566,#1567);
#1566 = CARTESIAN_POINT('',(127.80025908051,-6.500012700025,-1.E-02));
#1567 = VECTOR('',#1568,1.);
#1568 = DIRECTION('',(-6.E-17,0.,-1.));
#1569 = ORIENTED_EDGE('',*,*,#1570,.T.);
#1570 = EDGE_CURVE('',#1563,#1563,#1571,.T.);
#1571 = CIRCLE('',#1572,0.8);
#1572 = AXIS2_PLACEMENT_3D('',#1573,#1574,#1575);
#1573 = CARTESIAN_POINT('',(127.00025908051,-6.500012700025,-1.E-02));
#1574 = DIRECTION('',(0.,0.,1.));
#1575 = DIRECTION('',(1.,0.,0.));
#1576 = ORIENTED_EDGE('',*,*,#1562,.T.);
#1577 = ORIENTED_EDGE('',*,*,#898,.T.);
#1578 = CYLINDRICAL_SURFACE('',#1579,0.8);
#1579 = AXIS2_PLACEMENT_3D('',#1580,#1581,#1582);
#1580 = CARTESIAN_POINT('',(127.00025908051,-6.500012700025,-1.E-02));
#1581 = DIRECTION('',(-0.,-0.,-1.));
#1582 = DIRECTION('',(1.,0.,0.));
#1583 = ADVANCED_FACE('',(#1584,#1605),#1616,.T.);
#1584 = FACE_BOUND('',#1585,.T.);
#1585 = EDGE_LOOP('',(#1586,#1587,#1596,#1603,#1604));
#1586 = ORIENTED_EDGE('',*,*,#1210,.F.);
#1587 = ORIENTED_EDGE('',*,*,#1588,.T.);
#1588 = EDGE_CURVE('',#1211,#1589,#1591,.T.);
#1589 = VERTEX_POINT('',#1590);
#1590 = CARTESIAN_POINT('',(122.9002565405,-70.50014224028,0.));
#1591 = CIRCLE('',#1592,4.100002540005);
#1592 = AXIS2_PLACEMENT_3D('',#1593,#1594,#1595);
#1593 = CARTESIAN_POINT('',(127.00025908051,-70.50014224028,0.));
#1594 = DIRECTION('',(0.,-0.,1.));
#1595 = DIRECTION('',(1.,1.E-16,0.));
#1596 = ORIENTED_EDGE('',*,*,#1597,.T.);
#1597 = EDGE_CURVE('',#1589,#935,#1598,.T.);
#1598 = CIRCLE('',#1599,4.100002540005);
#1599 = AXIS2_PLACEMENT_3D('',#1600,#1601,#1602);
#1600 = CARTESIAN_POINT('',(127.00025908051,-70.50014224028,0.));
#1601 = DIRECTION('',(0.,0.,1.));
#1602 = DIRECTION('',(-1.,-1.2E-16,0.));
#1603 = ORIENTED_EDGE('',*,*,#932,.F.);
#1604 = ORIENTED_EDGE('',*,*,#1248,.F.);
#1605 = FACE_BOUND('',#1606,.T.);
#1606 = EDGE_LOOP('',(#1607));
#1607 = ORIENTED_EDGE('',*,*,#1608,.F.);
#1608 = EDGE_CURVE('',#1609,#1609,#1611,.T.);
#1609 = VERTEX_POINT('',#1610);
#1610 = CARTESIAN_POINT('',(126.52525908051,-70.50014224028,0.));
#1611 = CIRCLE('',#1612,0.475);
#1612 = AXIS2_PLACEMENT_3D('',#1613,#1614,#1615);
#1613 = CARTESIAN_POINT('',(127.00025908051,-70.50014224028,0.));
#1614 = DIRECTION('',(0.,0.,1.));
#1615 = DIRECTION('',(-1.,0.,0.));
#1616 = PLANE('',#1617);
#1617 = AXIS2_PLACEMENT_3D('',#1618,#1619,#1620);
#1618 = CARTESIAN_POINT('',(75.0001524003,-38.50007747015,0.));
#1619 = DIRECTION('',(0.,0.,1.));
#1620 = DIRECTION('',(1.,0.,0.));
#1621 = ADVANCED_FACE('',(#1622),#1635,.T.);
#1622 = FACE_BOUND('',#1623,.T.);
#1623 = EDGE_LOOP('',(#1624,#1625,#1626,#1627,#1628));
#1624 = ORIENTED_EDGE('',*,*,#981,.T.);
#1625 = ORIENTED_EDGE('',*,*,#1597,.F.);
#1626 = ORIENTED_EDGE('',*,*,#1588,.F.);
#1627 = ORIENTED_EDGE('',*,*,#1218,.F.);
#1628 = ORIENTED_EDGE('',*,*,#1629,.T.);
#1629 = EDGE_CURVE('',#1219,#974,#1630,.T.);
#1630 = CIRCLE('',#1631,4.100002540005);
#1631 = AXIS2_PLACEMENT_3D('',#1632,#1633,#1634);
#1632 = CARTESIAN_POINT('',(127.00025908051,-70.50014224028,-3.));
#1633 = DIRECTION('',(0.,-0.,1.));
#1634 = DIRECTION('',(1.,1.E-16,0.));
#1635 = CYLINDRICAL_SURFACE('',#1636,4.100002540005);
#1636 = AXIS2_PLACEMENT_3D('',#1637,#1638,#1639);
#1637 = CARTESIAN_POINT('',(127.00025908051,-70.50014224028,0.));
#1638 = DIRECTION('',(0.,0.,1.));
#1639 = DIRECTION('',(1.,1.E-16,0.));
#1640 = ADVANCED_FACE('',(#1641,#1687,#1690),#1693,.T.);
#1641 = FACE_BOUND('',#1642,.T.);
#1642 = EDGE_LOOP('',(#1643,#1644,#1645,#1646,#1653,#1654,#1663,#1670,
    #1671,#1680));
#1643 = ORIENTED_EDGE('',*,*,#973,.F.);
#1644 = ORIENTED_EDGE('',*,*,#1629,.F.);
#1645 = ORIENTED_EDGE('',*,*,#1226,.F.);
#1646 = ORIENTED_EDGE('',*,*,#1647,.F.);
#1647 = EDGE_CURVE('',#1128,#1227,#1648,.T.);
#1648 = CIRCLE('',#1649,4.100002540005);
#1649 = AXIS2_PLACEMENT_3D('',#1650,#1651,#1652);
#1650 = CARTESIAN_POINT('',(127.00025908051,-6.500012700025,-3.));
#1651 = DIRECTION('',(0.,-0.,1.));
#1652 = DIRECTION('',(1.,1.E-16,0.));
#1653 = ORIENTED_EDGE('',*,*,#1135,.F.);
#1654 = ORIENTED_EDGE('',*,*,#1655,.F.);
#1655 = EDGE_CURVE('',#1656,#1136,#1658,.T.);
#1656 = VERTEX_POINT('',#1657);
#1657 = CARTESIAN_POINT('',(27.100048260096,-6.500012700025,-3.));
#1658 = CIRCLE('',#1659,4.100002540005);
#1659 = AXIS2_PLACEMENT_3D('',#1660,#1661,#1662);
#1660 = CARTESIAN_POINT('',(23.000045720091,-6.500012700025,-3.));
#1661 = DIRECTION('',(0.,-0.,1.));
#1662 = DIRECTION('',(1.,1.E-16,0.));
#1663 = ORIENTED_EDGE('',*,*,#1664,.F.);
#1664 = EDGE_CURVE('',#1047,#1656,#1665,.T.);
#1665 = CIRCLE('',#1666,4.100002540005);
#1666 = AXIS2_PLACEMENT_3D('',#1667,#1668,#1669);
#1667 = CARTESIAN_POINT('',(23.000045720091,-6.500012700025,-3.));
#1668 = DIRECTION('',(0.,-0.,1.));
#1669 = DIRECTION('',(1.,1.E-16,0.));
#1670 = ORIENTED_EDGE('',*,*,#1054,.F.);
#1671 = ORIENTED_EDGE('',*,*,#1672,.F.);
#1672 = EDGE_CURVE('',#1673,#1055,#1675,.T.);
#1673 = VERTEX_POINT('',#1674);
#1674 = CARTESIAN_POINT('',(27.100048260096,-70.50014224028,-3.));
#1675 = CIRCLE('',#1676,4.100002540005);
#1676 = AXIS2_PLACEMENT_3D('',#1677,#1678,#1679);
#1677 = CARTESIAN_POINT('',(23.000045720091,-70.50014224028,-3.));
#1678 = DIRECTION('',(0.,-0.,1.));
#1679 = DIRECTION('',(1.,1.E-16,0.));
#1680 = ORIENTED_EDGE('',*,*,#1681,.F.);
#1681 = EDGE_CURVE('',#966,#1673,#1682,.T.);
#1682 = CIRCLE('',#1683,4.100002540005);
#1683 = AXIS2_PLACEMENT_3D('',#1684,#1685,#1686);
#1684 = CARTESIAN_POINT('',(23.000045720091,-70.50014224028,-3.));
#1685 = DIRECTION('',(0.,-0.,1.));
#1686 = DIRECTION('',(1.,1.E-16,0.));
#1687 = FACE_BOUND('',#1688,.T.);
#1688 = EDGE_LOOP('',(#1689));
#1689 = ORIENTED_EDGE('',*,*,#1470,.F.);
#1690 = FACE_BOUND('',#1691,.T.);
#1691 = EDGE_LOOP('',(#1692));
#1692 = ORIENTED_EDGE('',*,*,#1520,.F.);
#1693 = PLANE('',#1694);
#1694 = AXIS2_PLACEMENT_3D('',#1695,#1696,#1697);
#1695 = CARTESIAN_POINT('',(75.000151130301,-38.50008001016,-3.));
#1696 = DIRECTION('',(0.,0.,1.));
#1697 = DIRECTION('',(1.,0.,0.));
#1698 = ADVANCED_FACE('',(#1699),#1721,.T.);
#1699 = FACE_BOUND('',#1700,.T.);
#1700 = EDGE_LOOP('',(#1701,#1702,#1703,#1712,#1719,#1720));
#1701 = ORIENTED_EDGE('',*,*,#1672,.T.);
#1702 = ORIENTED_EDGE('',*,*,#1062,.T.);
#1703 = ORIENTED_EDGE('',*,*,#1704,.F.);
#1704 = EDGE_CURVE('',#1705,#1021,#1707,.T.);
#1705 = VERTEX_POINT('',#1706);
#1706 = CARTESIAN_POINT('',(27.100048260096,-70.50014224028,0.));
#1707 = CIRCLE('',#1708,4.100002540005);
#1708 = AXIS2_PLACEMENT_3D('',#1709,#1710,#1711);
#1709 = CARTESIAN_POINT('',(23.000045720091,-70.50014224028,0.));
#1710 = DIRECTION('',(0.,-0.,1.));
#1711 = DIRECTION('',(1.,1.E-16,0.));
#1712 = ORIENTED_EDGE('',*,*,#1713,.F.);
#1713 = EDGE_CURVE('',#958,#1705,#1714,.T.);
#1714 = CIRCLE('',#1715,4.100002540005);
#1715 = AXIS2_PLACEMENT_3D('',#1716,#1717,#1718);
#1716 = CARTESIAN_POINT('',(23.000045720091,-70.50014224028,0.));
#1717 = DIRECTION('',(0.,0.,1.));
#1718 = DIRECTION('',(-1.,-1.2E-16,0.));
#1719 = ORIENTED_EDGE('',*,*,#965,.F.);
#1720 = ORIENTED_EDGE('',*,*,#1681,.T.);
#1721 = CYLINDRICAL_SURFACE('',#1722,4.100002540005);
#1722 = AXIS2_PLACEMENT_3D('',#1723,#1724,#1725);
#1723 = CARTESIAN_POINT('',(23.000045720091,-70.50014224028,0.));
#1724 = DIRECTION('',(0.,0.,1.));
#1725 = DIRECTION('',(1.,1.E-16,0.));
#1726 = ADVANCED_FACE('',(#1727,#1734),#1745,.T.);
#1727 = FACE_BOUND('',#1728,.T.);
#1728 = EDGE_LOOP('',(#1729,#1730,#1731,#1732,#1733));
#1729 = ORIENTED_EDGE('',*,*,#1713,.T.);
#1730 = ORIENTED_EDGE('',*,*,#1704,.T.);
#1731 = ORIENTED_EDGE('',*,*,#1020,.F.);
#1732 = ORIENTED_EDGE('',*,*,#995,.F.);
#1733 = ORIENTED_EDGE('',*,*,#957,.F.);
#1734 = FACE_BOUND('',#1735,.T.);
#1735 = EDGE_LOOP('',(#1736));
#1736 = ORIENTED_EDGE('',*,*,#1737,.F.);
#1737 = EDGE_CURVE('',#1738,#1738,#1740,.T.);
#1738 = VERTEX_POINT('',#1739);
#1739 = CARTESIAN_POINT('',(22.525045720091,-70.50014224028,0.));
#1740 = CIRCLE('',#1741,0.475);
#1741 = AXIS2_PLACEMENT_3D('',#1742,#1743,#1744);
#1742 = CARTESIAN_POINT('',(23.000045720091,-70.50014224028,0.));
#1743 = DIRECTION('',(0.,0.,1.));
#1744 = DIRECTION('',(-1.,0.,0.));
#1745 = PLANE('',#1746);
#1746 = AXIS2_PLACEMENT_3D('',#1747,#1748,#1749);
#1747 = CARTESIAN_POINT('',(75.0001524003,-38.50007747015,0.));
#1748 = DIRECTION('',(0.,0.,1.));
#1749 = DIRECTION('',(1.,0.,0.));
#1750 = ADVANCED_FACE('',(#1751),#1773,.T.);
#1751 = FACE_BOUND('',#1752,.T.);
#1752 = EDGE_LOOP('',(#1753,#1754,#1755,#1764,#1771,#1772));
#1753 = ORIENTED_EDGE('',*,*,#1655,.T.);
#1754 = ORIENTED_EDGE('',*,*,#1143,.T.);
#1755 = ORIENTED_EDGE('',*,*,#1756,.F.);
#1756 = EDGE_CURVE('',#1757,#1102,#1759,.T.);
#1757 = VERTEX_POINT('',#1758);
#1758 = CARTESIAN_POINT('',(27.100048260096,-6.500012700025,0.));
#1759 = CIRCLE('',#1760,4.100002540005);
#1760 = AXIS2_PLACEMENT_3D('',#1761,#1762,#1763);
#1761 = CARTESIAN_POINT('',(23.000045720091,-6.500012700025,0.));
#1762 = DIRECTION('',(0.,-0.,1.));
#1763 = DIRECTION('',(1.,1.E-16,0.));
#1764 = ORIENTED_EDGE('',*,*,#1765,.F.);
#1765 = EDGE_CURVE('',#1039,#1757,#1766,.T.);
#1766 = CIRCLE('',#1767,4.100002540005);
#1767 = AXIS2_PLACEMENT_3D('',#1768,#1769,#1770);
#1768 = CARTESIAN_POINT('',(23.000045720091,-6.500012700025,0.));
#1769 = DIRECTION('',(0.,0.,1.));
#1770 = DIRECTION('',(-1.,-1.2E-16,0.));
#1771 = ORIENTED_EDGE('',*,*,#1046,.F.);
#1772 = ORIENTED_EDGE('',*,*,#1664,.T.);
#1773 = CYLINDRICAL_SURFACE('',#1774,4.100002540005);
#1774 = AXIS2_PLACEMENT_3D('',#1775,#1776,#1777);
#1775 = CARTESIAN_POINT('',(23.000045720091,-6.500012700025,0.));
#1776 = DIRECTION('',(0.,0.,1.));
#1777 = DIRECTION('',(1.,1.E-16,0.));
#1778 = ADVANCED_FACE('',(#1779,#1786),#1797,.T.);
#1779 = FACE_BOUND('',#1780,.T.);
#1780 = EDGE_LOOP('',(#1781,#1782,#1783,#1784,#1785));
#1781 = ORIENTED_EDGE('',*,*,#1765,.T.);
#1782 = ORIENTED_EDGE('',*,*,#1756,.T.);
#1783 = ORIENTED_EDGE('',*,*,#1101,.F.);
#1784 = ORIENTED_EDGE('',*,*,#1076,.F.);
#1785 = ORIENTED_EDGE('',*,*,#1038,.F.);
#1786 = FACE_BOUND('',#1787,.T.);
#1787 = EDGE_LOOP('',(#1788));
#1788 = ORIENTED_EDGE('',*,*,#1789,.F.);
#1789 = EDGE_CURVE('',#1790,#1790,#1792,.T.);
#1790 = VERTEX_POINT('',#1791);
#1791 = CARTESIAN_POINT('',(22.525045720091,-6.500012700025,0.));
#1792 = CIRCLE('',#1793,0.475);
#1793 = AXIS2_PLACEMENT_3D('',#1794,#1795,#1796);
#1794 = CARTESIAN_POINT('',(23.000045720091,-6.500012700025,0.));
#1795 = DIRECTION('',(0.,0.,1.));
#1796 = DIRECTION('',(-1.,0.,0.));
#1797 = PLANE('',#1798);
#1798 = AXIS2_PLACEMENT_3D('',#1799,#1800,#1801);
#1799 = CARTESIAN_POINT('',(75.0001524003,-38.50007747015,0.));
#1800 = DIRECTION('',(0.,0.,1.));
#1801 = DIRECTION('',(1.,0.,0.));
#1802 = ADVANCED_FACE('',(#1803),#1824,.T.);
#1803 = FACE_BOUND('',#1804,.T.);
#1804 = EDGE_LOOP('',(#1805,#1806,#1815,#1822,#1823));
#1805 = ORIENTED_EDGE('',*,*,#1234,.T.);
#1806 = ORIENTED_EDGE('',*,*,#1807,.F.);
#1807 = EDGE_CURVE('',#1808,#1193,#1810,.T.);
#1808 = VERTEX_POINT('',#1809);
#1809 = CARTESIAN_POINT('',(122.9002565405,-6.500012700025,0.));
#1810 = CIRCLE('',#1811,4.100002540005);
#1811 = AXIS2_PLACEMENT_3D('',#1812,#1813,#1814);
#1812 = CARTESIAN_POINT('',(127.00025908051,-6.500012700025,0.));
#1813 = DIRECTION('',(0.,0.,1.));
#1814 = DIRECTION('',(-1.,-1.2E-16,0.));
#1815 = ORIENTED_EDGE('',*,*,#1816,.F.);
#1816 = EDGE_CURVE('',#1120,#1808,#1817,.T.);
#1817 = CIRCLE('',#1818,4.100002540005);
#1818 = AXIS2_PLACEMENT_3D('',#1819,#1820,#1821);
#1819 = CARTESIAN_POINT('',(127.00025908051,-6.500012700025,0.));
#1820 = DIRECTION('',(0.,-0.,1.));
#1821 = DIRECTION('',(1.,1.E-16,0.));
#1822 = ORIENTED_EDGE('',*,*,#1127,.F.);
#1823 = ORIENTED_EDGE('',*,*,#1647,.T.);
#1824 = CYLINDRICAL_SURFACE('',#1825,4.100002540005);
#1825 = AXIS2_PLACEMENT_3D('',#1826,#1827,#1828);
#1826 = CARTESIAN_POINT('',(127.00025908051,-6.500012700025,0.));
#1827 = DIRECTION('',(0.,0.,1.));
#1828 = DIRECTION('',(1.,1.E-16,0.));
#1829 = ADVANCED_FACE('',(#1830,#1837),#1848,.T.);
#1830 = FACE_BOUND('',#1831,.T.);
#1831 = EDGE_LOOP('',(#1832,#1833,#1834,#1835,#1836));
#1832 = ORIENTED_EDGE('',*,*,#1119,.F.);
#1833 = ORIENTED_EDGE('',*,*,#1816,.T.);
#1834 = ORIENTED_EDGE('',*,*,#1807,.T.);
#1835 = ORIENTED_EDGE('',*,*,#1192,.F.);
#1836 = ORIENTED_EDGE('',*,*,#1167,.F.);
#1837 = FACE_BOUND('',#1838,.T.);
#1838 = EDGE_LOOP('',(#1839));
#1839 = ORIENTED_EDGE('',*,*,#1840,.F.);
#1840 = EDGE_CURVE('',#1841,#1841,#1843,.T.);
#1841 = VERTEX_POINT('',#1842);
#1842 = CARTESIAN_POINT('',(126.52525908051,-6.500012700025,0.));
#1843 = CIRCLE('',#1844,0.475);
#1844 = AXIS2_PLACEMENT_3D('',#1845,#1846,#1847);
#1845 = CARTESIAN_POINT('',(127.00025908051,-6.500012700025,0.));
#1846 = DIRECTION('',(0.,0.,1.));
#1847 = DIRECTION('',(-1.,0.,0.));
#1848 = PLANE('',#1849);
#1849 = AXIS2_PLACEMENT_3D('',#1850,#1851,#1852);
#1850 = CARTESIAN_POINT('',(75.0001524003,-38.50007747015,0.));
#1851 = DIRECTION('',(0.,0.,1.));
#1852 = DIRECTION('',(1.,0.,0.));
#1853 = ADVANCED_FACE('',(#1854,#1857),#1868,.F.);
#1854 = FACE_BOUND('',#1855,.T.);
#1855 = EDGE_LOOP('',(#1856));
#1856 = ORIENTED_EDGE('',*,*,#1445,.F.);
#1857 = FACE_BOUND('',#1858,.T.);
#1858 = EDGE_LOOP('',(#1859));
#1859 = ORIENTED_EDGE('',*,*,#1860,.F.);
#1860 = EDGE_CURVE('',#1861,#1861,#1863,.T.);
#1861 = VERTEX_POINT('',#1862);
#1862 = CARTESIAN_POINT('',(22.525045720091,-70.50014224028,-1.E-02));
#1863 = CIRCLE('',#1864,0.475);
#1864 = AXIS2_PLACEMENT_3D('',#1865,#1866,#1867);
#1865 = CARTESIAN_POINT('',(23.000045720091,-70.50014224028,-1.E-02));
#1866 = DIRECTION('',(0.,0.,-1.));
#1867 = DIRECTION('',(-1.,0.,0.));
#1868 = PLANE('',#1869);
#1869 = AXIS2_PLACEMENT_3D('',#1870,#1871,#1872);
#1870 = CARTESIAN_POINT('',(23.000045720091,-70.50014224028,-1.E-02));
#1871 = DIRECTION('',(0.,0.,1.));
#1872 = DIRECTION('',(1.,0.,0.));
#1873 = ADVANCED_FACE('',(#1874,#1877),#1888,.F.);
#1874 = FACE_BOUND('',#1875,.T.);
#1875 = EDGE_LOOP('',(#1876));
#1876 = ORIENTED_EDGE('',*,*,#1495,.F.);
#1877 = FACE_BOUND('',#1878,.T.);
#1878 = EDGE_LOOP('',(#1879));
#1879 = ORIENTED_EDGE('',*,*,#1880,.F.);
#1880 = EDGE_CURVE('',#1881,#1881,#1883,.T.);
#1881 = VERTEX_POINT('',#1882);
#1882 = CARTESIAN_POINT('',(126.52525908051,-70.50014224028,-1.E-02));
#1883 = CIRCLE('',#1884,0.475);
#1884 = AXIS2_PLACEMENT_3D('',#1885,#1886,#1887);
#1885 = CARTESIAN_POINT('',(127.00025908051,-70.50014224028,-1.E-02));
#1886 = DIRECTION('',(0.,0.,-1.));
#1887 = DIRECTION('',(-1.,0.,0.));
#1888 = PLANE('',#1889);
#1889 = AXIS2_PLACEMENT_3D('',#1890,#1891,#1892);
#1890 = CARTESIAN_POINT('',(127.00025908051,-70.50014224028,-1.E-02));
#1891 = DIRECTION('',(0.,0.,1.));
#1892 = DIRECTION('',(1.,0.,0.));
#1893 = ADVANCED_FACE('',(#1894,#1897),#1908,.F.);
#1894 = FACE_BOUND('',#1895,.T.);
#1895 = EDGE_LOOP('',(#1896));
#1896 = ORIENTED_EDGE('',*,*,#1545,.F.);
#1897 = FACE_BOUND('',#1898,.T.);
#1898 = EDGE_LOOP('',(#1899));
#1899 = ORIENTED_EDGE('',*,*,#1900,.F.);
#1900 = EDGE_CURVE('',#1901,#1901,#1903,.T.);
#1901 = VERTEX_POINT('',#1902);
#1902 = CARTESIAN_POINT('',(22.525045720091,-6.500012700025,-1.E-02));
#1903 = CIRCLE('',#1904,0.475);
#1904 = AXIS2_PLACEMENT_3D('',#1905,#1906,#1907);
#1905 = CARTESIAN_POINT('',(23.000045720091,-6.500012700025,-1.E-02));
#1906 = DIRECTION('',(0.,0.,-1.));
#1907 = DIRECTION('',(-1.,0.,0.));
#1908 = PLANE('',#1909);
#1909 = AXIS2_PLACEMENT_3D('',#1910,#1911,#1912);
#1910 = CARTESIAN_POINT('',(23.000045720091,-6.500012700025,-1.E-02));
#1911 = DIRECTION('',(0.,0.,1.));
#1912 = DIRECTION('',(1.,0.,0.));
#1913 = ADVANCED_FACE('',(#1914,#1917),#1928,.F.);
#1914 = FACE_BOUND('',#1915,.T.);
#1915 = EDGE_LOOP('',(#1916));
#1916 = ORIENTED_EDGE('',*,*,#1570,.F.);
#1917 = FACE_BOUND('',#1918,.T.);
#1918 = EDGE_LOOP('',(#1919));
#1919 = ORIENTED_EDGE('',*,*,#1920,.F.);
#1920 = EDGE_CURVE('',#1921,#1921,#1923,.T.);
#1921 = VERTEX_POINT('',#1922);
#1922 = CARTESIAN_POINT('',(126.52525908051,-6.500012700025,-1.E-02));
#1923 = CIRCLE('',#1924,0.475);
#1924 = AXIS2_PLACEMENT_3D('',#1925,#1926,#1927);
#1925 = CARTESIAN_POINT('',(127.00025908051,-6.500012700025,-1.E-02));
#1926 = DIRECTION('',(0.,0.,-1.));
#1927 = DIRECTION('',(-1.,0.,0.));
#1928 = PLANE('',#1929);
#1929 = AXIS2_PLACEMENT_3D('',#1930,#1931,#1932);
#1930 = CARTESIAN_POINT('',(127.00025908051,-6.500012700025,-1.E-02));
#1931 = DIRECTION('',(0.,0.,1.));
#1932 = DIRECTION('',(1.,0.,0.));
#1933 = ADVANCED_FACE('',(#1934),#1945,.F.);
#1934 = FACE_BOUND('',#1935,.T.);
#1935 = EDGE_LOOP('',(#1936,#1942,#1943,#1944));
#1936 = ORIENTED_EDGE('',*,*,#1937,.F.);
#1937 = EDGE_CURVE('',#1881,#1609,#1938,.T.);
#1938 = LINE('',#1939,#1940);
#1939 = CARTESIAN_POINT('',(126.52525908051,-70.50014224028,-1.E-02));
#1940 = VECTOR('',#1941,1.);
#1941 = DIRECTION('',(6.E-17,0.,1.));
#1942 = ORIENTED_EDGE('',*,*,#1880,.T.);
#1943 = ORIENTED_EDGE('',*,*,#1937,.T.);
#1944 = ORIENTED_EDGE('',*,*,#1608,.T.);
#1945 = CYLINDRICAL_SURFACE('',#1946,0.475);
#1946 = AXIS2_PLACEMENT_3D('',#1947,#1948,#1949);
#1947 = CARTESIAN_POINT('',(127.00025908051,-70.50014224028,-1.E-02));
#1948 = DIRECTION('',(0.,0.,1.));
#1949 = DIRECTION('',(-1.,0.,0.));
#1950 = ADVANCED_FACE('',(#1951),#1962,.F.);
#1951 = FACE_BOUND('',#1952,.T.);
#1952 = EDGE_LOOP('',(#1953,#1959,#1960,#1961));
#1953 = ORIENTED_EDGE('',*,*,#1954,.F.);
#1954 = EDGE_CURVE('',#1861,#1738,#1955,.T.);
#1955 = LINE('',#1956,#1957);
#1956 = CARTESIAN_POINT('',(22.525045720091,-70.50014224028,-1.E-02));
#1957 = VECTOR('',#1958,1.);
#1958 = DIRECTION('',(6.E-17,0.,1.));
#1959 = ORIENTED_EDGE('',*,*,#1860,.T.);
#1960 = ORIENTED_EDGE('',*,*,#1954,.T.);
#1961 = ORIENTED_EDGE('',*,*,#1737,.T.);
#1962 = CYLINDRICAL_SURFACE('',#1963,0.475);
#1963 = AXIS2_PLACEMENT_3D('',#1964,#1965,#1966);
#1964 = CARTESIAN_POINT('',(23.000045720091,-70.50014224028,-1.E-02));
#1965 = DIRECTION('',(0.,0.,1.));
#1966 = DIRECTION('',(-1.,0.,0.));
#1967 = ADVANCED_FACE('',(#1968),#1979,.F.);
#1968 = FACE_BOUND('',#1969,.T.);
#1969 = EDGE_LOOP('',(#1970,#1976,#1977,#1978));
#1970 = ORIENTED_EDGE('',*,*,#1971,.F.);
#1971 = EDGE_CURVE('',#1901,#1790,#1972,.T.);
#1972 = LINE('',#1973,#1974);
#1973 = CARTESIAN_POINT('',(22.525045720091,-6.500012700025,-1.E-02));
#1974 = VECTOR('',#1975,1.);
#1975 = DIRECTION('',(6.E-17,0.,1.));
#1976 = ORIENTED_EDGE('',*,*,#1900,.T.);
#1977 = ORIENTED_EDGE('',*,*,#1971,.T.);
#1978 = ORIENTED_EDGE('',*,*,#1789,.T.);
#1979 = CYLINDRICAL_SURFACE('',#1980,0.475);
#1980 = AXIS2_PLACEMENT_3D('',#1981,#1982,#1983);
#1981 = CARTESIAN_POINT('',(23.000045720091,-6.500012700025,-1.E-02));
#1982 = DIRECTION('',(0.,0.,1.));
#1983 = DIRECTION('',(-1.,0.,0.));
#1984 = ADVANCED_FACE('',(#1985),#1996,.F.);
#1985 = FACE_BOUND('',#1986,.T.);
#1986 = EDGE_LOOP('',(#1987,#1993,#1994,#1995));
#1987 = ORIENTED_EDGE('',*,*,#1988,.F.);
#1988 = EDGE_CURVE('',#1921,#1841,#1989,.T.);
#1989 = LINE('',#1990,#1991);
#1990 = CARTESIAN_POINT('',(126.52525908051,-6.500012700025,-1.E-02));
#1991 = VECTOR('',#1992,1.);
#1992 = DIRECTION('',(6.E-17,0.,1.));
#1993 = ORIENTED_EDGE('',*,*,#1920,.T.);
#1994 = ORIENTED_EDGE('',*,*,#1988,.T.);
#1995 = ORIENTED_EDGE('',*,*,#1840,.T.);
#1996 = CYLINDRICAL_SURFACE('',#1997,0.475);
#1997 = AXIS2_PLACEMENT_3D('',#1998,#1999,#2000);
#1998 = CARTESIAN_POINT('',(127.00025908051,-6.500012700025,-1.E-02));
#1999 = DIRECTION('',(0.,0.,1.));
#2000 = DIRECTION('',(-1.,0.,0.));
#2001 = ( GEOMETRIC_REPRESENTATION_CONTEXT(3) 
GLOBAL_UNCERTAINTY_ASSIGNED_CONTEXT((#2005)) 
GLOBAL_UNIT_ASSIGNED_CONTEXT((#2002,#2003,#2004)) REPRESENTATION_CONTEXT
('Context #1','3D Context with UNIT and UNCERTAINTY') );
#2002 = ( LENGTH_UNIT() NAMED_UNIT(*) SI_UNIT(.MILLI.,.METRE.) );
#2003 = ( NAMED_UNIT(*) PLANE_ANGLE_UNIT() SI_UNIT($,.RADIAN.) );
#2004 = ( NAMED_UNIT(*) SI_UNIT($,.STERADIAN.) SOLID_ANGLE_UNIT() );
#2005 = UNCERTAINTY_MEASURE_WITH_UNIT(LENGTH_MEASURE(2.E-05),#2002,
  'distance_accuracy_value','confusion accuracy');
#2006 = PRODUCT_RELATED_PRODUCT_CATEGORY('part',$,(#7));
#2007 = MECHANICAL_DESIGN_GEOMETRIC_PRESENTATION_REPRESENTATION('',(
    #2008),#2001);
#2008 = STYLED_ITEM('color',(#2009),#15);
#2009 = PRESENTATION_STYLE_ASSIGNMENT((#2010,#2018));
#2010 = SURFACE_STYLE_USAGE(.BOTH.,#2011);
#2011 = SURFACE_SIDE_STYLE('',(#2012,#2016));
#2012 = SURFACE_STYLE_FILL_AREA(#2013);
#2013 = FILL_AREA_STYLE('',(#2014));
#2014 = FILL_AREA_STYLE_COLOUR('',#2015);
#2015 = COLOUR_RGB('',0.254901970902,0.607843164819,0.235294113866);
#2016 = SURFACE_STYLE_RENDERING_WITH_PROPERTIES(.NORMAL_SHADING.,#2015,(
    #2017));
#2017 = SURFACE_STYLE_TRANSPARENT(0.699999988079);
#2018 = CURVE_STYLE('',#2019,POSITIVE_LENGTH_MEASURE(0.1),#2020);
#2019 = DRAUGHTING_PRE_DEFINED_CURVE_FONT('continuous');
#2020 = COLOUR_RGB('',9.803921802644E-02,9.803921802644E-02,
  9.803921802644E-02);
ENDSEC;
END-ISO-10303-21;
