ISO-10303-21;
HEADER;
FILE_DESCRIPTION(('FreeCAD Model'),'2;1');
FILE_NAME('Open CASCADE Shape Model','2026-09-28T08:42:44',(''),(''),
  'Open CASCADE STEP processor 7.8','FreeCAD','Unknown');
FILE_SCHEMA(('AUTOMOTIVE_DESIGN { 1 0 10303 214 1 1 1 1 }'));
ENDSEC;
DATA;
#1 = APPLICATION_PROTOCOL_DEFINITION('international standard',
  'automotive_design',2000,#2);
#2 = APPLICATION_CONTEXT(
  'core data for automotive mechanical design processes');
#3 = SHAPE_DEFINITION_REPRESENTATION(#4,#10);
#4 = PRODUCT_DEFINITION_SHAPE('','',#5);
#5 = PRODUCT_DEFINITION('design','',#6,#9);
#6 = PRODUCT_DEFINITION_FORMATION('','',#7);
#7 = PRODUCT('top','top','',(#8));
#8 = PRODUCT_CONTEXT('',#2,'mechanical');
#9 = PRODUCT_DEFINITION_CONTEXT('part definition',#2,'design');
#10 = ADVANCED_BREP_SHAPE_REPRESENTATION('',(#11,#15),#1285);
#11 = AXIS2_PLACEMENT_3D('',#12,#13,#14);
#12 = CARTESIAN_POINT('',(0.,0.,0.));
#13 = DIRECTION('',(0.,0.,1.));
#14 = DIRECTION('',(1.,0.,-0.));
#15 = MANIFOLD_SOLID_BREP('',#16);
#16 = CLOSED_SHELL('',(#17,#171,#202,#226,#250,#267,#298,#323,#348,#372,
    #396,#421,#446,#463,#488,#513,#538,#563,#594,#618,#642,#659,#690,
    #715,#740,#764,#788,#813,#838,#855,#875,#895,#915,#935,#1001,#1026,
    #1051,#1076,#1101,#1134,#1167,#1200,#1233,#1246,#1259,#1272));
#17 = ADVANCED_FACE('',(#18,#52,#122,#133,#144,#155),#166,.T.);
#18 = FACE_BOUND('',#19,.T.);
#19 = EDGE_LOOP('',(#20,#30,#38,#46));
#20 = ORIENTED_EDGE('',*,*,#21,.F.);
#21 = EDGE_CURVE('',#22,#24,#26,.T.);
#22 = VERTEX_POINT('',#23);
#23 = CARTESIAN_POINT('',(48.5950846,-67.692307,14.));
#24 = VERTEX_POINT('',#25);
#25 = CARTESIAN_POINT('',(125.7953,-67.692307,14.));
#26 = LINE('',#27,#28);
#27 = CARTESIAN_POINT('',(49.0950846,-67.692307,14.));
#28 = VECTOR('',#29,1.);
#29 = DIRECTION('',(1.,0.,0.));
#30 = ORIENTED_EDGE('',*,*,#31,.F.);
#31 = EDGE_CURVE('',#32,#22,#34,.T.);
#32 = VERTEX_POINT('',#33);
#33 = CARTESIAN_POINT('',(48.5950846,-9.5425,14.));
#34 = LINE('',#35,#36);
#35 = CARTESIAN_POINT('',(48.5950846,-10.0425,14.));
#36 = VECTOR('',#37,1.);
#37 = DIRECTION('',(0.,-1.,0.));
#38 = ORIENTED_EDGE('',*,*,#39,.F.);
#39 = EDGE_CURVE('',#40,#32,#42,.T.);
#40 = VERTEX_POINT('',#41);
#41 = CARTESIAN_POINT('',(125.7953,-9.5425,14.));
#42 = LINE('',#43,#44);
#43 = CARTESIAN_POINT('',(125.2953,-9.5425,14.));
#44 = VECTOR('',#45,1.);
#45 = DIRECTION('',(-1.,0.,0.));
#46 = ORIENTED_EDGE('',*,*,#47,.F.);
#47 = EDGE_CURVE('',#24,#40,#48,.T.);
#48 = LINE('',#49,#50);
#49 = CARTESIAN_POINT('',(125.7953,-67.192307,14.));
#50 = VECTOR('',#51,1.);
#51 = DIRECTION('',(0.,1.,0.));
#52 = FACE_BOUND('',#53,.T.);
#53 = EDGE_LOOP('',(#54,#64,#73,#81,#90,#98,#107,#115));
#54 = ORIENTED_EDGE('',*,*,#55,.T.);
#55 = EDGE_CURVE('',#56,#58,#60,.T.);
#56 = VERTEX_POINT('',#57);
#57 = CARTESIAN_POINT('',(23.000045720091,-76.9874498349,14.));
#58 = VERTEX_POINT('',#59);
#59 = CARTESIAN_POINT('',(127.00025654051,-76.9874498349,14.));
#60 = LINE('',#61,#62);
#61 = CARTESIAN_POINT('',(23.000045720091,-76.9874498349,14.));
#62 = VECTOR('',#63,1.);
#63 = DIRECTION('',(1.,1.4E-16,0.));
#64 = ORIENTED_EDGE('',*,*,#65,.T.);
#65 = EDGE_CURVE('',#58,#66,#68,.T.);
#66 = VERTEX_POINT('',#67);
#67 = CARTESIAN_POINT('',(133.48756159512,-70.50014478029,14.));
#68 = CIRCLE('',#69,6.48730505461);
#69 = AXIS2_PLACEMENT_3D('',#70,#71,#72);
#70 = CARTESIAN_POINT('',(127.00025654051,-70.50014478029,14.));
#71 = DIRECTION('',(-0.,0.,1.));
#72 = DIRECTION('',(0.,-1.,0.));
#73 = ORIENTED_EDGE('',*,*,#74,.T.);
#74 = EDGE_CURVE('',#66,#75,#77,.T.);
#75 = VERTEX_POINT('',#76);
#76 = CARTESIAN_POINT('',(133.48756159512,-6.50001524003,14.));
#77 = LINE('',#78,#79);
#78 = CARTESIAN_POINT('',(133.48756159512,-70.50014478029,14.));
#79 = VECTOR('',#80,1.);
#80 = DIRECTION('',(0.,1.,0.));
#81 = ORIENTED_EDGE('',*,*,#82,.T.);
#82 = EDGE_CURVE('',#75,#83,#85,.T.);
#83 = VERTEX_POINT('',#84);
#84 = CARTESIAN_POINT('',(127.00025654051,-1.271018542E-02,14.));
#85 = CIRCLE('',#86,6.48730505461);
#86 = AXIS2_PLACEMENT_3D('',#87,#88,#89);
#87 = CARTESIAN_POINT('',(127.00025654051,-6.50001524003,14.));
#88 = DIRECTION('',(-0.,0.,1.));
#89 = DIRECTION('',(1.,-2.5E-16,0.));
#90 = ORIENTED_EDGE('',*,*,#91,.T.);
#91 = EDGE_CURVE('',#83,#92,#94,.T.);
#92 = VERTEX_POINT('',#93);
#93 = CARTESIAN_POINT('',(23.000045720091,-1.271018542E-02,14.));
#94 = LINE('',#95,#96);
#95 = CARTESIAN_POINT('',(127.00025654051,-1.271018542E-02,14.));
#96 = VECTOR('',#97,1.);
#97 = DIRECTION('',(-1.,1.E-17,0.));
#98 = ORIENTED_EDGE('',*,*,#99,.T.);
#99 = EDGE_CURVE('',#92,#100,#102,.T.);
#100 = VERTEX_POINT('',#101);
#101 = CARTESIAN_POINT('',(16.512740665481,-6.50001524003,14.));
#102 = CIRCLE('',#103,6.48730505461);
#103 = AXIS2_PLACEMENT_3D('',#104,#105,#106);
#104 = CARTESIAN_POINT('',(23.000045720091,-6.50001524003,14.));
#105 = DIRECTION('',(0.,0.,1.));
#106 = DIRECTION('',(-1.02E-15,1.,0.));
#107 = ORIENTED_EDGE('',*,*,#108,.T.);
#108 = EDGE_CURVE('',#100,#109,#111,.T.);
#109 = VERTEX_POINT('',#110);
#110 = CARTESIAN_POINT('',(16.512740665481,-70.50014478029,14.));
#111 = LINE('',#112,#113);
#112 = CARTESIAN_POINT('',(16.512740665481,-6.50001524003,14.));
#113 = VECTOR('',#114,1.);
#114 = DIRECTION('',(1.7E-16,-1.,0.));
#115 = ORIENTED_EDGE('',*,*,#116,.T.);
#116 = EDGE_CURVE('',#109,#56,#117,.T.);
#117 = CIRCLE('',#118,6.48730505461);
#118 = AXIS2_PLACEMENT_3D('',#119,#120,#121);
#119 = CARTESIAN_POINT('',(23.000045720091,-70.50014478029,14.));
#120 = DIRECTION('',(0.,0.,1.));
#121 = DIRECTION('',(-1.,0.,0.));
#122 = FACE_BOUND('',#123,.T.);
#123 = EDGE_LOOP('',(#124));
#124 = ORIENTED_EDGE('',*,*,#125,.F.);
#125 = EDGE_CURVE('',#126,#126,#128,.T.);
#126 = VERTEX_POINT('',#127);
#127 = CARTESIAN_POINT('',(25.14996414142,-70.50014224028,14.));
#128 = CIRCLE('',#129,2.15);
#129 = AXIS2_PLACEMENT_3D('',#130,#131,#132);
#130 = CARTESIAN_POINT('',(22.99996414142,-70.50014224028,14.));
#131 = DIRECTION('',(0.,0.,1.));
#132 = DIRECTION('',(1.,0.,0.));
#133 = FACE_BOUND('',#134,.T.);
#134 = EDGE_LOOP('',(#135));
#135 = ORIENTED_EDGE('',*,*,#136,.F.);
#136 = EDGE_CURVE('',#137,#137,#139,.T.);
#137 = VERTEX_POINT('',#138);
#138 = CARTESIAN_POINT('',(129.15017749184,-70.50014224028,14.));
#139 = CIRCLE('',#140,2.15);
#140 = AXIS2_PLACEMENT_3D('',#141,#142,#143);
#141 = CARTESIAN_POINT('',(127.00017749184,-70.50014224028,14.));
#142 = DIRECTION('',(0.,0.,1.));
#143 = DIRECTION('',(1.,0.,0.));
#144 = FACE_BOUND('',#145,.T.);
#145 = EDGE_LOOP('',(#146));
#146 = ORIENTED_EDGE('',*,*,#147,.F.);
#147 = EDGE_CURVE('',#148,#148,#150,.T.);
#148 = VERTEX_POINT('',#149);
#149 = CARTESIAN_POINT('',(25.058919987803,-6.500012700025,14.));
#150 = CIRCLE('',#151,2.15);
#151 = AXIS2_PLACEMENT_3D('',#152,#153,#154);
#152 = CARTESIAN_POINT('',(22.908919987803,-6.500012700025,14.));
#153 = DIRECTION('',(0.,0.,1.));
#154 = DIRECTION('',(1.,0.,0.));
#155 = FACE_BOUND('',#156,.T.);
#156 = EDGE_LOOP('',(#157));
#157 = ORIENTED_EDGE('',*,*,#158,.F.);
#158 = EDGE_CURVE('',#159,#159,#161,.T.);
#159 = VERTEX_POINT('',#160);
#160 = CARTESIAN_POINT('',(129.15017748184,-6.500012700025,14.));
#161 = CIRCLE('',#162,2.15);
#162 = AXIS2_PLACEMENT_3D('',#163,#164,#165);
#163 = CARTESIAN_POINT('',(127.00017748184,-6.500012700025,14.));
#164 = DIRECTION('',(0.,0.,1.));
#165 = DIRECTION('',(1.,0.,0.));
#166 = PLANE('',#167);
#167 = AXIS2_PLACEMENT_3D('',#168,#169,#170);
#168 = CARTESIAN_POINT('',(75.0001511303,-38.50008001016,14.));
#169 = DIRECTION('',(0.,0.,1.));
#170 = DIRECTION('',(1.,0.,0.));
#171 = ADVANCED_FACE('',(#172),#197,.F.);
#172 = FACE_BOUND('',#173,.T.);
#173 = EDGE_LOOP('',(#174,#182,#183,#191));
#174 = ORIENTED_EDGE('',*,*,#175,.F.);
#175 = EDGE_CURVE('',#22,#176,#178,.T.);
#176 = VERTEX_POINT('',#177);
#177 = CARTESIAN_POINT('',(49.0950846,-67.192307,13.5));
#178 = LINE('',#179,#180);
#179 = CARTESIAN_POINT('',(58.453385766667,-57.83400583333,
    4.141698833333));
#180 = VECTOR('',#181,1.);
#181 = DIRECTION('',(0.57735026919,0.57735026919,-0.57735026919));
#182 = ORIENTED_EDGE('',*,*,#21,.T.);
#183 = ORIENTED_EDGE('',*,*,#184,.T.);
#184 = EDGE_CURVE('',#24,#185,#187,.T.);
#185 = VERTEX_POINT('',#186);
#186 = CARTESIAN_POINT('',(125.2953,-67.192307,13.5));
#187 = LINE('',#188,#189);
#188 = CARTESIAN_POINT('',(112.76193076666,-54.65893776666,
    0.966630766667));
#189 = VECTOR('',#190,1.);
#190 = DIRECTION('',(-0.57735026919,0.57735026919,-0.57735026919));
#191 = ORIENTED_EDGE('',*,*,#192,.F.);
#192 = EDGE_CURVE('',#176,#185,#193,.T.);
#193 = LINE('',#194,#195);
#194 = CARTESIAN_POINT('',(49.0950846,-67.192307,13.5));
#195 = VECTOR('',#196,1.);
#196 = DIRECTION('',(1.,0.,0.));
#197 = PLANE('',#198);
#198 = AXIS2_PLACEMENT_3D('',#199,#200,#201);
#199 = CARTESIAN_POINT('',(49.0950846,-67.442307,13.75));
#200 = DIRECTION('',(0.,-0.707106781187,-0.707106781187));
#201 = DIRECTION('',(-1.,-0.,-0.));
#202 = ADVANCED_FACE('',(#203),#221,.F.);
#203 = FACE_BOUND('',#204,.T.);
#204 = EDGE_LOOP('',(#205,#213,#214,#215));
#205 = ORIENTED_EDGE('',*,*,#206,.F.);
#206 = EDGE_CURVE('',#32,#207,#209,.T.);
#207 = VERTEX_POINT('',#208);
#208 = CARTESIAN_POINT('',(49.0950846,-10.0425,13.5));
#209 = LINE('',#210,#211);
#210 = CARTESIAN_POINT('',(61.628453833333,-22.57586923333,
    0.966630766667));
#211 = VECTOR('',#212,1.);
#212 = DIRECTION('',(0.57735026919,-0.57735026919,-0.57735026919));
#213 = ORIENTED_EDGE('',*,*,#31,.T.);
#214 = ORIENTED_EDGE('',*,*,#175,.T.);
#215 = ORIENTED_EDGE('',*,*,#216,.F.);
#216 = EDGE_CURVE('',#207,#176,#217,.T.);
#217 = LINE('',#218,#219);
#218 = CARTESIAN_POINT('',(49.0950846,-10.0425,13.5));
#219 = VECTOR('',#220,1.);
#220 = DIRECTION('',(0.,-1.,0.));
#221 = PLANE('',#222);
#222 = AXIS2_PLACEMENT_3D('',#223,#224,#225);
#223 = CARTESIAN_POINT('',(48.8450846,-10.0425,13.75));
#224 = DIRECTION('',(-0.707106781187,0.,-0.707106781187));
#225 = DIRECTION('',(-0.,1.,0.));
#226 = ADVANCED_FACE('',(#227),#245,.F.);
#227 = FACE_BOUND('',#228,.T.);
#228 = EDGE_LOOP('',(#229,#230,#231,#239));
#229 = ORIENTED_EDGE('',*,*,#184,.F.);
#230 = ORIENTED_EDGE('',*,*,#47,.T.);
#231 = ORIENTED_EDGE('',*,*,#232,.T.);
#232 = EDGE_CURVE('',#40,#233,#235,.T.);
#233 = VERTEX_POINT('',#234);
#234 = CARTESIAN_POINT('',(125.2953,-10.0425,13.5));
#235 = LINE('',#236,#237);
#236 = CARTESIAN_POINT('',(115.93699883333,-19.40080116666,
    4.141698833333));
#237 = VECTOR('',#238,1.);
#238 = DIRECTION('',(-0.57735026919,-0.57735026919,-0.57735026919));
#239 = ORIENTED_EDGE('',*,*,#240,.F.);
#240 = EDGE_CURVE('',#185,#233,#241,.T.);
#241 = LINE('',#242,#243);
#242 = CARTESIAN_POINT('',(125.2953,-67.192307,13.5));
#243 = VECTOR('',#244,1.);
#244 = DIRECTION('',(0.,1.,0.));
#245 = PLANE('',#246);
#246 = AXIS2_PLACEMENT_3D('',#247,#248,#249);
#247 = CARTESIAN_POINT('',(125.5453,-67.192307,13.75));
#248 = DIRECTION('',(0.707106781187,0.,-0.707106781187));
#249 = DIRECTION('',(-0.,-1.,-0.));
#250 = ADVANCED_FACE('',(#251),#262,.F.);
#251 = FACE_BOUND('',#252,.T.);
#252 = EDGE_LOOP('',(#253,#254,#255,#256));
#253 = ORIENTED_EDGE('',*,*,#232,.F.);
#254 = ORIENTED_EDGE('',*,*,#39,.T.);
#255 = ORIENTED_EDGE('',*,*,#206,.T.);
#256 = ORIENTED_EDGE('',*,*,#257,.F.);
#257 = EDGE_CURVE('',#233,#207,#258,.T.);
#258 = LINE('',#259,#260);
#259 = CARTESIAN_POINT('',(125.2953,-10.0425,13.5));
#260 = VECTOR('',#261,1.);
#261 = DIRECTION('',(-1.,0.,0.));
#262 = PLANE('',#263);
#263 = AXIS2_PLACEMENT_3D('',#264,#265,#266);
#264 = CARTESIAN_POINT('',(125.2953,-9.7925,13.75));
#265 = DIRECTION('',(0.,0.707106781187,-0.707106781187));
#266 = DIRECTION('',(1.,-0.,-0.));
#267 = ADVANCED_FACE('',(#268),#293,.F.);
#268 = FACE_BOUND('',#269,.T.);
#269 = EDGE_LOOP('',(#270,#278,#286,#292));
#270 = ORIENTED_EDGE('',*,*,#271,.F.);
#271 = EDGE_CURVE('',#272,#56,#274,.T.);
#272 = VERTEX_POINT('',#273);
#273 = CARTESIAN_POINT('',(23.000045720091,-77.4874498349,13.5));
#274 = LINE('',#275,#276);
#275 = CARTESIAN_POINT('',(23.000045720091,-77.2374498349,13.75));
#276 = VECTOR('',#277,1.);
#277 = DIRECTION('',(-1.E-16,0.707106781187,0.707106781187));
#278 = ORIENTED_EDGE('',*,*,#279,.T.);
#279 = EDGE_CURVE('',#272,#280,#282,.T.);
#280 = VERTEX_POINT('',#281);
#281 = CARTESIAN_POINT('',(127.00025654051,-77.4874498349,13.5));
#282 = LINE('',#283,#284);
#283 = CARTESIAN_POINT('',(23.000045720091,-77.4874498349,13.5));
#284 = VECTOR('',#285,1.);
#285 = DIRECTION('',(1.,1.4E-16,0.));
#286 = ORIENTED_EDGE('',*,*,#287,.T.);
#287 = EDGE_CURVE('',#280,#58,#288,.T.);
#288 = LINE('',#289,#290);
#289 = CARTESIAN_POINT('',(127.00025654051,-77.2374498349,13.75));
#290 = VECTOR('',#291,1.);
#291 = DIRECTION('',(-1.E-16,0.707106781187,0.707106781187));
#292 = ORIENTED_EDGE('',*,*,#55,.F.);
#293 = PLANE('',#294);
#294 = AXIS2_PLACEMENT_3D('',#295,#296,#297);
#295 = CARTESIAN_POINT('',(23.000045720091,-77.2374498349,13.75));
#296 = DIRECTION('',(0.,0.707106781187,-0.707106781187));
#297 = DIRECTION('',(-1.,-7.E-17,-7.E-17));
#298 = ADVANCED_FACE('',(#299),#318,.T.);
#299 = FACE_BOUND('',#300,.T.);
#300 = EDGE_LOOP('',(#301,#309,#316,#317));
#301 = ORIENTED_EDGE('',*,*,#302,.F.);
#302 = EDGE_CURVE('',#303,#109,#305,.T.);
#303 = VERTEX_POINT('',#304);
#304 = CARTESIAN_POINT('',(16.012740665481,-70.50014478029,13.5));
#305 = LINE('',#306,#307);
#306 = CARTESIAN_POINT('',(16.262740665481,-70.50014478029,13.75));
#307 = VECTOR('',#308,1.);
#308 = DIRECTION('',(0.707106781187,1.2E-16,0.707106781187));
#309 = ORIENTED_EDGE('',*,*,#310,.T.);
#310 = EDGE_CURVE('',#303,#272,#311,.T.);
#311 = CIRCLE('',#312,6.98730505461);
#312 = AXIS2_PLACEMENT_3D('',#313,#314,#315);
#313 = CARTESIAN_POINT('',(23.000045720091,-70.50014478029,13.5));
#314 = DIRECTION('',(0.,0.,1.));
#315 = DIRECTION('',(-1.,0.,0.));
#316 = ORIENTED_EDGE('',*,*,#271,.T.);
#317 = ORIENTED_EDGE('',*,*,#116,.F.);
#318 = CONICAL_SURFACE('',#319,6.98730505461,0.785398163397);
#319 = AXIS2_PLACEMENT_3D('',#320,#321,#322);
#320 = CARTESIAN_POINT('',(23.000045720091,-70.50014478029,13.5));
#321 = DIRECTION('',(-0.,-0.,-1.));
#322 = DIRECTION('',(-1.,0.,0.));
#323 = ADVANCED_FACE('',(#324),#343,.T.);
#324 = FACE_BOUND('',#325,.T.);
#325 = EDGE_LOOP('',(#326,#327,#336,#342));
#326 = ORIENTED_EDGE('',*,*,#287,.F.);
#327 = ORIENTED_EDGE('',*,*,#328,.T.);
#328 = EDGE_CURVE('',#280,#329,#331,.T.);
#329 = VERTEX_POINT('',#330);
#330 = CARTESIAN_POINT('',(133.98756159512,-70.50014478029,13.5));
#331 = CIRCLE('',#332,6.98730505461);
#332 = AXIS2_PLACEMENT_3D('',#333,#334,#335);
#333 = CARTESIAN_POINT('',(127.00025654051,-70.50014478029,13.5));
#334 = DIRECTION('',(-0.,0.,1.));
#335 = DIRECTION('',(0.,-1.,0.));
#336 = ORIENTED_EDGE('',*,*,#337,.T.);
#337 = EDGE_CURVE('',#329,#66,#338,.T.);
#338 = LINE('',#339,#340);
#339 = CARTESIAN_POINT('',(133.98756159512,-70.50014478029,13.5));
#340 = VECTOR('',#341,1.);
#341 = DIRECTION('',(-0.707106781187,-5.8E-16,0.707106781187));
#342 = ORIENTED_EDGE('',*,*,#65,.F.);
#343 = CONICAL_SURFACE('',#344,6.98730505461,0.785398163397);
#344 = AXIS2_PLACEMENT_3D('',#345,#346,#347);
#345 = CARTESIAN_POINT('',(127.00025654051,-70.50014478029,13.5));
#346 = DIRECTION('',(-0.,-0.,-1.));
#347 = DIRECTION('',(0.,-1.,0.));
#348 = ADVANCED_FACE('',(#349),#367,.F.);
#349 = FACE_BOUND('',#350,.T.);
#350 = EDGE_LOOP('',(#351,#359,#365,#366));
#351 = ORIENTED_EDGE('',*,*,#352,.F.);
#352 = EDGE_CURVE('',#353,#100,#355,.T.);
#353 = VERTEX_POINT('',#354);
#354 = CARTESIAN_POINT('',(16.012740665481,-6.50001524003,13.5));
#355 = LINE('',#356,#357);
#356 = CARTESIAN_POINT('',(16.012740665481,-6.50001524003,13.5));
#357 = VECTOR('',#358,1.);
#358 = DIRECTION('',(0.707106781187,-5.8E-16,0.707106781187));
#359 = ORIENTED_EDGE('',*,*,#360,.T.);
#360 = EDGE_CURVE('',#353,#303,#361,.T.);
#361 = LINE('',#362,#363);
#362 = CARTESIAN_POINT('',(16.012740665481,-6.50001524003,13.5));
#363 = VECTOR('',#364,1.);
#364 = DIRECTION('',(1.7E-16,-1.,0.));
#365 = ORIENTED_EDGE('',*,*,#302,.T.);
#366 = ORIENTED_EDGE('',*,*,#108,.F.);
#367 = PLANE('',#368);
#368 = AXIS2_PLACEMENT_3D('',#369,#370,#371);
#369 = CARTESIAN_POINT('',(16.262740665481,-6.50001524003,13.75));
#370 = DIRECTION('',(0.707106781187,2.5E-16,-0.707106781187));
#371 = DIRECTION('',(-2.617766952966E-16,1.,9.177669529664E-17));
#372 = ADVANCED_FACE('',(#373),#391,.F.);
#373 = FACE_BOUND('',#374,.T.);
#374 = EDGE_LOOP('',(#375,#376,#384,#390));
#375 = ORIENTED_EDGE('',*,*,#337,.F.);
#376 = ORIENTED_EDGE('',*,*,#377,.T.);
#377 = EDGE_CURVE('',#329,#378,#380,.T.);
#378 = VERTEX_POINT('',#379);
#379 = CARTESIAN_POINT('',(133.98756159512,-6.50001524003,13.5));
#380 = LINE('',#381,#382);
#381 = CARTESIAN_POINT('',(133.98756159512,-70.50014478029,13.5));
#382 = VECTOR('',#383,1.);
#383 = DIRECTION('',(0.,1.,0.));
#384 = ORIENTED_EDGE('',*,*,#385,.T.);
#385 = EDGE_CURVE('',#378,#75,#386,.T.);
#386 = LINE('',#387,#388);
#387 = CARTESIAN_POINT('',(133.73756159512,-6.50001524003,13.75));
#388 = VECTOR('',#389,1.);
#389 = DIRECTION('',(-0.707106781187,0.,0.707106781187));
#390 = ORIENTED_EDGE('',*,*,#74,.F.);
#391 = PLANE('',#392);
#392 = AXIS2_PLACEMENT_3D('',#393,#394,#395);
#393 = CARTESIAN_POINT('',(133.73756159512,-70.50014478029,13.75));
#394 = DIRECTION('',(-0.707106781187,0.,-0.707106781187));
#395 = DIRECTION('',(-0.,-1.,-0.));
#396 = ADVANCED_FACE('',(#397),#416,.T.);
#397 = FACE_BOUND('',#398,.T.);
#398 = EDGE_LOOP('',(#399,#407,#414,#415));
#399 = ORIENTED_EDGE('',*,*,#400,.F.);
#400 = EDGE_CURVE('',#401,#92,#403,.T.);
#401 = VERTEX_POINT('',#402);
#402 = CARTESIAN_POINT('',(23.000045720091,0.48728981458,13.5));
#403 = LINE('',#404,#405);
#404 = CARTESIAN_POINT('',(23.000045720091,0.23728981458,13.75));
#405 = VECTOR('',#406,1.);
#406 = DIRECTION('',(-1.E-17,-0.707106781187,0.707106781187));
#407 = ORIENTED_EDGE('',*,*,#408,.T.);
#408 = EDGE_CURVE('',#401,#353,#409,.T.);
#409 = CIRCLE('',#410,6.98730505461);
#410 = AXIS2_PLACEMENT_3D('',#411,#412,#413);
#411 = CARTESIAN_POINT('',(23.000045720091,-6.50001524003,13.5));
#412 = DIRECTION('',(0.,0.,1.));
#413 = DIRECTION('',(-1.02E-15,1.,0.));
#414 = ORIENTED_EDGE('',*,*,#352,.T.);
#415 = ORIENTED_EDGE('',*,*,#99,.F.);
#416 = CONICAL_SURFACE('',#417,6.98730505461,0.785398163397);
#417 = AXIS2_PLACEMENT_3D('',#418,#419,#420);
#418 = CARTESIAN_POINT('',(23.000045720091,-6.50001524003,13.5));
#419 = DIRECTION('',(-0.,-0.,-1.));
#420 = DIRECTION('',(-1.02E-15,1.,0.));
#421 = ADVANCED_FACE('',(#422),#441,.T.);
#422 = FACE_BOUND('',#423,.T.);
#423 = EDGE_LOOP('',(#424,#425,#434,#440));
#424 = ORIENTED_EDGE('',*,*,#385,.F.);
#425 = ORIENTED_EDGE('',*,*,#426,.T.);
#426 = EDGE_CURVE('',#378,#427,#429,.T.);
#427 = VERTEX_POINT('',#428);
#428 = CARTESIAN_POINT('',(127.00025654051,0.48728981458,13.5));
#429 = CIRCLE('',#430,6.98730505461);
#430 = AXIS2_PLACEMENT_3D('',#431,#432,#433);
#431 = CARTESIAN_POINT('',(127.00025654051,-6.50001524003,13.5));
#432 = DIRECTION('',(-0.,0.,1.));
#433 = DIRECTION('',(1.,-2.5E-16,0.));
#434 = ORIENTED_EDGE('',*,*,#435,.T.);
#435 = EDGE_CURVE('',#427,#83,#436,.T.);
#436 = LINE('',#437,#438);
#437 = CARTESIAN_POINT('',(127.00025654051,0.48728981458,13.5));
#438 = VECTOR('',#439,1.);
#439 = DIRECTION('',(-2.2E-16,-0.707106781187,0.707106781187));
#440 = ORIENTED_EDGE('',*,*,#82,.F.);
#441 = CONICAL_SURFACE('',#442,6.98730505461,0.785398163397);
#442 = AXIS2_PLACEMENT_3D('',#443,#444,#445);
#443 = CARTESIAN_POINT('',(127.00025654051,-6.50001524003,13.5));
#444 = DIRECTION('',(-0.,-0.,-1.));
#445 = DIRECTION('',(1.,-2.5E-16,0.));
#446 = ADVANCED_FACE('',(#447),#458,.F.);
#447 = FACE_BOUND('',#448,.T.);
#448 = EDGE_LOOP('',(#449,#450,#456,#457));
#449 = ORIENTED_EDGE('',*,*,#435,.F.);
#450 = ORIENTED_EDGE('',*,*,#451,.T.);
#451 = EDGE_CURVE('',#427,#401,#452,.T.);
#452 = LINE('',#453,#454);
#453 = CARTESIAN_POINT('',(127.00025654051,0.48728981458,13.5));
#454 = VECTOR('',#455,1.);
#455 = DIRECTION('',(-1.,1.E-17,0.));
#456 = ORIENTED_EDGE('',*,*,#400,.T.);
#457 = ORIENTED_EDGE('',*,*,#91,.F.);
#458 = PLANE('',#459);
#459 = AXIS2_PLACEMENT_3D('',#460,#461,#462);
#460 = CARTESIAN_POINT('',(127.00025654051,0.23728981458,13.75));
#461 = DIRECTION('',(-1.E-17,-0.707106781187,-0.707106781187));
#462 = DIRECTION('',(1.,-1.207106781187E-17,-2.071067811865E-18));
#463 = ADVANCED_FACE('',(#464),#483,.F.);
#464 = FACE_BOUND('',#465,.T.);
#465 = EDGE_LOOP('',(#466,#474,#475,#476));
#466 = ORIENTED_EDGE('',*,*,#467,.F.);
#467 = EDGE_CURVE('',#126,#468,#470,.T.);
#468 = VERTEX_POINT('',#469);
#469 = CARTESIAN_POINT('',(25.14996414142,-70.50014224028,3.));
#470 = LINE('',#471,#472);
#471 = CARTESIAN_POINT('',(25.14996414142,-70.50014224028,14.));
#472 = VECTOR('',#473,1.);
#473 = DIRECTION('',(0.,0.,-1.));
#474 = ORIENTED_EDGE('',*,*,#125,.T.);
#475 = ORIENTED_EDGE('',*,*,#467,.T.);
#476 = ORIENTED_EDGE('',*,*,#477,.F.);
#477 = EDGE_CURVE('',#468,#468,#478,.T.);
#478 = CIRCLE('',#479,2.15);
#479 = AXIS2_PLACEMENT_3D('',#480,#481,#482);
#480 = CARTESIAN_POINT('',(22.99996414142,-70.50014224028,3.));
#481 = DIRECTION('',(0.,0.,1.));
#482 = DIRECTION('',(1.,0.,0.));
#483 = CYLINDRICAL_SURFACE('',#484,2.15);
#484 = AXIS2_PLACEMENT_3D('',#485,#486,#487);
#485 = CARTESIAN_POINT('',(22.99996414142,-70.50014224028,14.));
#486 = DIRECTION('',(-0.,-0.,-1.));
#487 = DIRECTION('',(1.,0.,0.));
#488 = ADVANCED_FACE('',(#489),#508,.F.);
#489 = FACE_BOUND('',#490,.T.);
#490 = EDGE_LOOP('',(#491,#499,#500,#501));
#491 = ORIENTED_EDGE('',*,*,#492,.F.);
#492 = EDGE_CURVE('',#137,#493,#495,.T.);
#493 = VERTEX_POINT('',#494);
#494 = CARTESIAN_POINT('',(129.15017749184,-70.50014224028,3.));
#495 = LINE('',#496,#497);
#496 = CARTESIAN_POINT('',(129.15017749184,-70.50014224028,14.));
#497 = VECTOR('',#498,1.);
#498 = DIRECTION('',(0.,0.,-1.));
#499 = ORIENTED_EDGE('',*,*,#136,.T.);
#500 = ORIENTED_EDGE('',*,*,#492,.T.);
#501 = ORIENTED_EDGE('',*,*,#502,.F.);
#502 = EDGE_CURVE('',#493,#493,#503,.T.);
#503 = CIRCLE('',#504,2.15);
#504 = AXIS2_PLACEMENT_3D('',#505,#506,#507);
#505 = CARTESIAN_POINT('',(127.00017749184,-70.50014224028,3.));
#506 = DIRECTION('',(0.,0.,1.));
#507 = DIRECTION('',(1.,0.,0.));
#508 = CYLINDRICAL_SURFACE('',#509,2.15);
#509 = AXIS2_PLACEMENT_3D('',#510,#511,#512);
#510 = CARTESIAN_POINT('',(127.00017749184,-70.50014224028,14.));
#511 = DIRECTION('',(-0.,-0.,-1.));
#512 = DIRECTION('',(1.,0.,0.));
#513 = ADVANCED_FACE('',(#514),#533,.F.);
#514 = FACE_BOUND('',#515,.T.);
#515 = EDGE_LOOP('',(#516,#524,#525,#526));
#516 = ORIENTED_EDGE('',*,*,#517,.F.);
#517 = EDGE_CURVE('',#148,#518,#520,.T.);
#518 = VERTEX_POINT('',#519);
#519 = CARTESIAN_POINT('',(25.058919987803,-6.500012700025,3.));
#520 = LINE('',#521,#522);
#521 = CARTESIAN_POINT('',(25.058919987803,-6.500012700025,14.));
#522 = VECTOR('',#523,1.);
#523 = DIRECTION('',(0.,0.,-1.));
#524 = ORIENTED_EDGE('',*,*,#147,.T.);
#525 = ORIENTED_EDGE('',*,*,#517,.T.);
#526 = ORIENTED_EDGE('',*,*,#527,.F.);
#527 = EDGE_CURVE('',#518,#518,#528,.T.);
#528 = CIRCLE('',#529,2.15);
#529 = AXIS2_PLACEMENT_3D('',#530,#531,#532);
#530 = CARTESIAN_POINT('',(22.908919987803,-6.500012700025,3.));
#531 = DIRECTION('',(0.,0.,1.));
#532 = DIRECTION('',(1.,0.,0.));
#533 = CYLINDRICAL_SURFACE('',#534,2.15);
#534 = AXIS2_PLACEMENT_3D('',#535,#536,#537);
#535 = CARTESIAN_POINT('',(22.908919987803,-6.500012700025,14.));
#536 = DIRECTION('',(-0.,-0.,-1.));
#537 = DIRECTION('',(1.,0.,0.));
#538 = ADVANCED_FACE('',(#539),#558,.F.);
#539 = FACE_BOUND('',#540,.T.);
#540 = EDGE_LOOP('',(#541,#549,#550,#551));
#541 = ORIENTED_EDGE('',*,*,#542,.F.);
#542 = EDGE_CURVE('',#159,#543,#545,.T.);
#543 = VERTEX_POINT('',#544);
#544 = CARTESIAN_POINT('',(129.15017748184,-6.500012700025,3.));
#545 = LINE('',#546,#547);
#546 = CARTESIAN_POINT('',(129.15017748184,-6.500012700025,14.));
#547 = VECTOR('',#548,1.);
#548 = DIRECTION('',(0.,0.,-1.));
#549 = ORIENTED_EDGE('',*,*,#158,.T.);
#550 = ORIENTED_EDGE('',*,*,#542,.T.);
#551 = ORIENTED_EDGE('',*,*,#552,.F.);
#552 = EDGE_CURVE('',#543,#543,#553,.T.);
#553 = CIRCLE('',#554,2.15);
#554 = AXIS2_PLACEMENT_3D('',#555,#556,#557);
#555 = CARTESIAN_POINT('',(127.00017748184,-6.500012700025,3.));
#556 = DIRECTION('',(0.,0.,1.));
#557 = DIRECTION('',(1.,0.,0.));
#558 = CYLINDRICAL_SURFACE('',#559,2.15);
#559 = AXIS2_PLACEMENT_3D('',#560,#561,#562);
#560 = CARTESIAN_POINT('',(127.00017748184,-6.500012700025,14.));
#561 = DIRECTION('',(-0.,-0.,-1.));
#562 = DIRECTION('',(1.,0.,0.));
#563 = ADVANCED_FACE('',(#564),#589,.F.);
#564 = FACE_BOUND('',#565,.F.);
#565 = EDGE_LOOP('',(#566,#574,#582,#588));
#566 = ORIENTED_EDGE('',*,*,#567,.F.);
#567 = EDGE_CURVE('',#568,#176,#570,.T.);
#568 = VERTEX_POINT('',#569);
#569 = CARTESIAN_POINT('',(49.0950846,-67.192307,11.));
#570 = LINE('',#571,#572);
#571 = CARTESIAN_POINT('',(49.0950846,-67.192307,-270.3443356582));
#572 = VECTOR('',#573,1.);
#573 = DIRECTION('',(0.,0.,1.));
#574 = ORIENTED_EDGE('',*,*,#575,.T.);
#575 = EDGE_CURVE('',#568,#576,#578,.T.);
#576 = VERTEX_POINT('',#577);
#577 = CARTESIAN_POINT('',(125.2953,-67.192307,11.));
#578 = LINE('',#579,#580);
#579 = CARTESIAN_POINT('',(100.14772556515,-67.192307,11.));
#580 = VECTOR('',#581,1.);
#581 = DIRECTION('',(1.,0.,0.));
#582 = ORIENTED_EDGE('',*,*,#583,.T.);
#583 = EDGE_CURVE('',#576,#185,#584,.T.);
#584 = LINE('',#585,#586);
#585 = CARTESIAN_POINT('',(125.2953,-67.192307,-270.3443356582));
#586 = VECTOR('',#587,1.);
#587 = DIRECTION('',(0.,0.,1.));
#588 = ORIENTED_EDGE('',*,*,#192,.F.);
#589 = PLANE('',#590);
#590 = AXIS2_PLACEMENT_3D('',#591,#592,#593);
#591 = CARTESIAN_POINT('',(125.2953,-67.192307,-270.3443356582));
#592 = DIRECTION('',(0.,-1.,0.));
#593 = DIRECTION('',(-1.,0.,0.));
#594 = ADVANCED_FACE('',(#595),#613,.F.);
#595 = FACE_BOUND('',#596,.F.);
#596 = EDGE_LOOP('',(#597,#605,#611,#612));
#597 = ORIENTED_EDGE('',*,*,#598,.F.);
#598 = EDGE_CURVE('',#599,#207,#601,.T.);
#599 = VERTEX_POINT('',#600);
#600 = CARTESIAN_POINT('',(49.0950846,-10.0425,11.));
#601 = LINE('',#602,#603);
#602 = CARTESIAN_POINT('',(49.0950846,-10.0425,-270.3443356582));
#603 = VECTOR('',#604,1.);
#604 = DIRECTION('',(0.,0.,1.));
#605 = ORIENTED_EDGE('',*,*,#606,.T.);
#606 = EDGE_CURVE('',#599,#568,#607,.T.);
#607 = LINE('',#608,#609);
#608 = CARTESIAN_POINT('',(49.0950846,-52.84619350508,11.));
#609 = VECTOR('',#610,1.);
#610 = DIRECTION('',(0.,-1.,0.));
#611 = ORIENTED_EDGE('',*,*,#567,.T.);
#612 = ORIENTED_EDGE('',*,*,#216,.F.);
#613 = PLANE('',#614);
#614 = AXIS2_PLACEMENT_3D('',#615,#616,#617);
#615 = CARTESIAN_POINT('',(49.0950846,-67.192307,-270.3443356582));
#616 = DIRECTION('',(-1.,0.,0.));
#617 = DIRECTION('',(0.,1.,0.));
#618 = ADVANCED_FACE('',(#619),#637,.F.);
#619 = FACE_BOUND('',#620,.F.);
#620 = EDGE_LOOP('',(#621,#622,#630,#636));
#621 = ORIENTED_EDGE('',*,*,#583,.F.);
#622 = ORIENTED_EDGE('',*,*,#623,.T.);
#623 = EDGE_CURVE('',#576,#624,#626,.T.);
#624 = VERTEX_POINT('',#625);
#625 = CARTESIAN_POINT('',(125.2953,-10.0425,11.));
#626 = LINE('',#627,#628);
#627 = CARTESIAN_POINT('',(125.2953,-24.27129000508,11.));
#628 = VECTOR('',#629,1.);
#629 = DIRECTION('',(0.,1.,0.));
#630 = ORIENTED_EDGE('',*,*,#631,.T.);
#631 = EDGE_CURVE('',#624,#233,#632,.T.);
#632 = LINE('',#633,#634);
#633 = CARTESIAN_POINT('',(125.2953,-10.0425,-270.3443356582));
#634 = VECTOR('',#635,1.);
#635 = DIRECTION('',(0.,0.,1.));
#636 = ORIENTED_EDGE('',*,*,#240,.F.);
#637 = PLANE('',#638);
#638 = AXIS2_PLACEMENT_3D('',#639,#640,#641);
#639 = CARTESIAN_POINT('',(125.2953,-10.0425,-270.3443356582));
#640 = DIRECTION('',(1.,0.,0.));
#641 = DIRECTION('',(0.,-1.,0.));
#642 = ADVANCED_FACE('',(#643),#654,.F.);
#643 = FACE_BOUND('',#644,.F.);
#644 = EDGE_LOOP('',(#645,#646,#652,#653));
#645 = ORIENTED_EDGE('',*,*,#631,.F.);
#646 = ORIENTED_EDGE('',*,*,#647,.T.);
#647 = EDGE_CURVE('',#624,#599,#648,.T.);
#648 = LINE('',#649,#650);
#649 = CARTESIAN_POINT('',(62.04761786515,-10.0425,11.));
#650 = VECTOR('',#651,1.);
#651 = DIRECTION('',(-1.,0.,0.));
#652 = ORIENTED_EDGE('',*,*,#598,.T.);
#653 = ORIENTED_EDGE('',*,*,#257,.F.);
#654 = PLANE('',#655);
#655 = AXIS2_PLACEMENT_3D('',#656,#657,#658);
#656 = CARTESIAN_POINT('',(49.0950846,-10.0425,-270.3443356582));
#657 = DIRECTION('',(0.,1.,0.));
#658 = DIRECTION('',(1.,0.,0.));
#659 = ADVANCED_FACE('',(#660),#685,.F.);
#660 = FACE_BOUND('',#661,.F.);
#661 = EDGE_LOOP('',(#662,#670,#671,#679));
#662 = ORIENTED_EDGE('',*,*,#663,.T.);
#663 = EDGE_CURVE('',#664,#272,#666,.T.);
#664 = VERTEX_POINT('',#665);
#665 = CARTESIAN_POINT('',(23.000045720091,-77.4874498349,11.));
#666 = LINE('',#667,#668);
#667 = CARTESIAN_POINT('',(23.000045720091,-77.4874498349,11.));
#668 = VECTOR('',#669,1.);
#669 = DIRECTION('',(0.,0.,1.));
#670 = ORIENTED_EDGE('',*,*,#279,.T.);
#671 = ORIENTED_EDGE('',*,*,#672,.F.);
#672 = EDGE_CURVE('',#673,#280,#675,.T.);
#673 = VERTEX_POINT('',#674);
#674 = CARTESIAN_POINT('',(127.00025654051,-77.4874498349,11.));
#675 = LINE('',#676,#677);
#676 = CARTESIAN_POINT('',(127.00025654051,-77.4874498349,11.));
#677 = VECTOR('',#678,1.);
#678 = DIRECTION('',(0.,0.,1.));
#679 = ORIENTED_EDGE('',*,*,#680,.F.);
#680 = EDGE_CURVE('',#664,#673,#681,.T.);
#681 = LINE('',#682,#683);
#682 = CARTESIAN_POINT('',(101.0002038354,-77.4874498349,11.));
#683 = VECTOR('',#684,1.);
#684 = DIRECTION('',(1.,1.4E-16,0.));
#685 = PLANE('',#686);
#686 = AXIS2_PLACEMENT_3D('',#687,#688,#689);
#687 = CARTESIAN_POINT('',(23.000045720091,-77.4874498349,11.));
#688 = DIRECTION('',(-1.4E-16,1.,0.));
#689 = DIRECTION('',(1.,1.4E-16,0.));
#690 = ADVANCED_FACE('',(#691),#710,.T.);
#691 = FACE_BOUND('',#692,.T.);
#692 = EDGE_LOOP('',(#693,#694,#695,#703));
#693 = ORIENTED_EDGE('',*,*,#663,.T.);
#694 = ORIENTED_EDGE('',*,*,#310,.F.);
#695 = ORIENTED_EDGE('',*,*,#696,.F.);
#696 = EDGE_CURVE('',#697,#303,#699,.T.);
#697 = VERTEX_POINT('',#698);
#698 = CARTESIAN_POINT('',(16.012740665481,-70.50014478029,11.));
#699 = LINE('',#700,#701);
#700 = CARTESIAN_POINT('',(16.012740665481,-70.50014478029,11.));
#701 = VECTOR('',#702,1.);
#702 = DIRECTION('',(0.,0.,1.));
#703 = ORIENTED_EDGE('',*,*,#704,.F.);
#704 = EDGE_CURVE('',#664,#697,#705,.T.);
#705 = CIRCLE('',#706,6.98730505461);
#706 = AXIS2_PLACEMENT_3D('',#707,#708,#709);
#707 = CARTESIAN_POINT('',(23.000045720091,-70.50014478029,11.));
#708 = DIRECTION('',(0.,0.,-1.));
#709 = DIRECTION('',(-2.21E-15,-1.,-0.));
#710 = CYLINDRICAL_SURFACE('',#711,6.98730505461);
#711 = AXIS2_PLACEMENT_3D('',#712,#713,#714);
#712 = CARTESIAN_POINT('',(23.000045720091,-70.50014478029,11.));
#713 = DIRECTION('',(0.,0.,-1.));
#714 = DIRECTION('',(-2.21E-15,-1.,-0.));
#715 = ADVANCED_FACE('',(#716),#735,.T.);
#716 = FACE_BOUND('',#717,.T.);
#717 = EDGE_LOOP('',(#718,#726,#727,#728));
#718 = ORIENTED_EDGE('',*,*,#719,.T.);
#719 = EDGE_CURVE('',#720,#329,#722,.T.);
#720 = VERTEX_POINT('',#721);
#721 = CARTESIAN_POINT('',(133.98756159512,-70.50014478029,11.));
#722 = LINE('',#723,#724);
#723 = CARTESIAN_POINT('',(133.98756159512,-70.50014478029,11.));
#724 = VECTOR('',#725,1.);
#725 = DIRECTION('',(0.,0.,1.));
#726 = ORIENTED_EDGE('',*,*,#328,.F.);
#727 = ORIENTED_EDGE('',*,*,#672,.F.);
#728 = ORIENTED_EDGE('',*,*,#729,.F.);
#729 = EDGE_CURVE('',#720,#673,#730,.T.);
#730 = CIRCLE('',#731,6.98730505461);
#731 = AXIS2_PLACEMENT_3D('',#732,#733,#734);
#732 = CARTESIAN_POINT('',(127.00025654051,-70.50014478029,11.));
#733 = DIRECTION('',(0.,0.,-1.));
#734 = DIRECTION('',(1.,-8.41E-15,0.));
#735 = CYLINDRICAL_SURFACE('',#736,6.98730505461);
#736 = AXIS2_PLACEMENT_3D('',#737,#738,#739);
#737 = CARTESIAN_POINT('',(127.00025654051,-70.50014478029,11.));
#738 = DIRECTION('',(0.,0.,-1.));
#739 = DIRECTION('',(1.,-8.41E-15,0.));
#740 = ADVANCED_FACE('',(#741),#759,.F.);
#741 = FACE_BOUND('',#742,.F.);
#742 = EDGE_LOOP('',(#743,#751,#752,#753));
#743 = ORIENTED_EDGE('',*,*,#744,.T.);
#744 = EDGE_CURVE('',#745,#353,#747,.T.);
#745 = VERTEX_POINT('',#746);
#746 = CARTESIAN_POINT('',(16.012740665481,-6.50001524003,11.));
#747 = LINE('',#748,#749);
#748 = CARTESIAN_POINT('',(16.012740665481,-6.50001524003,11.));
#749 = VECTOR('',#750,1.);
#750 = DIRECTION('',(0.,0.,1.));
#751 = ORIENTED_EDGE('',*,*,#360,.T.);
#752 = ORIENTED_EDGE('',*,*,#696,.F.);
#753 = ORIENTED_EDGE('',*,*,#754,.F.);
#754 = EDGE_CURVE('',#745,#697,#755,.T.);
#755 = LINE('',#756,#757);
#756 = CARTESIAN_POINT('',(16.012740665481,-54.50011239522,11.));
#757 = VECTOR('',#758,1.);
#758 = DIRECTION('',(1.7E-16,-1.,0.));
#759 = PLANE('',#760);
#760 = AXIS2_PLACEMENT_3D('',#761,#762,#763);
#761 = CARTESIAN_POINT('',(16.012740665481,-6.50001524003,11.));
#762 = DIRECTION('',(1.,1.7E-16,0.));
#763 = DIRECTION('',(1.7E-16,-1.,0.));
#764 = ADVANCED_FACE('',(#765),#783,.F.);
#765 = FACE_BOUND('',#766,.F.);
#766 = EDGE_LOOP('',(#767,#768,#769,#777));
#767 = ORIENTED_EDGE('',*,*,#719,.T.);
#768 = ORIENTED_EDGE('',*,*,#377,.T.);
#769 = ORIENTED_EDGE('',*,*,#770,.F.);
#770 = EDGE_CURVE('',#771,#378,#773,.T.);
#771 = VERTEX_POINT('',#772);
#772 = CARTESIAN_POINT('',(133.98756159512,-6.50001524003,11.));
#773 = LINE('',#774,#775);
#774 = CARTESIAN_POINT('',(133.98756159512,-6.50001524003,11.));
#775 = VECTOR('',#776,1.);
#776 = DIRECTION('',(0.,0.,1.));
#777 = ORIENTED_EDGE('',*,*,#778,.F.);
#778 = EDGE_CURVE('',#720,#771,#779,.T.);
#779 = LINE('',#780,#781);
#780 = CARTESIAN_POINT('',(133.98756159512,-22.50004762509,11.));
#781 = VECTOR('',#782,1.);
#782 = DIRECTION('',(0.,1.,0.));
#783 = PLANE('',#784);
#784 = AXIS2_PLACEMENT_3D('',#785,#786,#787);
#785 = CARTESIAN_POINT('',(133.98756159512,-70.50014478029,11.));
#786 = DIRECTION('',(-1.,0.,0.));
#787 = DIRECTION('',(0.,1.,0.));
#788 = ADVANCED_FACE('',(#789),#808,.T.);
#789 = FACE_BOUND('',#790,.T.);
#790 = EDGE_LOOP('',(#791,#792,#793,#801));
#791 = ORIENTED_EDGE('',*,*,#744,.T.);
#792 = ORIENTED_EDGE('',*,*,#408,.F.);
#793 = ORIENTED_EDGE('',*,*,#794,.F.);
#794 = EDGE_CURVE('',#795,#401,#797,.T.);
#795 = VERTEX_POINT('',#796);
#796 = CARTESIAN_POINT('',(23.000045720091,0.48728981458,11.));
#797 = LINE('',#798,#799);
#798 = CARTESIAN_POINT('',(23.000045720091,0.48728981458,11.));
#799 = VECTOR('',#800,1.);
#800 = DIRECTION('',(0.,0.,1.));
#801 = ORIENTED_EDGE('',*,*,#802,.F.);
#802 = EDGE_CURVE('',#745,#795,#803,.T.);
#803 = CIRCLE('',#804,6.98730505461);
#804 = AXIS2_PLACEMENT_3D('',#805,#806,#807);
#805 = CARTESIAN_POINT('',(23.000045720091,-6.50001524003,11.));
#806 = DIRECTION('',(0.,0.,-1.));
#807 = DIRECTION('',(-1.,-9.5E-16,-0.));
#808 = CYLINDRICAL_SURFACE('',#809,6.98730505461);
#809 = AXIS2_PLACEMENT_3D('',#810,#811,#812);
#810 = CARTESIAN_POINT('',(23.000045720091,-6.50001524003,11.));
#811 = DIRECTION('',(0.,0.,-1.));
#812 = DIRECTION('',(-1.,-9.5E-16,-0.));
#813 = ADVANCED_FACE('',(#814),#833,.T.);
#814 = FACE_BOUND('',#815,.T.);
#815 = EDGE_LOOP('',(#816,#824,#825,#826));
#816 = ORIENTED_EDGE('',*,*,#817,.T.);
#817 = EDGE_CURVE('',#818,#427,#820,.T.);
#818 = VERTEX_POINT('',#819);
#819 = CARTESIAN_POINT('',(127.00025654051,0.48728981458,11.));
#820 = LINE('',#821,#822);
#821 = CARTESIAN_POINT('',(127.00025654051,0.48728981458,11.));
#822 = VECTOR('',#823,1.);
#823 = DIRECTION('',(0.,0.,1.));
#824 = ORIENTED_EDGE('',*,*,#426,.F.);
#825 = ORIENTED_EDGE('',*,*,#770,.F.);
#826 = ORIENTED_EDGE('',*,*,#827,.F.);
#827 = EDGE_CURVE('',#818,#771,#828,.T.);
#828 = CIRCLE('',#829,6.98730505461);
#829 = AXIS2_PLACEMENT_3D('',#830,#831,#832);
#830 = CARTESIAN_POINT('',(127.00025654051,-6.50001524003,11.));
#831 = DIRECTION('',(0.,0.,-1.));
#832 = DIRECTION('',(-1.26E-15,1.,0.));
#833 = CYLINDRICAL_SURFACE('',#834,6.98730505461);
#834 = AXIS2_PLACEMENT_3D('',#835,#836,#837);
#835 = CARTESIAN_POINT('',(127.00025654051,-6.50001524003,11.));
#836 = DIRECTION('',(0.,0.,-1.));
#837 = DIRECTION('',(-1.26E-15,1.,0.));
#838 = ADVANCED_FACE('',(#839),#850,.F.);
#839 = FACE_BOUND('',#840,.F.);
#840 = EDGE_LOOP('',(#841,#842,#843,#844));
#841 = ORIENTED_EDGE('',*,*,#817,.T.);
#842 = ORIENTED_EDGE('',*,*,#451,.T.);
#843 = ORIENTED_EDGE('',*,*,#794,.F.);
#844 = ORIENTED_EDGE('',*,*,#845,.F.);
#845 = EDGE_CURVE('',#818,#795,#846,.T.);
#846 = LINE('',#847,#848);
#847 = CARTESIAN_POINT('',(49.000098425196,0.48728981458,11.));
#848 = VECTOR('',#849,1.);
#849 = DIRECTION('',(-1.,1.E-17,0.));
#850 = PLANE('',#851);
#851 = AXIS2_PLACEMENT_3D('',#852,#853,#854);
#852 = CARTESIAN_POINT('',(127.00025654051,0.48728981458,11.));
#853 = DIRECTION('',(-1.E-17,-1.,0.));
#854 = DIRECTION('',(-1.,1.E-17,0.));
#855 = ADVANCED_FACE('',(#856,#859),#870,.T.);
#856 = FACE_BOUND('',#857,.T.);
#857 = EDGE_LOOP('',(#858));
#858 = ORIENTED_EDGE('',*,*,#477,.T.);
#859 = FACE_BOUND('',#860,.T.);
#860 = EDGE_LOOP('',(#861));
#861 = ORIENTED_EDGE('',*,*,#862,.F.);
#862 = EDGE_CURVE('',#863,#863,#865,.T.);
#863 = VERTEX_POINT('',#864);
#864 = CARTESIAN_POINT('',(24.19996414142,-70.50014224028,3.));
#865 = CIRCLE('',#866,1.2);
#866 = AXIS2_PLACEMENT_3D('',#867,#868,#869);
#867 = CARTESIAN_POINT('',(22.99996414142,-70.50014224028,3.));
#868 = DIRECTION('',(0.,0.,1.));
#869 = DIRECTION('',(1.,0.,0.));
#870 = PLANE('',#871);
#871 = AXIS2_PLACEMENT_3D('',#872,#873,#874);
#872 = CARTESIAN_POINT('',(22.99996414142,-70.50014224028,3.));
#873 = DIRECTION('',(0.,0.,1.));
#874 = DIRECTION('',(1.,0.,0.));
#875 = ADVANCED_FACE('',(#876,#879),#890,.T.);
#876 = FACE_BOUND('',#877,.T.);
#877 = EDGE_LOOP('',(#878));
#878 = ORIENTED_EDGE('',*,*,#502,.T.);
#879 = FACE_BOUND('',#880,.T.);
#880 = EDGE_LOOP('',(#881));
#881 = ORIENTED_EDGE('',*,*,#882,.F.);
#882 = EDGE_CURVE('',#883,#883,#885,.T.);
#883 = VERTEX_POINT('',#884);
#884 = CARTESIAN_POINT('',(128.20017749184,-70.50014224028,3.));
#885 = CIRCLE('',#886,1.2);
#886 = AXIS2_PLACEMENT_3D('',#887,#888,#889);
#887 = CARTESIAN_POINT('',(127.00017749184,-70.50014224028,3.));
#888 = DIRECTION('',(0.,0.,1.));
#889 = DIRECTION('',(1.,0.,0.));
#890 = PLANE('',#891);
#891 = AXIS2_PLACEMENT_3D('',#892,#893,#894);
#892 = CARTESIAN_POINT('',(127.00017749184,-70.50014224028,3.));
#893 = DIRECTION('',(0.,0.,1.));
#894 = DIRECTION('',(1.,0.,0.));
#895 = ADVANCED_FACE('',(#896,#899),#910,.T.);
#896 = FACE_BOUND('',#897,.T.);
#897 = EDGE_LOOP('',(#898));
#898 = ORIENTED_EDGE('',*,*,#527,.T.);
#899 = FACE_BOUND('',#900,.T.);
#900 = EDGE_LOOP('',(#901));
#901 = ORIENTED_EDGE('',*,*,#902,.F.);
#902 = EDGE_CURVE('',#903,#903,#905,.T.);
#903 = VERTEX_POINT('',#904);
#904 = CARTESIAN_POINT('',(24.108919987803,-6.500012700025,3.));
#905 = CIRCLE('',#906,1.2);
#906 = AXIS2_PLACEMENT_3D('',#907,#908,#909);
#907 = CARTESIAN_POINT('',(22.908919987803,-6.500012700025,3.));
#908 = DIRECTION('',(0.,0.,1.));
#909 = DIRECTION('',(1.,0.,0.));
#910 = PLANE('',#911);
#911 = AXIS2_PLACEMENT_3D('',#912,#913,#914);
#912 = CARTESIAN_POINT('',(22.908919987803,-6.500012700025,3.));
#913 = DIRECTION('',(0.,0.,1.));
#914 = DIRECTION('',(1.,0.,0.));
#915 = ADVANCED_FACE('',(#916,#919),#930,.T.);
#916 = FACE_BOUND('',#917,.T.);
#917 = EDGE_LOOP('',(#918));
#918 = ORIENTED_EDGE('',*,*,#552,.T.);
#919 = FACE_BOUND('',#920,.T.);
#920 = EDGE_LOOP('',(#921));
#921 = ORIENTED_EDGE('',*,*,#922,.F.);
#922 = EDGE_CURVE('',#923,#923,#925,.T.);
#923 = VERTEX_POINT('',#924);
#924 = CARTESIAN_POINT('',(128.20017748184,-6.500012700025,3.));
#925 = CIRCLE('',#926,1.2);
#926 = AXIS2_PLACEMENT_3D('',#927,#928,#929);
#927 = CARTESIAN_POINT('',(127.00017748184,-6.500012700025,3.));
#928 = DIRECTION('',(0.,0.,1.));
#929 = DIRECTION('',(1.,0.,0.));
#930 = PLANE('',#931);
#931 = AXIS2_PLACEMENT_3D('',#932,#933,#934);
#932 = CARTESIAN_POINT('',(127.00017748184,-6.500012700025,3.));
#933 = DIRECTION('',(0.,0.,1.));
#934 = DIRECTION('',(1.,0.,0.));
#935 = ADVANCED_FACE('',(#936,#946,#957,#968,#974,#985),#996,.F.);
#936 = FACE_BOUND('',#937,.F.);
#937 = EDGE_LOOP('',(#938,#939,#940,#941,#942,#943,#944,#945));
#938 = ORIENTED_EDGE('',*,*,#729,.F.);
#939 = ORIENTED_EDGE('',*,*,#778,.T.);
#940 = ORIENTED_EDGE('',*,*,#827,.F.);
#941 = ORIENTED_EDGE('',*,*,#845,.T.);
#942 = ORIENTED_EDGE('',*,*,#802,.F.);
#943 = ORIENTED_EDGE('',*,*,#754,.T.);
#944 = ORIENTED_EDGE('',*,*,#704,.F.);
#945 = ORIENTED_EDGE('',*,*,#680,.T.);
#946 = FACE_BOUND('',#947,.F.);
#947 = EDGE_LOOP('',(#948));
#948 = ORIENTED_EDGE('',*,*,#949,.F.);
#949 = EDGE_CURVE('',#950,#950,#952,.T.);
#950 = VERTEX_POINT('',#951);
#951 = CARTESIAN_POINT('',(25.99996414142,-70.50014224028,11.));
#952 = CIRCLE('',#953,3.);
#953 = AXIS2_PLACEMENT_3D('',#954,#955,#956);
#954 = CARTESIAN_POINT('',(22.99996414142,-70.50014224028,11.));
#955 = DIRECTION('',(0.,-0.,1.));
#956 = DIRECTION('',(1.,1.E-16,0.));
#957 = FACE_BOUND('',#958,.F.);
#958 = EDGE_LOOP('',(#959));
#959 = ORIENTED_EDGE('',*,*,#960,.F.);
#960 = EDGE_CURVE('',#961,#961,#963,.T.);
#961 = VERTEX_POINT('',#962);
#962 = CARTESIAN_POINT('',(130.00017749184,-70.50014224028,11.));
#963 = CIRCLE('',#964,3.);
#964 = AXIS2_PLACEMENT_3D('',#965,#966,#967);
#965 = CARTESIAN_POINT('',(127.00017749184,-70.50014224028,11.));
#966 = DIRECTION('',(0.,-0.,1.));
#967 = DIRECTION('',(1.,1.E-16,0.));
#968 = FACE_BOUND('',#969,.F.);
#969 = EDGE_LOOP('',(#970,#971,#972,#973));
#970 = ORIENTED_EDGE('',*,*,#575,.F.);
#971 = ORIENTED_EDGE('',*,*,#606,.F.);
#972 = ORIENTED_EDGE('',*,*,#647,.F.);
#973 = ORIENTED_EDGE('',*,*,#623,.F.);
#974 = FACE_BOUND('',#975,.F.);
#975 = EDGE_LOOP('',(#976));
#976 = ORIENTED_EDGE('',*,*,#977,.F.);
#977 = EDGE_CURVE('',#978,#978,#980,.T.);
#978 = VERTEX_POINT('',#979);
#979 = CARTESIAN_POINT('',(25.908919987803,-6.500012700025,11.));
#980 = CIRCLE('',#981,3.);
#981 = AXIS2_PLACEMENT_3D('',#982,#983,#984);
#982 = CARTESIAN_POINT('',(22.908919987803,-6.500012700025,11.));
#983 = DIRECTION('',(0.,-0.,1.));
#984 = DIRECTION('',(1.,1.E-16,0.));
#985 = FACE_BOUND('',#986,.F.);
#986 = EDGE_LOOP('',(#987));
#987 = ORIENTED_EDGE('',*,*,#988,.F.);
#988 = EDGE_CURVE('',#989,#989,#991,.T.);
#989 = VERTEX_POINT('',#990);
#990 = CARTESIAN_POINT('',(130.00017748184,-6.500012700025,11.));
#991 = CIRCLE('',#992,3.);
#992 = AXIS2_PLACEMENT_3D('',#993,#994,#995);
#993 = CARTESIAN_POINT('',(127.00017748184,-6.500012700025,11.));
#994 = DIRECTION('',(0.,-0.,1.));
#995 = DIRECTION('',(1.,1.E-16,0.));
#996 = PLANE('',#997);
#997 = AXIS2_PLACEMENT_3D('',#998,#999,#1000);
#998 = CARTESIAN_POINT('',(75.0001511303,-38.50008001016,11.));
#999 = DIRECTION('',(0.,0.,1.));
#1000 = DIRECTION('',(1.,0.,0.));
#1001 = ADVANCED_FACE('',(#1002),#1021,.F.);
#1002 = FACE_BOUND('',#1003,.T.);
#1003 = EDGE_LOOP('',(#1004,#1012,#1013,#1014));
#1004 = ORIENTED_EDGE('',*,*,#1005,.F.);
#1005 = EDGE_CURVE('',#863,#1006,#1008,.T.);
#1006 = VERTEX_POINT('',#1007);
#1007 = CARTESIAN_POINT('',(24.19996414142,-70.50014224028,
    1.610050800102));
#1008 = LINE('',#1009,#1010);
#1009 = CARTESIAN_POINT('',(24.19996414142,-70.50014224028,3.));
#1010 = VECTOR('',#1011,1.);
#1011 = DIRECTION('',(-6.E-17,0.,-1.));
#1012 = ORIENTED_EDGE('',*,*,#862,.T.);
#1013 = ORIENTED_EDGE('',*,*,#1005,.T.);
#1014 = ORIENTED_EDGE('',*,*,#1015,.T.);
#1015 = EDGE_CURVE('',#1006,#1006,#1016,.T.);
#1016 = CIRCLE('',#1017,1.2);
#1017 = AXIS2_PLACEMENT_3D('',#1018,#1019,#1020);
#1018 = CARTESIAN_POINT('',(22.99996414142,-70.50014224028,
    1.610050800102));
#1019 = DIRECTION('',(0.,0.,-1.));
#1020 = DIRECTION('',(1.,0.,0.));
#1021 = CYLINDRICAL_SURFACE('',#1022,1.2);
#1022 = AXIS2_PLACEMENT_3D('',#1023,#1024,#1025);
#1023 = CARTESIAN_POINT('',(22.99996414142,-70.50014224028,3.));
#1024 = DIRECTION('',(-0.,-0.,-1.));
#1025 = DIRECTION('',(1.,0.,0.));
#1026 = ADVANCED_FACE('',(#1027),#1046,.F.);
#1027 = FACE_BOUND('',#1028,.T.);
#1028 = EDGE_LOOP('',(#1029,#1037,#1038,#1039));
#1029 = ORIENTED_EDGE('',*,*,#1030,.F.);
#1030 = EDGE_CURVE('',#883,#1031,#1033,.T.);
#1031 = VERTEX_POINT('',#1032);
#1032 = CARTESIAN_POINT('',(128.20017749184,-70.50014224028,
    1.610050800102));
#1033 = LINE('',#1034,#1035);
#1034 = CARTESIAN_POINT('',(128.20017749184,-70.50014224028,3.));
#1035 = VECTOR('',#1036,1.);
#1036 = DIRECTION('',(-6.E-17,0.,-1.));
#1037 = ORIENTED_EDGE('',*,*,#882,.T.);
#1038 = ORIENTED_EDGE('',*,*,#1030,.T.);
#1039 = ORIENTED_EDGE('',*,*,#1040,.T.);
#1040 = EDGE_CURVE('',#1031,#1031,#1041,.T.);
#1041 = CIRCLE('',#1042,1.2);
#1042 = AXIS2_PLACEMENT_3D('',#1043,#1044,#1045);
#1043 = CARTESIAN_POINT('',(127.00017749184,-70.50014224028,
    1.610050800102));
#1044 = DIRECTION('',(0.,0.,-1.));
#1045 = DIRECTION('',(1.,0.,0.));
#1046 = CYLINDRICAL_SURFACE('',#1047,1.2);
#1047 = AXIS2_PLACEMENT_3D('',#1048,#1049,#1050);
#1048 = CARTESIAN_POINT('',(127.00017749184,-70.50014224028,3.));
#1049 = DIRECTION('',(-0.,-0.,-1.));
#1050 = DIRECTION('',(1.,0.,0.));
#1051 = ADVANCED_FACE('',(#1052),#1071,.F.);
#1052 = FACE_BOUND('',#1053,.T.);
#1053 = EDGE_LOOP('',(#1054,#1062,#1063,#1064));
#1054 = ORIENTED_EDGE('',*,*,#1055,.F.);
#1055 = EDGE_CURVE('',#903,#1056,#1058,.T.);
#1056 = VERTEX_POINT('',#1057);
#1057 = CARTESIAN_POINT('',(24.108919987803,-6.500012700025,
    1.610050800102));
#1058 = LINE('',#1059,#1060);
#1059 = CARTESIAN_POINT('',(24.108919987803,-6.500012700025,3.));
#1060 = VECTOR('',#1061,1.);
#1061 = DIRECTION('',(-6.E-17,0.,-1.));
#1062 = ORIENTED_EDGE('',*,*,#902,.T.);
#1063 = ORIENTED_EDGE('',*,*,#1055,.T.);
#1064 = ORIENTED_EDGE('',*,*,#1065,.T.);
#1065 = EDGE_CURVE('',#1056,#1056,#1066,.T.);
#1066 = CIRCLE('',#1067,1.2);
#1067 = AXIS2_PLACEMENT_3D('',#1068,#1069,#1070);
#1068 = CARTESIAN_POINT('',(22.908919987803,-6.500012700025,
    1.610050800102));
#1069 = DIRECTION('',(0.,0.,-1.));
#1070 = DIRECTION('',(1.,0.,0.));
#1071 = CYLINDRICAL_SURFACE('',#1072,1.2);
#1072 = AXIS2_PLACEMENT_3D('',#1073,#1074,#1075);
#1073 = CARTESIAN_POINT('',(22.908919987803,-6.500012700025,3.));
#1074 = DIRECTION('',(-0.,-0.,-1.));
#1075 = DIRECTION('',(1.,0.,0.));
#1076 = ADVANCED_FACE('',(#1077),#1096,.F.);
#1077 = FACE_BOUND('',#1078,.T.);
#1078 = EDGE_LOOP('',(#1079,#1087,#1088,#1089));
#1079 = ORIENTED_EDGE('',*,*,#1080,.F.);
#1080 = EDGE_CURVE('',#923,#1081,#1083,.T.);
#1081 = VERTEX_POINT('',#1082);
#1082 = CARTESIAN_POINT('',(128.20017748184,-6.500012700025,
    1.610050800102));
#1083 = LINE('',#1084,#1085);
#1084 = CARTESIAN_POINT('',(128.20017748184,-6.500012700025,3.));
#1085 = VECTOR('',#1086,1.);
#1086 = DIRECTION('',(-6.E-17,0.,-1.));
#1087 = ORIENTED_EDGE('',*,*,#922,.T.);
#1088 = ORIENTED_EDGE('',*,*,#1080,.T.);
#1089 = ORIENTED_EDGE('',*,*,#1090,.T.);
#1090 = EDGE_CURVE('',#1081,#1081,#1091,.T.);
#1091 = CIRCLE('',#1092,1.2);
#1092 = AXIS2_PLACEMENT_3D('',#1093,#1094,#1095);
#1093 = CARTESIAN_POINT('',(127.00017748184,-6.500012700025,
    1.610050800102));
#1094 = DIRECTION('',(0.,0.,-1.));
#1095 = DIRECTION('',(1.,0.,0.));
#1096 = CYLINDRICAL_SURFACE('',#1097,1.2);
#1097 = AXIS2_PLACEMENT_3D('',#1098,#1099,#1100);
#1098 = CARTESIAN_POINT('',(127.00017748184,-6.500012700025,3.));
#1099 = DIRECTION('',(-0.,-0.,-1.));
#1100 = DIRECTION('',(1.,0.,0.));
#1101 = ADVANCED_FACE('',(#1102),#1129,.T.);
#1102 = FACE_BOUND('',#1103,.T.);
#1103 = EDGE_LOOP('',(#1104,#1115,#1122,#1127,#1128));
#1104 = ORIENTED_EDGE('',*,*,#1105,.T.);
#1105 = EDGE_CURVE('',#1106,#1108,#1110,.T.);
#1106 = VERTEX_POINT('',#1107);
#1107 = CARTESIAN_POINT('',(25.99996414142,-70.50014224028,
    1.610050800102));
#1108 = VERTEX_POINT('',#1109);
#1109 = CARTESIAN_POINT('',(19.99996414142,-70.50014224028,
    1.610050800102));
#1110 = CIRCLE('',#1111,3.);
#1111 = AXIS2_PLACEMENT_3D('',#1112,#1113,#1114);
#1112 = CARTESIAN_POINT('',(22.99996414142,-70.50014224028,
    1.610050800102));
#1113 = DIRECTION('',(0.,-0.,1.));
#1114 = DIRECTION('',(1.,1.E-16,0.));
#1115 = ORIENTED_EDGE('',*,*,#1116,.T.);
#1116 = EDGE_CURVE('',#1108,#1106,#1117,.T.);
#1117 = CIRCLE('',#1118,3.);
#1118 = AXIS2_PLACEMENT_3D('',#1119,#1120,#1121);
#1119 = CARTESIAN_POINT('',(22.99996414142,-70.50014224028,
    1.610050800102));
#1120 = DIRECTION('',(0.,0.,1.));
#1121 = DIRECTION('',(-1.,-1.2E-16,0.));
#1122 = ORIENTED_EDGE('',*,*,#1123,.T.);
#1123 = EDGE_CURVE('',#1106,#950,#1124,.T.);
#1124 = B_SPLINE_CURVE_WITH_KNOTS('',1,(#1125,#1126),.UNSPECIFIED.,.F.,
  .F.,(2,2),(-12.38994919989,0.),.PIECEWISE_BEZIER_KNOTS.);
#1125 = CARTESIAN_POINT('',(25.99996414142,-70.50014224028,
    1.610050800102));
#1126 = CARTESIAN_POINT('',(25.99996414142,-70.50014224028,14.));
#1127 = ORIENTED_EDGE('',*,*,#949,.F.);
#1128 = ORIENTED_EDGE('',*,*,#1123,.F.);
#1129 = CYLINDRICAL_SURFACE('',#1130,3.);
#1130 = AXIS2_PLACEMENT_3D('',#1131,#1132,#1133);
#1131 = CARTESIAN_POINT('',(22.99996414142,-70.50014224028,14.));
#1132 = DIRECTION('',(0.,0.,1.));
#1133 = DIRECTION('',(1.,1.E-16,0.));
#1134 = ADVANCED_FACE('',(#1135),#1162,.T.);
#1135 = FACE_BOUND('',#1136,.T.);
#1136 = EDGE_LOOP('',(#1137,#1148,#1155,#1160,#1161));
#1137 = ORIENTED_EDGE('',*,*,#1138,.T.);
#1138 = EDGE_CURVE('',#1139,#1141,#1143,.T.);
#1139 = VERTEX_POINT('',#1140);
#1140 = CARTESIAN_POINT('',(130.00017749184,-70.50014224028,
    1.610050800102));
#1141 = VERTEX_POINT('',#1142);
#1142 = CARTESIAN_POINT('',(124.00017749184,-70.50014224028,
    1.610050800102));
#1143 = CIRCLE('',#1144,3.);
#1144 = AXIS2_PLACEMENT_3D('',#1145,#1146,#1147);
#1145 = CARTESIAN_POINT('',(127.00017749184,-70.50014224028,
    1.610050800102));
#1146 = DIRECTION('',(0.,-0.,1.));
#1147 = DIRECTION('',(1.,1.E-16,0.));
#1148 = ORIENTED_EDGE('',*,*,#1149,.T.);
#1149 = EDGE_CURVE('',#1141,#1139,#1150,.T.);
#1150 = CIRCLE('',#1151,3.);
#1151 = AXIS2_PLACEMENT_3D('',#1152,#1153,#1154);
#1152 = CARTESIAN_POINT('',(127.00017749184,-70.50014224028,
    1.610050800102));
#1153 = DIRECTION('',(0.,0.,1.));
#1154 = DIRECTION('',(-1.,-1.2E-16,0.));
#1155 = ORIENTED_EDGE('',*,*,#1156,.T.);
#1156 = EDGE_CURVE('',#1139,#961,#1157,.T.);
#1157 = B_SPLINE_CURVE_WITH_KNOTS('',1,(#1158,#1159),.UNSPECIFIED.,.F.,
  .F.,(2,2),(-12.38994919989,0.),.PIECEWISE_BEZIER_KNOTS.);
#1158 = CARTESIAN_POINT('',(130.00017749184,-70.50014224028,
    1.610050800102));
#1159 = CARTESIAN_POINT('',(130.00017749184,-70.50014224028,14.));
#1160 = ORIENTED_EDGE('',*,*,#960,.F.);
#1161 = ORIENTED_EDGE('',*,*,#1156,.F.);
#1162 = CYLINDRICAL_SURFACE('',#1163,3.);
#1163 = AXIS2_PLACEMENT_3D('',#1164,#1165,#1166);
#1164 = CARTESIAN_POINT('',(127.00017749184,-70.50014224028,14.));
#1165 = DIRECTION('',(0.,0.,1.));
#1166 = DIRECTION('',(1.,1.E-16,0.));
#1167 = ADVANCED_FACE('',(#1168),#1195,.T.);
#1168 = FACE_BOUND('',#1169,.T.);
#1169 = EDGE_LOOP('',(#1170,#1181,#1188,#1193,#1194));
#1170 = ORIENTED_EDGE('',*,*,#1171,.T.);
#1171 = EDGE_CURVE('',#1172,#1174,#1176,.T.);
#1172 = VERTEX_POINT('',#1173);
#1173 = CARTESIAN_POINT('',(25.908919987803,-6.500012700025,
    1.610050800102));
#1174 = VERTEX_POINT('',#1175);
#1175 = CARTESIAN_POINT('',(19.908919987803,-6.500012700025,
    1.610050800102));
#1176 = CIRCLE('',#1177,3.);
#1177 = AXIS2_PLACEMENT_3D('',#1178,#1179,#1180);
#1178 = CARTESIAN_POINT('',(22.908919987803,-6.500012700025,
    1.610050800102));
#1179 = DIRECTION('',(0.,-0.,1.));
#1180 = DIRECTION('',(1.,1.E-16,0.));
#1181 = ORIENTED_EDGE('',*,*,#1182,.T.);
#1182 = EDGE_CURVE('',#1174,#1172,#1183,.T.);
#1183 = CIRCLE('',#1184,3.);
#1184 = AXIS2_PLACEMENT_3D('',#1185,#1186,#1187);
#1185 = CARTESIAN_POINT('',(22.908919987803,-6.500012700025,
    1.610050800102));
#1186 = DIRECTION('',(0.,0.,1.));
#1187 = DIRECTION('',(-1.,-1.2E-16,0.));
#1188 = ORIENTED_EDGE('',*,*,#1189,.T.);
#1189 = EDGE_CURVE('',#1172,#978,#1190,.T.);
#1190 = B_SPLINE_CURVE_WITH_KNOTS('',1,(#1191,#1192),.UNSPECIFIED.,.F.,
  .F.,(2,2),(-12.38994919989,0.),.PIECEWISE_BEZIER_KNOTS.);
#1191 = CARTESIAN_POINT('',(25.908919987803,-6.500012700025,
    1.610050800102));
#1192 = CARTESIAN_POINT('',(25.908919987803,-6.500012700025,14.));
#1193 = ORIENTED_EDGE('',*,*,#977,.F.);
#1194 = ORIENTED_EDGE('',*,*,#1189,.F.);
#1195 = CYLINDRICAL_SURFACE('',#1196,3.);
#1196 = AXIS2_PLACEMENT_3D('',#1197,#1198,#1199);
#1197 = CARTESIAN_POINT('',(22.908919987803,-6.500012700025,14.));
#1198 = DIRECTION('',(0.,0.,1.));
#1199 = DIRECTION('',(1.,1.E-16,0.));
#1200 = ADVANCED_FACE('',(#1201),#1228,.T.);
#1201 = FACE_BOUND('',#1202,.T.);
#1202 = EDGE_LOOP('',(#1203,#1214,#1221,#1226,#1227));
#1203 = ORIENTED_EDGE('',*,*,#1204,.T.);
#1204 = EDGE_CURVE('',#1205,#1207,#1209,.T.);
#1205 = VERTEX_POINT('',#1206);
#1206 = CARTESIAN_POINT('',(130.00017748184,-6.500012700025,
    1.610050800102));
#1207 = VERTEX_POINT('',#1208);
#1208 = CARTESIAN_POINT('',(124.00017748184,-6.500012700025,
    1.610050800102));
#1209 = CIRCLE('',#1210,3.);
#1210 = AXIS2_PLACEMENT_3D('',#1211,#1212,#1213);
#1211 = CARTESIAN_POINT('',(127.00017748184,-6.500012700025,
    1.610050800102));
#1212 = DIRECTION('',(0.,-0.,1.));
#1213 = DIRECTION('',(1.,1.E-16,0.));
#1214 = ORIENTED_EDGE('',*,*,#1215,.T.);
#1215 = EDGE_CURVE('',#1207,#1205,#1216,.T.);
#1216 = CIRCLE('',#1217,3.);
#1217 = AXIS2_PLACEMENT_3D('',#1218,#1219,#1220);
#1218 = CARTESIAN_POINT('',(127.00017748184,-6.500012700025,
    1.610050800102));
#1219 = DIRECTION('',(0.,0.,1.));
#1220 = DIRECTION('',(-1.,-1.2E-16,0.));
#1221 = ORIENTED_EDGE('',*,*,#1222,.T.);
#1222 = EDGE_CURVE('',#1205,#989,#1223,.T.);
#1223 = B_SPLINE_CURVE_WITH_KNOTS('',1,(#1224,#1225),.UNSPECIFIED.,.F.,
  .F.,(2,2),(-12.38994919989,0.),.PIECEWISE_BEZIER_KNOTS.);
#1224 = CARTESIAN_POINT('',(130.00017748184,-6.500012700025,
    1.610050800102));
#1225 = CARTESIAN_POINT('',(130.00017748184,-6.500012700025,14.));
#1226 = ORIENTED_EDGE('',*,*,#988,.F.);
#1227 = ORIENTED_EDGE('',*,*,#1222,.F.);
#1228 = CYLINDRICAL_SURFACE('',#1229,3.);
#1229 = AXIS2_PLACEMENT_3D('',#1230,#1231,#1232);
#1230 = CARTESIAN_POINT('',(127.00017748184,-6.500012700025,14.));
#1231 = DIRECTION('',(0.,0.,1.));
#1232 = DIRECTION('',(1.,1.E-16,0.));
#1233 = ADVANCED_FACE('',(#1234,#1238),#1241,.F.);
#1234 = FACE_BOUND('',#1235,.F.);
#1235 = EDGE_LOOP('',(#1236,#1237));
#1236 = ORIENTED_EDGE('',*,*,#1116,.T.);
#1237 = ORIENTED_EDGE('',*,*,#1105,.T.);
#1238 = FACE_BOUND('',#1239,.F.);
#1239 = EDGE_LOOP('',(#1240));
#1240 = ORIENTED_EDGE('',*,*,#1015,.T.);
#1241 = PLANE('',#1242);
#1242 = AXIS2_PLACEMENT_3D('',#1243,#1244,#1245);
#1243 = CARTESIAN_POINT('',(75.0001524003,-38.50007747015,1.610050800102
    ));
#1244 = DIRECTION('',(0.,0.,1.));
#1245 = DIRECTION('',(1.,0.,0.));
#1246 = ADVANCED_FACE('',(#1247,#1251),#1254,.F.);
#1247 = FACE_BOUND('',#1248,.F.);
#1248 = EDGE_LOOP('',(#1249,#1250));
#1249 = ORIENTED_EDGE('',*,*,#1149,.T.);
#1250 = ORIENTED_EDGE('',*,*,#1138,.T.);
#1251 = FACE_BOUND('',#1252,.F.);
#1252 = EDGE_LOOP('',(#1253));
#1253 = ORIENTED_EDGE('',*,*,#1040,.T.);
#1254 = PLANE('',#1255);
#1255 = AXIS2_PLACEMENT_3D('',#1256,#1257,#1258);
#1256 = CARTESIAN_POINT('',(75.0001524003,-38.50007747015,1.610050800102
    ));
#1257 = DIRECTION('',(0.,0.,1.));
#1258 = DIRECTION('',(1.,0.,0.));
#1259 = ADVANCED_FACE('',(#1260,#1264),#1267,.F.);
#1260 = FACE_BOUND('',#1261,.F.);
#1261 = EDGE_LOOP('',(#1262,#1263));
#1262 = ORIENTED_EDGE('',*,*,#1182,.T.);
#1263 = ORIENTED_EDGE('',*,*,#1171,.T.);
#1264 = FACE_BOUND('',#1265,.F.);
#1265 = EDGE_LOOP('',(#1266));
#1266 = ORIENTED_EDGE('',*,*,#1065,.T.);
#1267 = PLANE('',#1268);
#1268 = AXIS2_PLACEMENT_3D('',#1269,#1270,#1271);
#1269 = CARTESIAN_POINT('',(75.0001524003,-38.50007747015,1.610050800102
    ));
#1270 = DIRECTION('',(0.,0.,1.));
#1271 = DIRECTION('',(1.,0.,0.));
#1272 = ADVANCED_FACE('',(#1273,#1277),#1280,.F.);
#1273 = FACE_BOUND('',#1274,.F.);
#1274 = EDGE_LOOP('',(#1275,#1276));
#1275 = ORIENTED_EDGE('',*,*,#1215,.T.);
#1276 = ORIENTED_EDGE('',*,*,#1204,.T.);
#1277 = FACE_BOUND('',#1278,.F.);
#1278 = EDGE_LOOP('',(#1279));
#1279 = ORIENTED_EDGE('',*,*,#1090,.T.);
#1280 = PLANE('',#1281);
#1281 = AXIS2_PLACEMENT_3D('',#1282,#1283,#1284);
#1282 = CARTESIAN_POINT('',(75.0001524003,-38.50007747015,1.610050800102
    ));
#1283 = DIRECTION('',(0.,0.,1.));
#1284 = DIRECTION('',(1.,0.,0.));
#1285 = ( GEOMETRIC_REPRESENTATION_CONTEXT(3) 
GLOBAL_UNCERTAINTY_ASSIGNED_CONTEXT((#1289)) 
GLOBAL_UNIT_ASSIGNED_CONTEXT((#1286,#1287,#1288)) REPRESENTATION_CONTEXT
('Context #1','3D Context with UNIT and UNCERTAINTY') );
#1286 = ( LENGTH_UNIT() NAMED_UNIT(*) SI_UNIT(.MILLI.,.METRE.) );
#1287 = ( NAMED_UNIT(*) PLANE_ANGLE_UNIT() SI_UNIT($,.RADIAN.) );
#1288 = ( NAMED_UNIT(*) SI_UNIT($,.STERADIAN.) SOLID_ANGLE_UNIT() );
#1289 = UNCERTAINTY_MEASURE_WITH_UNIT(LENGTH_MEASURE(2.E-05),#1286,
  'distance_accuracy_value','confusion accuracy');
#1290 = PRODUCT_RELATED_PRODUCT_CATEGORY('part',$,(#7));
#1291 = MECHANICAL_DESIGN_GEOMETRIC_PRESENTATION_REPRESENTATION('',(
    #1292),#1285);
#1292 = STYLED_ITEM('color',(#1293),#15);
#1293 = PRESENTATION_STYLE_ASSIGNMENT((#1294,#1302));
#1294 = SURFACE_STYLE_USAGE(.BOTH.,#1295);
#1295 = SURFACE_SIDE_STYLE('',(#1296,#1300));
#1296 = SURFACE_STYLE_FILL_AREA(#1297);
#1297 = FILL_AREA_STYLE('',(#1298));
#1298 = FILL_AREA_STYLE_COLOUR('',#1299);
#1299 = COLOUR_RGB('',0.960784305148,0.345098051753,0.254901970902);
#1300 = SURFACE_STYLE_RENDERING_WITH_PROPERTIES(.NORMAL_SHADING.,#1299,(
    #1301));
#1301 = SURFACE_STYLE_TRANSPARENT(0.699999988079);
#1302 = CURVE_STYLE('',#1303,POSITIVE_LENGTH_MEASURE(0.1),#1304);
#1303 = DRAUGHTING_PRE_DEFINED_CURVE_FONT('continuous');
#1304 = COLOUR_RGB('',9.803921802644E-02,9.803921802644E-02,
  9.803921802644E-02);
ENDSEC;
END-ISO-10303-21;
